<svg height="440" version="1.1" width="620" xmlns="http://www.w3.org/2000/svg"><line style="stroke: orange; stroke-width: 4;" x1="403.25" x2="478.25" y1="240" y2="340" /><line style="stroke: orange; stroke-width: 4;" x1="397.0" x2="397.0" y1="140" y2="240" /><line style="stroke: orange; stroke-width: 4;" x1="272.0" x2="397.0" y1="40" y2="140" /><line style="stroke: orange; stroke-width: 4;" x1="397.0" x2="472.0" y1="240" y2="340" /><line style="stroke: orange; stroke-width: 4;" x1="347.0" x2="397.0" y1="140" y2="240" /><line style="stroke: orange; stroke-width: 4;" x1="272.0" x2="347.0" y1="40" y2="140" /><line style="stroke: orange; stroke-width: 4;" x1="390.75" x2="465.75" y1="240" y2="340" /><line style="stroke: orange; stroke-width: 4;" x1="297.0" x2="397.0" y1="140" y2="240" /><line style="stroke: orange; stroke-width: 4;" x1="277.153882032" x2="302.153882032" y1="40" y2="140" /><line style="stroke: orange; stroke-width: 4;" x1="283.933216757" x2="508.933216757" y1="240" y2="340" /><line style="stroke: orange; stroke-width: 4;" x1="302.590169944" x2="252.590169944" y1="140" y2="240" /><line style="stroke: orange; stroke-width: 4;" x1="272.0" x2="297.0" y1="40" y2="140" /><line style="stroke: orange; stroke-width: 4;" x1="265.75" x2="190.75" y1="240" y2="340" /><line style="stroke: orange; stroke-width: 4;" x1="297.0" x2="247.0" y1="140" y2="240" /><line style="stroke: orange; stroke-width: 4;" x1="266.846117968" x2="291.846117968" y1="40" y2="140" /><line style="stroke: orange; stroke-width: 4;" x1="271.622144504" x2="496.622144504" y1="240" y2="340" /><line style="stroke: orange; stroke-width: 4;" x1="252.0" x2="252.0" y1="140" y2="240" /><line style="stroke: orange; stroke-width: 4;" x1="272.0" x2="247.0" y1="40" y2="140" /><line style="stroke: orange; stroke-width: 4;" x1="259.5" x2="184.5" y1="240" y2="340" /><line style="stroke: orange; stroke-width: 4;" x1="247.0" x2="247.0" y1="140" y2="240" /><line style="stroke: orange; stroke-width: 4;" x1="266.846117968" x2="241.846117968" y1="40" y2="140" /><line style="stroke: green; stroke-width: 4;" x1="384.5" x2="459.5" y1="240" y2="340" /><line style="stroke: green; stroke-width: 4;" x1="289.928932188" x2="389.928932188" y1="140" y2="240" /><line style="stroke: green; stroke-width: 4;" x1="180.003905297" x2="305.003905297" y1="40" y2="140" /><line style="stroke: green; stroke-width: 4;" x1="259.311072252" x2="484.311072252" y1="240" y2="340" /><line style="stroke: green; stroke-width: 4;" x1="291.409830056" x2="241.409830056" y1="140" y2="240" /><line style="stroke: green; stroke-width: 4;" x1="172.0" x2="297.0" y1="40" y2="140" /><line style="stroke: green; stroke-width: 4;" x1="253.25" x2="178.25" y1="240" y2="340" /><line style="stroke: green; stroke-width: 4;" x1="285.819660113" x2="235.819660113" y1="140" y2="240" /><line style="stroke: green; stroke-width: 4;" x1="163.996094703" x2="288.996094703" y1="40" y2="140" /><line style="stroke: green; stroke-width: 4;" x1="247.0" x2="472.0" y1="240" y2="340" /><line style="stroke: green; stroke-width: 4;" x1="242.0" x2="242.0" y1="140" y2="240" /><line style="stroke: green; stroke-width: 4;" x1="172.0" x2="247.0" y1="40" y2="140" /><line style="stroke: green; stroke-width: 4;" x1="247.0" x2="172.0" y1="240" y2="340" /><line style="stroke: green; stroke-width: 4;" x1="237.0" x2="237.0" y1="140" y2="240" /><line style="stroke: green; stroke-width: 4;" x1="165.75" x2="240.75" y1="40" y2="140" /><line style="stroke: green; stroke-width: 4;" x1="234.688927748" x2="459.688927748" y1="240" y2="340" /><line style="stroke: green; stroke-width: 4;" x1="202.590169944" x2="252.590169944" y1="140" y2="240" /><line style="stroke: green; stroke-width: 4;" x1="172.0" x2="197.0" y1="40" y2="140" /><line style="stroke: green; stroke-width: 4;" x1="240.75" x2="165.75" y1="240" y2="340" /><line style="stroke: green; stroke-width: 4;" x1="197.0" x2="247.0" y1="140" y2="240" /><line style="stroke: green; stroke-width: 4;" x1="166.846117968" x2="191.846117968" y1="40" y2="140" /><line style="stroke: green; stroke-width: 4;" x1="222.377855496" x2="447.377855496" y1="240" y2="340" /><line style="stroke: green; stroke-width: 4;" x1="154.071067812" x2="254.071067812" y1="140" y2="240" /><line style="stroke: green; stroke-width: 4;" x1="177.153882032" x2="152.153882032" y1="40" y2="140" /><line style="stroke: green; stroke-width: 4;" x1="234.5" x2="159.5" y1="240" y2="340" /><line style="stroke: green; stroke-width: 4;" x1="147.0" x2="247.0" y1="140" y2="240" /><line style="stroke: green; stroke-width: 4;" x1="172.0" x2="147.0" y1="40" y2="140" /><line style="stroke: green; stroke-width: 4;" x1="103.25" x2="178.25" y1="240" y2="340" /><line style="stroke: green; stroke-width: 4;" x1="147.0" x2="97.0" y1="140" y2="240" /><line style="stroke: green; stroke-width: 4;" x1="166.846117968" x2="141.846117968" y1="40" y2="140" /><line style="stroke: red; stroke-width: 4;" x1="210.066783243" x2="435.066783243" y1="240" y2="340" /><line style="stroke: red; stroke-width: 4;" x1="191.409830056" x2="241.409830056" y1="140" y2="240" /><line style="stroke: red; stroke-width: 4;" x1="72.0" x2="197.0" y1="40" y2="140" /><line style="stroke: red; stroke-width: 4;" x1="228.25" x2="153.25" y1="240" y2="340" /><line style="stroke: red; stroke-width: 4;" x1="185.819660113" x2="235.819660113" y1="140" y2="240" /><line style="stroke: red; stroke-width: 4;" x1="63.9960947032" x2="188.996094703" y1="40" y2="140" /><line style="stroke: red; stroke-width: 4;" x1="197.755710991" x2="422.755710991" y1="240" y2="340" /><line style="stroke: red; stroke-width: 4;" x1="139.928932188" x2="239.928932188" y1="140" y2="240" /><line style="stroke: red; stroke-width: 4;" x1="78.25" x2="153.25" y1="40" y2="140" /><line style="stroke: red; stroke-width: 4;" x1="222.0" x2="147.0" y1="240" y2="340" /><line style="stroke: red; stroke-width: 4;" x1="132.857864376" x2="232.857864376" y1="140" y2="240" /><line style="stroke: red; stroke-width: 4;" x1="72.0" x2="147.0" y1="40" y2="140" /><line style="stroke: red; stroke-width: 4;" x1="97.0" x2="172.0" y1="240" y2="340" /><line style="stroke: red; stroke-width: 4;" x1="141.409830056" x2="91.4098300563" y1="140" y2="240" /><line style="stroke: red; stroke-width: 4;" x1="65.75" x2="140.75" y1="40" y2="140" /><line style="stroke: red; stroke-width: 4;" x1="90.75" x2="165.75" y1="240" y2="340" /><line style="stroke: red; stroke-width: 4;" x1="97.0" x2="97.0" y1="140" y2="240" /><line style="stroke: red; stroke-width: 4;" x1="72.0" x2="97.0" y1="40" y2="140" /><line style="stroke: red; stroke-width: 4;" x1="84.5" x2="159.5" y1="240" y2="340" /><line style="stroke: red; stroke-width: 4;" x1="47.0" x2="97.0" y1="140" y2="240" /><line style="stroke: red; stroke-width: 4;" x1="72.0" x2="47.0" y1="40" y2="140" /><line style="stroke: black; stroke-width: 2;" x1="320" x2="320" y1="10" y2="350.0" /><svg style="" x="287" y="335.0"><text style="" text-anchor="middle"><tspan x="33" y="30">HP</tspan></text></svg><svg id="BET_T1,1" x="51.0" y="21"><circle cx="19" cy="19" r="18" style="fill: white; stroke: black; stroke-width: 2;" /><text style="stroke-width: 0;" text-anchor="middle"><tspan x="19" y="24">1</tspan></text></svg><svg id="BET_T5,1" x="26.0" y="121"><circle cx="19" cy="19" r="18" style="fill: white; stroke: black; stroke-width: 2;" /><text style="stroke-width: 0;" text-anchor="middle"><tspan x="19" y="24">1</tspan></text></svg><svg id="BET_T7,1" x="76.0" y="221"><circle cx="19" cy="19" r="18" style="fill: white; stroke: black; stroke-width: 2;" /><text style="stroke-width: 0;" text-anchor="middle"><tspan x="19" y="24">1</tspan></text></svg><svg id="BET_T9,1" x="151.0" y="321"><circle cx="19" cy="19" r="18" style="fill: white; stroke: black; stroke-width: 2;" /><text style="stroke-width: 0;" text-anchor="middle"><tspan x="19" y="24">1</tspan></text></svg><svg id="BET_T5,2" x="76.0" y="121"><circle cx="19" cy="19" r="18" style="fill: white; stroke: black; stroke-width: 2;" /><text style="stroke-width: 0;" text-anchor="middle"><tspan x="19" y="24">2</tspan></text></svg><svg id="BET_T5,3" x="126.0" y="121"><circle cx="19" cy="19" r="18" style="fill: white; stroke: black; stroke-width: 2;" /><text style="stroke-width: 0;" text-anchor="middle"><tspan x="19" y="24">3</tspan></text></svg><svg id="BET_T7,2" x="226.0" y="221"><circle cx="19" cy="19" r="18" style="fill: white; stroke: black; stroke-width: 2;" /><text style="stroke-width: 0;" text-anchor="middle"><tspan x="19" y="24">2</tspan></text></svg><svg id="BET_T9,2" x="451.0" y="321"><circle cx="19" cy="19" r="18" style="fill: white; stroke: black; stroke-width: 2;" /><text style="stroke-width: 0;" text-anchor="middle"><tspan x="19" y="24">2</tspan></text></svg><svg id="BET_T5,4" x="176.0" y="121"><circle cx="19" cy="19" r="18" style="fill: white; stroke: black; stroke-width: 2;" /><text style="stroke-width: 0;" text-anchor="middle"><tspan x="19" y="24">4</tspan></text></svg><svg id="BET_T1,2" x="151.0" y="21"><circle cx="19" cy="19" r="18" style="fill: white; stroke: black; stroke-width: 2;" /><text style="stroke-width: 0;" text-anchor="middle"><tspan x="19" y="24">2</tspan></text></svg><svg id="BET_T5,5" x="226.0" y="121"><circle cx="19" cy="19" r="18" style="fill: white; stroke: black; stroke-width: 2;" /><text style="stroke-width: 0;" text-anchor="middle"><tspan x="19" y="24">5</tspan></text></svg><svg id="BET_T5,6" x="276.0" y="121"><circle cx="19" cy="19" r="18" style="fill: white; stroke: black; stroke-width: 2;" /><text style="stroke-width: 0;" text-anchor="middle"><tspan x="19" y="24">6</tspan></text></svg><svg id="BET_T7,3" x="376.0" y="221"><circle cx="19" cy="19" r="18" style="fill: white; stroke: black; stroke-width: 2;" /><text style="stroke-width: 0;" text-anchor="middle"><tspan x="19" y="24">3</tspan></text></svg><svg id="BET_T1,3" x="251.0" y="21"><circle cx="19" cy="19" r="18" style="fill: white; stroke: black; stroke-width: 2;" /><text style="stroke-width: 0;" text-anchor="middle"><tspan x="19" y="24">3</tspan></text></svg><svg id="BET_T5,7" x="326.0" y="121"><circle cx="19" cy="19" r="18" style="fill: white; stroke: black; stroke-width: 2;" /><text style="stroke-width: 0;" text-anchor="middle"><tspan x="19" y="24">7</tspan></text></svg><svg id="BET_T5,8" x="376.0" y="121"><circle cx="19" cy="19" r="18" style="fill: white; stroke: black; stroke-width: 2;" /><text style="stroke-width: 0;" text-anchor="middle"><tspan x="19" y="24">8</tspan></text></svg></svg>