<svg height="700" version="1.1" width="940" xmlns="http://www.w3.org/2000/svg"><rect height="700" style="fill:white;" width="940" x="0" y="0" /><polygon name="dependency_polygon" points="20, 50 30, 95 30, 250 60, 295 60, 450 70, 495 70, 650 690, 650 690, 520 540, 450 540, 295 330, 250 330, 120 270, 50 " style="fill:#F5DA81; stroke:none; opacity:1;" /><polygon name="max_data_age" points="270, 50 270, 650 650, 650 650, 520 520, 450 520, 295 320, 250 320, 120 270, 50 " style="fill:black; stroke:none; opacity:0.3;" /><line style="stroke: black; stroke-width: 2;" x1="650" x2="650" y1="580" y2="620" /><line style="stroke: black; stroke-width: 2;" x1="270" x2="270" y1="580" y2="620" /><line style="stroke: black; stroke-width: 2;" x1="270" x2="650" y1="600" y2="600" /><line style="stroke: black; stroke-width: 2;" x1="870" x2="870" y1="650" y2="655" /><line style="stroke: black; stroke-width: 2;" x1="820" x2="820" y1="650" y2="660" /><line style="stroke: black; stroke-width: 2;" x1="770" x2="770" y1="650" y2="655" /><line style="stroke: black; stroke-width: 2;" x1="720" x2="720" y1="650" y2="660" /><line style="stroke: black; stroke-width: 2;" x1="670" x2="670" y1="650" y2="655" /><line style="stroke: black; stroke-width: 3;" x1="620" x2="620" y1="670" y2="40" /><line style="stroke: black; stroke-width: 2;" x1="570" x2="570" y1="650" y2="655" /><line style="stroke: black; stroke-width: 2;" x1="520" x2="520" y1="650" y2="660" /><line style="stroke: black; stroke-width: 2;" x1="470" x2="470" y1="650" y2="655" /><line style="stroke: black; stroke-width: 2;" x1="420" x2="420" y1="650" y2="660" /><line style="stroke: black; stroke-width: 2;" x1="370" x2="370" y1="650" y2="655" /><line style="stroke: black; stroke-width: 3;" x1="320" x2="320" y1="670" y2="40" /><line style="stroke: black; stroke-width: 2;" x1="270" x2="270" y1="650" y2="655" /><line style="stroke: black; stroke-width: 2;" x1="220" x2="220" y1="650" y2="660" /><line style="stroke: black; stroke-width: 2;" x1="170" x2="170" y1="650" y2="655" /><line style="stroke: black; stroke-width: 2;" x1="120" x2="120" y1="650" y2="660" /><line style="stroke: black; stroke-width: 2;" x1="70" x2="70" y1="650" y2="655" /><line style="stroke: black; stroke-width: 2;" x1="20" x2="20" y1="650" y2="660" /><line style="stroke: black; stroke-width: 3;" x1="20" x2="20" y1="650" y2="40" /><line style="stroke: black; stroke-width: 3;" x1="20" x2="900" y1="650" y2="650" /><line style="stroke: grey; stroke-width: 2;" x1="920" x2="920" y1="445" y2="570" /><line style="stroke: green; stroke-width: 2;" x1="830" x2="990" y1="495" y2="495" /><line style="stroke: blue; stroke-width: 2;" x1="820" x2="880" y1="450" y2="450" /><line style="stroke: grey; stroke-width: 2;" x1="820" x2="820" y1="445" y2="570" /><line style="stroke: green; stroke-width: 2;" x1="730" x2="890" y1="520" y2="520" /><line style="stroke: blue; stroke-width: 2;" x1="720" x2="780" y1="450" y2="450" /><line style="stroke: grey; stroke-width: 2;" x1="720" x2="720" y1="445" y2="570" /><line style="stroke: green; stroke-width: 2;" x1="630" x2="790" y1="495" y2="495" /><line style="stroke: blue; stroke-width: 2;" x1="620" x2="680" y1="450" y2="450" /><line style="stroke: black; stroke-width: 1;" x1="620" x2="620" y1="445" y2="570" /><line style="stroke: green; stroke-width: 2;" x1="530" x2="690" y1="520" y2="520" /><line style="stroke: blue; stroke-width: 2;" x1="520" x2="580" y1="450" y2="450" /><line style="stroke: black; stroke-width: 1;" x1="520" x2="520" y1="445" y2="570" /><line style="stroke: green; stroke-width: 2;" x1="430" x2="590" y1="495" y2="495" /><line style="stroke: blue; stroke-width: 2;" x1="420" x2="480" y1="450" y2="450" /><line style="stroke: black; stroke-width: 1;" x1="420" x2="420" y1="445" y2="570" /><line style="stroke: green; stroke-width: 2;" x1="330" x2="490" y1="520" y2="520" /><line style="stroke: blue; stroke-width: 2;" x1="320" x2="380" y1="450" y2="450" /><line style="stroke: black; stroke-width: 1;" x1="320" x2="320" y1="445" y2="570" /><line style="stroke: green; stroke-width: 2;" x1="230" x2="390" y1="495" y2="495" /><line style="stroke: blue; stroke-width: 2;" x1="220" x2="280" y1="450" y2="450" /><line style="stroke: black; stroke-width: 1;" x1="220" x2="220" y1="445" y2="570" /><line style="stroke: green; stroke-width: 2;" x1="130" x2="290" y1="520" y2="520" /><line style="stroke: blue; stroke-width: 2;" x1="120" x2="180" y1="450" y2="450" /><line style="stroke: black; stroke-width: 1;" x1="120" x2="120" y1="445" y2="570" /><line style="stroke: green; stroke-width: 2;" x1="30" x2="190" y1="495" y2="495" /><line style="stroke: blue; stroke-width: 2;" x1="20" x2="80" y1="450" y2="450" /><line style="stroke: grey; stroke-width: 2;" x1="920" x2="920" y1="245" y2="370" /><line style="stroke: green; stroke-width: 2;" x1="800" x2="990" y1="320" y2="320" /><line style="stroke: blue; stroke-width: 2;" x1="770" x2="810" y1="250" y2="250" /><line style="stroke: grey; stroke-width: 2;" x1="770" x2="770" y1="245" y2="370" /><line style="stroke: green; stroke-width: 2;" x1="650" x2="840" y1="295" y2="295" /><line style="stroke: blue; stroke-width: 2;" x1="620" x2="660" y1="250" y2="250" /><line style="stroke: grey; stroke-width: 2;" x1="620" x2="620" y1="245" y2="370" /><line style="stroke: green; stroke-width: 2;" x1="500" x2="690" y1="320" y2="320" /><line style="stroke: blue; stroke-width: 2;" x1="470" x2="510" y1="250" y2="250" /><line style="stroke: black; stroke-width: 1;" x1="470" x2="470" y1="245" y2="370" /><line style="stroke: green; stroke-width: 2;" x1="350" x2="540" y1="295" y2="295" /><line style="stroke: blue; stroke-width: 2;" x1="320" x2="360" y1="250" y2="250" /><line style="stroke: black; stroke-width: 1;" x1="320" x2="320" y1="245" y2="370" /><line style="stroke: green; stroke-width: 2;" x1="200" x2="390" y1="320" y2="320" /><line style="stroke: blue; stroke-width: 2;" x1="170" x2="210" y1="250" y2="250" /><line style="stroke: black; stroke-width: 1;" x1="170" x2="170" y1="245" y2="370" /><line style="stroke: green; stroke-width: 2;" x1="50" x2="240" y1="295" y2="295" /><line style="stroke: blue; stroke-width: 2;" x1="20" x2="60" y1="250" y2="250" /><line style="stroke: grey; stroke-width: 2;" x1="920" x2="920" y1="45" y2="170" /><line style="stroke: green; stroke-width: 2;" x1="880" x2="930" y1="120" y2="120" /><line style="stroke: blue; stroke-width: 2;" x1="870" x2="870" y1="50" y2="50" /><line style="stroke: grey; stroke-width: 2;" x1="870" x2="870" y1="45" y2="170" /><line style="stroke: green; stroke-width: 2;" x1="830" x2="880" y1="95" y2="95" /><line style="stroke: blue; stroke-width: 2;" x1="820" x2="820" y1="50" y2="50" /><line style="stroke: grey; stroke-width: 2;" x1="820" x2="820" y1="45" y2="170" /><line style="stroke: green; stroke-width: 2;" x1="780" x2="830" y1="120" y2="120" /><line style="stroke: blue; stroke-width: 2;" x1="770" x2="770" y1="50" y2="50" /><line style="stroke: grey; stroke-width: 2;" x1="770" x2="770" y1="45" y2="170" /><line style="stroke: green; stroke-width: 2;" x1="730" x2="780" y1="95" y2="95" /><line style="stroke: blue; stroke-width: 2;" x1="720" x2="720" y1="50" y2="50" /><line style="stroke: grey; stroke-width: 2;" x1="720" x2="720" y1="45" y2="170" /><line style="stroke: green; stroke-width: 2;" x1="680" x2="730" y1="120" y2="120" /><line style="stroke: blue; stroke-width: 2;" x1="670" x2="670" y1="50" y2="50" /><line style="stroke: grey; stroke-width: 2;" x1="670" x2="670" y1="45" y2="170" /><line style="stroke: green; stroke-width: 2;" x1="630" x2="680" y1="95" y2="95" /><line style="stroke: blue; stroke-width: 2;" x1="620" x2="620" y1="50" y2="50" /><line style="stroke: grey; stroke-width: 2;" x1="620" x2="620" y1="45" y2="170" /><line style="stroke: green; stroke-width: 2;" x1="580" x2="630" y1="120" y2="120" /><line style="stroke: blue; stroke-width: 2;" x1="570" x2="570" y1="50" y2="50" /><line style="stroke: grey; stroke-width: 2;" x1="570" x2="570" y1="45" y2="170" /><line style="stroke: green; stroke-width: 2;" x1="530" x2="580" y1="95" y2="95" /><line style="stroke: blue; stroke-width: 2;" x1="520" x2="520" y1="50" y2="50" /><line style="stroke: grey; stroke-width: 2;" x1="520" x2="520" y1="45" y2="170" /><line style="stroke: green; stroke-width: 2;" x1="480" x2="530" y1="120" y2="120" /><line style="stroke: blue; stroke-width: 2;" x1="470" x2="470" y1="50" y2="50" /><line style="stroke: grey; stroke-width: 2;" x1="470" x2="470" y1="45" y2="170" /><line style="stroke: green; stroke-width: 2;" x1="430" x2="480" y1="95" y2="95" /><line style="stroke: blue; stroke-width: 2;" x1="420" x2="420" y1="50" y2="50" /><line style="stroke: grey; stroke-width: 2;" x1="420" x2="420" y1="45" y2="170" /><line style="stroke: green; stroke-width: 2;" x1="380" x2="430" y1="120" y2="120" /><line style="stroke: blue; stroke-width: 2;" x1="370" x2="370" y1="50" y2="50" /><line style="stroke: grey; stroke-width: 2;" x1="370" x2="370" y1="45" y2="170" /><line style="stroke: green; stroke-width: 2;" x1="330" x2="380" y1="95" y2="95" /><line style="stroke: blue; stroke-width: 2;" x1="320" x2="320" y1="50" y2="50" /><line style="stroke: black; stroke-width: 1;" x1="320" x2="320" y1="45" y2="170" /><line style="stroke: green; stroke-width: 2;" x1="280" x2="330" y1="120" y2="120" /><line style="stroke: blue; stroke-width: 2;" x1="270" x2="270" y1="50" y2="50" /><line style="stroke: black; stroke-width: 1;" x1="270" x2="270" y1="45" y2="170" /><line style="stroke: green; stroke-width: 2;" x1="230" x2="280" y1="95" y2="95" /><line style="stroke: blue; stroke-width: 2;" x1="220" x2="220" y1="50" y2="50" /><line style="stroke: black; stroke-width: 1;" x1="220" x2="220" y1="45" y2="170" /><line style="stroke: green; stroke-width: 2;" x1="180" x2="230" y1="120" y2="120" /><line style="stroke: blue; stroke-width: 2;" x1="170" x2="170" y1="50" y2="50" /><line style="stroke: black; stroke-width: 1;" x1="170" x2="170" y1="45" y2="170" /><line style="stroke: green; stroke-width: 2;" x1="130" x2="180" y1="95" y2="95" /><line style="stroke: blue; stroke-width: 2;" x1="120" x2="120" y1="50" y2="50" /><line style="stroke: black; stroke-width: 1;" x1="120" x2="120" y1="45" y2="170" /><line style="stroke: green; stroke-width: 2;" x1="80" x2="130" y1="120" y2="120" /><line style="stroke: blue; stroke-width: 2;" x1="70" x2="70" y1="50" y2="50" /><line style="stroke: black; stroke-width: 1;" x1="70" x2="70" y1="45" y2="170" /><line style="stroke: green; stroke-width: 2;" x1="30" x2="80" y1="95" y2="95" /><line style="stroke: blue; stroke-width: 2;" x1="20" x2="20" y1="50" y2="50" /><svg style="font: bold 18px sans-serif;" x="29" y="-5"><text style="font: bold 18px sans-serif;" text-anchor="middle"><tspan x="121" y="30">TASK: BET_T1   Period: 5</tspan></text></svg><svg style="" x="-13" y="17"><text style="" text-anchor="middle"><tspan x="33" y="30">RI</tspan></text></svg><circle cx="20" cy="50" id="Rmin_BET_T1,1" r="4" style="fill: blue; stroke: blue; stroke-width: 2;" /><circle cx="20" cy="50" id="Rmax_BET_T1,1" r="4" style="fill: blue; stroke: blue; stroke-width: 2;" /><svg style="" x="17" y="63"><text style="" text-anchor="middle"><tspan x="33" y="30">DI</tspan></text></svg><circle cx="30" cy="95" id="Dmin_BET_T1,1" r="4" style="fill: green; stroke: green; stroke-width: 2;" /><circle cx="80" cy="95" id="Dmax_BET_T1,1" r="4" style="fill: white; stroke: green; stroke-width: 2;" /><svg id="" x="21" y="141"><circle cx="19" cy="19" r="18" style="fill: white; stroke: black; stroke-width: 2;" /><text style="stroke-width: 0;" text-anchor="middle"><tspan x="19" y="24">1</tspan></text></svg><svg style="" x="37" y="17"><text style="" text-anchor="middle"><tspan x="33" y="30">RI</tspan></text></svg><circle cx="70" cy="50" id="Rmin_BET_T1,2" r="4" style="fill: blue; stroke: blue; stroke-width: 2;" /><circle cx="70" cy="50" id="Rmax_BET_T1,2" r="4" style="fill: blue; stroke: blue; stroke-width: 2;" /><svg style="" x="67" y="88"><text style="" text-anchor="middle"><tspan x="33" y="30">DI</tspan></text></svg><circle cx="80" cy="120" id="Dmin_BET_T1,2" r="4" style="fill: green; stroke: green; stroke-width: 2;" /><circle cx="130" cy="120" id="Dmax_BET_T1,2" r="4" style="fill: white; stroke: green; stroke-width: 2;" /><svg id="" x="71" y="141"><circle cx="19" cy="19" r="18" style="fill: white; stroke: black; stroke-width: 2;" /><text style="stroke-width: 0;" text-anchor="middle"><tspan x="19" y="24">2</tspan></text></svg><svg style="" x="87" y="17"><text style="" text-anchor="middle"><tspan x="33" y="30">RI</tspan></text></svg><circle cx="120" cy="50" id="Rmin_BET_T1,3" r="4" style="fill: blue; stroke: blue; stroke-width: 2;" /><circle cx="120" cy="50" id="Rmax_BET_T1,3" r="4" style="fill: blue; stroke: blue; stroke-width: 2;" /><svg style="" x="117" y="63"><text style="" text-anchor="middle"><tspan x="33" y="30">DI</tspan></text></svg><circle cx="130" cy="95" id="Dmin_BET_T1,3" r="4" style="fill: green; stroke: green; stroke-width: 2;" /><circle cx="180" cy="95" id="Dmax_BET_T1,3" r="4" style="fill: white; stroke: green; stroke-width: 2;" /><svg id="" x="121" y="141"><circle cx="19" cy="19" r="18" style="fill: white; stroke: black; stroke-width: 2;" /><text style="stroke-width: 0;" text-anchor="middle"><tspan x="19" y="24">3</tspan></text></svg><svg style="" x="137" y="17"><text style="" text-anchor="middle"><tspan x="33" y="30">RI</tspan></text></svg><circle cx="170" cy="50" id="Rmin_BET_T1,4" r="4" style="fill: blue; stroke: blue; stroke-width: 2;" /><circle cx="170" cy="50" id="Rmax_BET_T1,4" r="4" style="fill: blue; stroke: blue; stroke-width: 2;" /><svg style="" x="167" y="88"><text style="" text-anchor="middle"><tspan x="33" y="30">DI</tspan></text></svg><circle cx="180" cy="120" id="Dmin_BET_T1,4" r="4" style="fill: green; stroke: green; stroke-width: 2;" /><circle cx="230" cy="120" id="Dmax_BET_T1,4" r="4" style="fill: white; stroke: green; stroke-width: 2;" /><svg id="" x="171" y="141"><circle cx="19" cy="19" r="18" style="fill: white; stroke: black; stroke-width: 2;" /><text style="stroke-width: 0;" text-anchor="middle"><tspan x="19" y="24">4</tspan></text></svg><svg style="" x="187" y="17"><text style="" text-anchor="middle"><tspan x="33" y="30">RI</tspan></text></svg><circle cx="220" cy="50" id="Rmin_BET_T1,5" r="4" style="fill: blue; stroke: blue; stroke-width: 2;" /><circle cx="220" cy="50" id="Rmax_BET_T1,5" r="4" style="fill: blue; stroke: blue; stroke-width: 2;" /><svg style="" x="217" y="63"><text style="" text-anchor="middle"><tspan x="33" y="30">DI</tspan></text></svg><circle cx="230" cy="95" id="Dmin_BET_T1,5" r="4" style="fill: green; stroke: green; stroke-width: 2;" /><circle cx="280" cy="95" id="Dmax_BET_T1,5" r="4" style="fill: white; stroke: green; stroke-width: 2;" /><svg id="" x="221" y="141"><circle cx="19" cy="19" r="18" style="fill: white; stroke: black; stroke-width: 2;" /><text style="stroke-width: 0;" text-anchor="middle"><tspan x="19" y="24">5</tspan></text></svg><svg style="" x="237" y="17"><text style="" text-anchor="middle"><tspan x="33" y="30">RI</tspan></text></svg><circle cx="270" cy="50" id="Rmin_BET_T1,6" r="4" style="fill: blue; stroke: blue; stroke-width: 2;" /><circle cx="270" cy="50" id="Rmax_BET_T1,6" r="4" style="fill: blue; stroke: blue; stroke-width: 2;" /><svg style="" x="267" y="88"><text style="" text-anchor="middle"><tspan x="33" y="30">DI</tspan></text></svg><circle cx="280" cy="120" id="Dmin_BET_T1,6" r="4" style="fill: green; stroke: green; stroke-width: 2;" /><circle cx="330" cy="120" id="Dmax_BET_T1,6" r="4" style="fill: white; stroke: green; stroke-width: 2;" /><svg id="" x="271" y="141"><circle cx="19" cy="19" r="18" style="fill: white; stroke: black; stroke-width: 2;" /><text style="stroke-width: 0;" text-anchor="middle"><tspan x="19" y="24">6</tspan></text></svg><svg style="" x="287" y="17"><text style="" text-anchor="middle"><tspan x="33" y="30">RI</tspan></text></svg><circle cx="320" cy="50" id="Rmin_BET_T1,7" r="4" style="fill: blue; stroke: blue; stroke-width: 2;" /><circle cx="320" cy="50" id="Rmax_BET_T1,7" r="4" style="fill: blue; stroke: blue; stroke-width: 2;" /><svg style="" x="317" y="63"><text style="" text-anchor="middle"><tspan x="33" y="30">DI</tspan></text></svg><circle cx="330" cy="95" id="Dmin_BET_T1,7" r="4" style="fill: green; stroke: green; stroke-width: 2;" /><circle cx="380" cy="95" id="Dmax_BET_T1,7" r="4" style="fill: white; stroke: green; stroke-width: 2;" /><svg id="" x="321" y="141"><circle cx="19" cy="19" r="18" style="fill: white; stroke: black; stroke-width: 2;" /><text style="stroke-width: 0;" text-anchor="middle"><tspan x="19" y="24">7</tspan></text></svg><svg style="" x="337" y="17"><text style="" text-anchor="middle"><tspan x="33" y="30">RI</tspan></text></svg><circle cx="370" cy="50" id="Rmin_BET_T1,8" r="4" style="fill: blue; stroke: blue; stroke-width: 2;" /><circle cx="370" cy="50" id="Rmax_BET_T1,8" r="4" style="fill: blue; stroke: blue; stroke-width: 2;" /><svg style="" x="367" y="88"><text style="" text-anchor="middle"><tspan x="33" y="30">DI</tspan></text></svg><circle cx="380" cy="120" id="Dmin_BET_T1,8" r="4" style="fill: green; stroke: green; stroke-width: 2;" /><circle cx="430" cy="120" id="Dmax_BET_T1,8" r="4" style="fill: white; stroke: green; stroke-width: 2;" /><svg id="" x="371" y="141"><circle cx="19" cy="19" r="18" style="fill: white; stroke: black; stroke-width: 2;" /><text style="stroke-width: 0;" text-anchor="middle"><tspan x="19" y="24">8</tspan></text></svg><svg style="" x="387" y="17"><text style="" text-anchor="middle"><tspan x="33" y="30">RI</tspan></text></svg><circle cx="420" cy="50" id="Rmin_BET_T1,9" r="4" style="fill: blue; stroke: blue; stroke-width: 2;" /><circle cx="420" cy="50" id="Rmax_BET_T1,9" r="4" style="fill: blue; stroke: blue; stroke-width: 2;" /><svg style="" x="417" y="63"><text style="" text-anchor="middle"><tspan x="33" y="30">DI</tspan></text></svg><circle cx="430" cy="95" id="Dmin_BET_T1,9" r="4" style="fill: green; stroke: green; stroke-width: 2;" /><circle cx="480" cy="95" id="Dmax_BET_T1,9" r="4" style="fill: white; stroke: green; stroke-width: 2;" /><svg id="" x="421" y="141"><circle cx="19" cy="19" r="18" style="fill: white; stroke: black; stroke-width: 2;" /><text style="stroke-width: 0;" text-anchor="middle"><tspan x="19" y="24">9</tspan></text></svg><svg style="" x="437" y="17"><text style="" text-anchor="middle"><tspan x="33" y="30">RI</tspan></text></svg><circle cx="470" cy="50" id="Rmin_BET_T1,10" r="4" style="fill: blue; stroke: blue; stroke-width: 2;" /><circle cx="470" cy="50" id="Rmax_BET_T1,10" r="4" style="fill: blue; stroke: blue; stroke-width: 2;" /><svg style="" x="467" y="88"><text style="" text-anchor="middle"><tspan x="33" y="30">DI</tspan></text></svg><circle cx="480" cy="120" id="Dmin_BET_T1,10" r="4" style="fill: green; stroke: green; stroke-width: 2;" /><circle cx="530" cy="120" id="Dmax_BET_T1,10" r="4" style="fill: white; stroke: green; stroke-width: 2;" /><svg id="" x="467" y="137"><circle cx="23" cy="23" r="22" style="fill: white; stroke: black; stroke-width: 2;" /><text style="stroke-width: 0;" text-anchor="middle"><tspan x="23" y="28">10</tspan></text></svg><svg style="" x="487" y="17"><text style="" text-anchor="middle"><tspan x="33" y="30">RI</tspan></text></svg><circle cx="520" cy="50" id="Rmin_BET_T1,11" r="4" style="fill: blue; stroke: blue; stroke-width: 2;" /><circle cx="520" cy="50" id="Rmax_BET_T1,11" r="4" style="fill: blue; stroke: blue; stroke-width: 2;" /><svg style="" x="517" y="63"><text style="" text-anchor="middle"><tspan x="33" y="30">DI</tspan></text></svg><circle cx="530" cy="95" id="Dmin_BET_T1,11" r="4" style="fill: green; stroke: green; stroke-width: 2;" /><circle cx="580" cy="95" id="Dmax_BET_T1,11" r="4" style="fill: white; stroke: green; stroke-width: 2;" /><svg id="" x="517" y="137"><circle cx="23" cy="23" r="22" style="fill: white; stroke: black; stroke-width: 2;" /><text style="stroke-width: 0;" text-anchor="middle"><tspan x="23" y="28">11</tspan></text></svg><svg style="" x="537" y="17"><text style="" text-anchor="middle"><tspan x="33" y="30">RI</tspan></text></svg><circle cx="570" cy="50" id="Rmin_BET_T1,12" r="4" style="fill: blue; stroke: blue; stroke-width: 2;" /><circle cx="570" cy="50" id="Rmax_BET_T1,12" r="4" style="fill: blue; stroke: blue; stroke-width: 2;" /><svg style="" x="567" y="88"><text style="" text-anchor="middle"><tspan x="33" y="30">DI</tspan></text></svg><circle cx="580" cy="120" id="Dmin_BET_T1,12" r="4" style="fill: green; stroke: green; stroke-width: 2;" /><circle cx="630" cy="120" id="Dmax_BET_T1,12" r="4" style="fill: white; stroke: green; stroke-width: 2;" /><svg id="" x="567" y="137"><circle cx="23" cy="23" r="22" style="fill: white; stroke: black; stroke-width: 2;" /><text style="stroke-width: 0;" text-anchor="middle"><tspan x="23" y="28">12</tspan></text></svg><svg style="" x="587" y="17"><text style="" text-anchor="middle"><tspan x="33" y="30">RI</tspan></text></svg><circle cx="620" cy="50" id="Rmin_BET_T1,13" r="4" style="fill: blue; stroke: blue; stroke-width: 2;" /><circle cx="620" cy="50" id="Rmax_BET_T1,13" r="4" style="fill: blue; stroke: blue; stroke-width: 2;" /><svg style="" x="617" y="63"><text style="" text-anchor="middle"><tspan x="33" y="30">DI</tspan></text></svg><circle cx="630" cy="95" id="Dmin_BET_T1,13" r="4" style="fill: green; stroke: green; stroke-width: 2;" /><circle cx="680" cy="95" id="Dmax_BET_T1,13" r="4" style="fill: white; stroke: green; stroke-width: 2;" /><svg id="" x="617" y="137"><circle cx="23" cy="23" r="22" style="fill: white; stroke: black; stroke-width: 2;" /><text style="stroke-width: 0;" text-anchor="middle"><tspan x="23" y="28">13</tspan></text></svg><svg style="" x="637" y="17"><text style="" text-anchor="middle"><tspan x="33" y="30">RI</tspan></text></svg><circle cx="670" cy="50" id="Rmin_BET_T1,14" r="4" style="fill: blue; stroke: blue; stroke-width: 2;" /><circle cx="670" cy="50" id="Rmax_BET_T1,14" r="4" style="fill: blue; stroke: blue; stroke-width: 2;" /><svg style="" x="667" y="88"><text style="" text-anchor="middle"><tspan x="33" y="30">DI</tspan></text></svg><circle cx="680" cy="120" id="Dmin_BET_T1,14" r="4" style="fill: green; stroke: green; stroke-width: 2;" /><circle cx="730" cy="120" id="Dmax_BET_T1,14" r="4" style="fill: white; stroke: green; stroke-width: 2;" /><svg id="" x="667" y="137"><circle cx="23" cy="23" r="22" style="fill: white; stroke: black; stroke-width: 2;" /><text style="stroke-width: 0;" text-anchor="middle"><tspan x="23" y="28">14</tspan></text></svg><svg style="" x="687" y="17"><text style="" text-anchor="middle"><tspan x="33" y="30">RI</tspan></text></svg><circle cx="720" cy="50" id="Rmin_BET_T1,15" r="4" style="fill: blue; stroke: blue; stroke-width: 2;" /><circle cx="720" cy="50" id="Rmax_BET_T1,15" r="4" style="fill: blue; stroke: blue; stroke-width: 2;" /><svg style="" x="717" y="63"><text style="" text-anchor="middle"><tspan x="33" y="30">DI</tspan></text></svg><circle cx="730" cy="95" id="Dmin_BET_T1,15" r="4" style="fill: green; stroke: green; stroke-width: 2;" /><circle cx="780" cy="95" id="Dmax_BET_T1,15" r="4" style="fill: white; stroke: green; stroke-width: 2;" /><svg id="" x="717" y="137"><circle cx="23" cy="23" r="22" style="fill: white; stroke: black; stroke-width: 2;" /><text style="stroke-width: 0;" text-anchor="middle"><tspan x="23" y="28">15</tspan></text></svg><svg style="" x="737" y="17"><text style="" text-anchor="middle"><tspan x="33" y="30">RI</tspan></text></svg><circle cx="770" cy="50" id="Rmin_BET_T1,16" r="4" style="fill: blue; stroke: blue; stroke-width: 2;" /><circle cx="770" cy="50" id="Rmax_BET_T1,16" r="4" style="fill: blue; stroke: blue; stroke-width: 2;" /><svg style="" x="767" y="88"><text style="" text-anchor="middle"><tspan x="33" y="30">DI</tspan></text></svg><circle cx="780" cy="120" id="Dmin_BET_T1,16" r="4" style="fill: green; stroke: green; stroke-width: 2;" /><circle cx="830" cy="120" id="Dmax_BET_T1,16" r="4" style="fill: white; stroke: green; stroke-width: 2;" /><svg id="" x="767" y="137"><circle cx="23" cy="23" r="22" style="fill: white; stroke: black; stroke-width: 2;" /><text style="stroke-width: 0;" text-anchor="middle"><tspan x="23" y="28">16</tspan></text></svg><svg style="" x="787" y="17"><text style="" text-anchor="middle"><tspan x="33" y="30">RI</tspan></text></svg><circle cx="820" cy="50" id="Rmin_BET_T1,17" r="4" style="fill: blue; stroke: blue; stroke-width: 2;" /><circle cx="820" cy="50" id="Rmax_BET_T1,17" r="4" style="fill: blue; stroke: blue; stroke-width: 2;" /><svg style="" x="817" y="63"><text style="" text-anchor="middle"><tspan x="33" y="30">DI</tspan></text></svg><circle cx="830" cy="95" id="Dmin_BET_T1,17" r="4" style="fill: green; stroke: green; stroke-width: 2;" /><circle cx="880" cy="95" id="Dmax_BET_T1,17" r="4" style="fill: white; stroke: green; stroke-width: 2;" /><svg id="" x="817" y="137"><circle cx="23" cy="23" r="22" style="fill: white; stroke: black; stroke-width: 2;" /><text style="stroke-width: 0;" text-anchor="middle"><tspan x="23" y="28">17</tspan></text></svg><svg style="" x="837" y="17"><text style="" text-anchor="middle"><tspan x="33" y="30">RI</tspan></text></svg><circle cx="870" cy="50" id="Rmin_BET_T1,18" r="4" style="fill: blue; stroke: blue; stroke-width: 2;" /><circle cx="870" cy="50" id="Rmax_BET_T1,18" r="4" style="fill: blue; stroke: blue; stroke-width: 2;" /><svg style="" x="867" y="88"><text style="" text-anchor="middle"><tspan x="33" y="30">DI</tspan></text></svg><circle cx="880" cy="120" id="Dmin_BET_T1,18" r="4" style="fill: green; stroke: green; stroke-width: 2;" /><circle cx="930" cy="120" id="Dmax_BET_T1,18" r="4" style="fill: white; stroke: green; stroke-width: 2;" /><svg id="" x="867" y="137"><circle cx="23" cy="23" r="22" style="fill: white; stroke: black; stroke-width: 2;" /><text style="stroke-width: 0;" text-anchor="middle"><tspan x="23" y="28">18</tspan></text></svg><svg style="font: bold 18px sans-serif;" x="25" y="195"><text style="font: bold 18px sans-serif;" text-anchor="middle"><tspan x="125" y="30">TASK: BET_T3   Period: 15</tspan></text></svg><svg style="" x="7" y="217"><text style="" text-anchor="middle"><tspan x="33" y="30">RI</tspan></text></svg><circle cx="20" cy="250" id="Rmin_BET_T3,1" r="4" style="fill: blue; stroke: blue; stroke-width: 2;" /><circle cx="60" cy="250" id="Rmax_BET_T3,1" r="4" style="fill: blue; stroke: blue; stroke-width: 2;" /><svg style="" x="107" y="263"><text style="" text-anchor="middle"><tspan x="33" y="30">DI</tspan></text></svg><circle cx="50" cy="295" id="Dmin_BET_T3,1" r="4" style="fill: green; stroke: green; stroke-width: 2;" /><circle cx="240" cy="295" id="Dmax_BET_T3,1" r="4" style="fill: white; stroke: green; stroke-width: 2;" /><svg id="" x="71" y="341"><circle cx="19" cy="19" r="18" style="fill: white; stroke: black; stroke-width: 2;" /><text style="stroke-width: 0;" text-anchor="middle"><tspan x="19" y="24">1</tspan></text></svg><svg style="" x="157" y="217"><text style="" text-anchor="middle"><tspan x="33" y="30">RI</tspan></text></svg><circle cx="170" cy="250" id="Rmin_BET_T3,2" r="4" style="fill: blue; stroke: blue; stroke-width: 2;" /><circle cx="210" cy="250" id="Rmax_BET_T3,2" r="4" style="fill: blue; stroke: blue; stroke-width: 2;" /><svg style="" x="257" y="288"><text style="" text-anchor="middle"><tspan x="33" y="30">DI</tspan></text></svg><circle cx="200" cy="320" id="Dmin_BET_T3,2" r="4" style="fill: green; stroke: green; stroke-width: 2;" /><circle cx="390" cy="320" id="Dmax_BET_T3,2" r="4" style="fill: white; stroke: green; stroke-width: 2;" /><svg id="" x="221" y="341"><circle cx="19" cy="19" r="18" style="fill: white; stroke: black; stroke-width: 2;" /><text style="stroke-width: 0;" text-anchor="middle"><tspan x="19" y="24">2</tspan></text></svg><svg style="" x="307" y="217"><text style="" text-anchor="middle"><tspan x="33" y="30">RI</tspan></text></svg><circle cx="320" cy="250" id="Rmin_BET_T3,3" r="4" style="fill: blue; stroke: blue; stroke-width: 2;" /><circle cx="360" cy="250" id="Rmax_BET_T3,3" r="4" style="fill: blue; stroke: blue; stroke-width: 2;" /><svg style="" x="407" y="263"><text style="" text-anchor="middle"><tspan x="33" y="30">DI</tspan></text></svg><circle cx="350" cy="295" id="Dmin_BET_T3,3" r="4" style="fill: green; stroke: green; stroke-width: 2;" /><circle cx="540" cy="295" id="Dmax_BET_T3,3" r="4" style="fill: white; stroke: green; stroke-width: 2;" /><svg id="" x="371" y="341"><circle cx="19" cy="19" r="18" style="fill: white; stroke: black; stroke-width: 2;" /><text style="stroke-width: 0;" text-anchor="middle"><tspan x="19" y="24">3</tspan></text></svg><svg style="" x="457" y="217"><text style="" text-anchor="middle"><tspan x="33" y="30">RI</tspan></text></svg><circle cx="470" cy="250" id="Rmin_BET_T3,4" r="4" style="fill: blue; stroke: blue; stroke-width: 2;" /><circle cx="510" cy="250" id="Rmax_BET_T3,4" r="4" style="fill: blue; stroke: blue; stroke-width: 2;" /><svg style="" x="557" y="288"><text style="" text-anchor="middle"><tspan x="33" y="30">DI</tspan></text></svg><circle cx="500" cy="320" id="Dmin_BET_T3,4" r="4" style="fill: green; stroke: green; stroke-width: 2;" /><circle cx="690" cy="320" id="Dmax_BET_T3,4" r="4" style="fill: white; stroke: green; stroke-width: 2;" /><svg id="" x="521" y="341"><circle cx="19" cy="19" r="18" style="fill: white; stroke: black; stroke-width: 2;" /><text style="stroke-width: 0;" text-anchor="middle"><tspan x="19" y="24">4</tspan></text></svg><svg style="" x="607" y="217"><text style="" text-anchor="middle"><tspan x="33" y="30">RI</tspan></text></svg><circle cx="620" cy="250" id="Rmin_BET_T3,5" r="4" style="fill: blue; stroke: blue; stroke-width: 2;" /><circle cx="660" cy="250" id="Rmax_BET_T3,5" r="4" style="fill: blue; stroke: blue; stroke-width: 2;" /><svg style="" x="707" y="263"><text style="" text-anchor="middle"><tspan x="33" y="30">DI</tspan></text></svg><circle cx="650" cy="295" id="Dmin_BET_T3,5" r="4" style="fill: green; stroke: green; stroke-width: 2;" /><circle cx="840" cy="295" id="Dmax_BET_T3,5" r="4" style="fill: white; stroke: green; stroke-width: 2;" /><svg id="" x="671" y="341"><circle cx="19" cy="19" r="18" style="fill: white; stroke: black; stroke-width: 2;" /><text style="stroke-width: 0;" text-anchor="middle"><tspan x="19" y="24">5</tspan></text></svg><svg style="" x="757" y="217"><text style="" text-anchor="middle"><tspan x="33" y="30">RI</tspan></text></svg><circle cx="770" cy="250" id="Rmin_BET_T3,6" r="4" style="fill: blue; stroke: blue; stroke-width: 2;" /><circle cx="810" cy="250" id="Rmax_BET_T3,6" r="4" style="fill: blue; stroke: blue; stroke-width: 2;" /><svg style="" x="857" y="288"><text style="" text-anchor="middle"><tspan x="33" y="30">DI</tspan></text></svg><circle cx="800" cy="320" id="Dmin_BET_T3,6" r="4" style="fill: green; stroke: green; stroke-width: 2;" /><circle cx="990" cy="320" id="Dmax_BET_T3,6" r="4" style="fill: white; stroke: green; stroke-width: 2;" /><svg id="" x="821" y="341"><circle cx="19" cy="19" r="18" style="fill: white; stroke: black; stroke-width: 2;" /><text style="stroke-width: 0;" text-anchor="middle"><tspan x="19" y="24">6</tspan></text></svg><svg style="font: bold 18px sans-serif;" x="25" y="395"><text style="font: bold 18px sans-serif;" text-anchor="middle"><tspan x="125" y="30">TASK: BET_T2   Period: 10</tspan></text></svg><svg style="" x="17" y="417"><text style="" text-anchor="middle"><tspan x="33" y="30">RI</tspan></text></svg><circle cx="20" cy="450" id="Rmin_BET_T2,1" r="4" style="fill: blue; stroke: blue; stroke-width: 2;" /><circle cx="80" cy="450" id="Rmax_BET_T2,1" r="4" style="fill: blue; stroke: blue; stroke-width: 2;" /><svg style="" x="77" y="463"><text style="" text-anchor="middle"><tspan x="33" y="30">DI</tspan></text></svg><circle cx="30" cy="495" id="Dmin_BET_T2,1" r="4" style="fill: green; stroke: green; stroke-width: 2;" /><circle cx="190" cy="495" id="Dmax_BET_T2,1" r="4" style="fill: white; stroke: green; stroke-width: 2;" /><svg id="" x="51" y="541"><circle cx="19" cy="19" r="18" style="fill: white; stroke: black; stroke-width: 2;" /><text style="stroke-width: 0;" text-anchor="middle"><tspan x="19" y="24">1</tspan></text></svg><svg style="" x="117" y="417"><text style="" text-anchor="middle"><tspan x="33" y="30">RI</tspan></text></svg><circle cx="120" cy="450" id="Rmin_BET_T2,2" r="4" style="fill: blue; stroke: blue; stroke-width: 2;" /><circle cx="180" cy="450" id="Rmax_BET_T2,2" r="4" style="fill: blue; stroke: blue; stroke-width: 2;" /><svg style="" x="177" y="488"><text style="" text-anchor="middle"><tspan x="33" y="30">DI</tspan></text></svg><circle cx="130" cy="520" id="Dmin_BET_T2,2" r="4" style="fill: green; stroke: green; stroke-width: 2;" /><circle cx="290" cy="520" id="Dmax_BET_T2,2" r="4" style="fill: white; stroke: green; stroke-width: 2;" /><svg id="" x="151" y="541"><circle cx="19" cy="19" r="18" style="fill: white; stroke: black; stroke-width: 2;" /><text style="stroke-width: 0;" text-anchor="middle"><tspan x="19" y="24">2</tspan></text></svg><svg style="" x="217" y="417"><text style="" text-anchor="middle"><tspan x="33" y="30">RI</tspan></text></svg><circle cx="220" cy="450" id="Rmin_BET_T2,3" r="4" style="fill: blue; stroke: blue; stroke-width: 2;" /><circle cx="280" cy="450" id="Rmax_BET_T2,3" r="4" style="fill: blue; stroke: blue; stroke-width: 2;" /><svg style="" x="277" y="463"><text style="" text-anchor="middle"><tspan x="33" y="30">DI</tspan></text></svg><circle cx="230" cy="495" id="Dmin_BET_T2,3" r="4" style="fill: green; stroke: green; stroke-width: 2;" /><circle cx="390" cy="495" id="Dmax_BET_T2,3" r="4" style="fill: white; stroke: green; stroke-width: 2;" /><svg id="" x="251" y="541"><circle cx="19" cy="19" r="18" style="fill: white; stroke: black; stroke-width: 2;" /><text style="stroke-width: 0;" text-anchor="middle"><tspan x="19" y="24">3</tspan></text></svg><svg style="" x="317" y="417"><text style="" text-anchor="middle"><tspan x="33" y="30">RI</tspan></text></svg><circle cx="320" cy="450" id="Rmin_BET_T2,4" r="4" style="fill: blue; stroke: blue; stroke-width: 2;" /><circle cx="380" cy="450" id="Rmax_BET_T2,4" r="4" style="fill: blue; stroke: blue; stroke-width: 2;" /><svg style="" x="377" y="488"><text style="" text-anchor="middle"><tspan x="33" y="30">DI</tspan></text></svg><circle cx="330" cy="520" id="Dmin_BET_T2,4" r="4" style="fill: green; stroke: green; stroke-width: 2;" /><circle cx="490" cy="520" id="Dmax_BET_T2,4" r="4" style="fill: white; stroke: green; stroke-width: 2;" /><svg id="" x="351" y="541"><circle cx="19" cy="19" r="18" style="fill: white; stroke: black; stroke-width: 2;" /><text style="stroke-width: 0;" text-anchor="middle"><tspan x="19" y="24">4</tspan></text></svg><svg style="" x="417" y="417"><text style="" text-anchor="middle"><tspan x="33" y="30">RI</tspan></text></svg><circle cx="420" cy="450" id="Rmin_BET_T2,5" r="4" style="fill: blue; stroke: blue; stroke-width: 2;" /><circle cx="480" cy="450" id="Rmax_BET_T2,5" r="4" style="fill: blue; stroke: blue; stroke-width: 2;" /><svg style="" x="477" y="463"><text style="" text-anchor="middle"><tspan x="33" y="30">DI</tspan></text></svg><circle cx="430" cy="495" id="Dmin_BET_T2,5" r="4" style="fill: green; stroke: green; stroke-width: 2;" /><circle cx="590" cy="495" id="Dmax_BET_T2,5" r="4" style="fill: white; stroke: green; stroke-width: 2;" /><svg id="" x="451" y="541"><circle cx="19" cy="19" r="18" style="fill: white; stroke: black; stroke-width: 2;" /><text style="stroke-width: 0;" text-anchor="middle"><tspan x="19" y="24">5</tspan></text></svg><svg style="" x="517" y="417"><text style="" text-anchor="middle"><tspan x="33" y="30">RI</tspan></text></svg><circle cx="520" cy="450" id="Rmin_BET_T2,6" r="4" style="fill: blue; stroke: blue; stroke-width: 2;" /><circle cx="580" cy="450" id="Rmax_BET_T2,6" r="4" style="fill: blue; stroke: blue; stroke-width: 2;" /><svg style="" x="577" y="488"><text style="" text-anchor="middle"><tspan x="33" y="30">DI</tspan></text></svg><circle cx="530" cy="520" id="Dmin_BET_T2,6" r="4" style="fill: green; stroke: green; stroke-width: 2;" /><circle cx="690" cy="520" id="Dmax_BET_T2,6" r="4" style="fill: white; stroke: green; stroke-width: 2;" /><svg id="" x="551" y="541"><circle cx="19" cy="19" r="18" style="fill: white; stroke: black; stroke-width: 2;" /><text style="stroke-width: 0;" text-anchor="middle"><tspan x="19" y="24">6</tspan></text></svg><svg style="" x="617" y="417"><text style="" text-anchor="middle"><tspan x="33" y="30">RI</tspan></text></svg><circle cx="620" cy="450" id="Rmin_BET_T2,7" r="4" style="fill: blue; stroke: blue; stroke-width: 2;" /><circle cx="680" cy="450" id="Rmax_BET_T2,7" r="4" style="fill: blue; stroke: blue; stroke-width: 2;" /><svg style="" x="677" y="463"><text style="" text-anchor="middle"><tspan x="33" y="30">DI</tspan></text></svg><circle cx="630" cy="495" id="Dmin_BET_T2,7" r="4" style="fill: green; stroke: green; stroke-width: 2;" /><circle cx="790" cy="495" id="Dmax_BET_T2,7" r="4" style="fill: white; stroke: green; stroke-width: 2;" /><svg id="" x="651" y="541"><circle cx="19" cy="19" r="18" style="fill: white; stroke: black; stroke-width: 2;" /><text style="stroke-width: 0;" text-anchor="middle"><tspan x="19" y="24">7</tspan></text></svg><svg style="" x="717" y="417"><text style="" text-anchor="middle"><tspan x="33" y="30">RI</tspan></text></svg><circle cx="720" cy="450" id="Rmin_BET_T2,8" r="4" style="fill: blue; stroke: blue; stroke-width: 2;" /><circle cx="780" cy="450" id="Rmax_BET_T2,8" r="4" style="fill: blue; stroke: blue; stroke-width: 2;" /><svg style="" x="777" y="488"><text style="" text-anchor="middle"><tspan x="33" y="30">DI</tspan></text></svg><circle cx="730" cy="520" id="Dmin_BET_T2,8" r="4" style="fill: green; stroke: green; stroke-width: 2;" /><circle cx="890" cy="520" id="Dmax_BET_T2,8" r="4" style="fill: white; stroke: green; stroke-width: 2;" /><svg id="" x="751" y="541"><circle cx="19" cy="19" r="18" style="fill: white; stroke: black; stroke-width: 2;" /><text style="stroke-width: 0;" text-anchor="middle"><tspan x="19" y="24">8</tspan></text></svg><svg style="" x="817" y="417"><text style="" text-anchor="middle"><tspan x="33" y="30">RI</tspan></text></svg><circle cx="820" cy="450" id="Rmin_BET_T2,9" r="4" style="fill: blue; stroke: blue; stroke-width: 2;" /><circle cx="880" cy="450" id="Rmax_BET_T2,9" r="4" style="fill: blue; stroke: blue; stroke-width: 2;" /><svg style="" x="877" y="463"><text style="" text-anchor="middle"><tspan x="33" y="30">DI</tspan></text></svg><circle cx="830" cy="495" id="Dmin_BET_T2,9" r="4" style="fill: green; stroke: green; stroke-width: 2;" /><circle cx="990" cy="495" id="Dmax_BET_T2,9" r="4" style="fill: white; stroke: green; stroke-width: 2;" /><svg id="" x="851" y="541"><circle cx="19" cy="19" r="18" style="fill: white; stroke: black; stroke-width: 2;" /><text style="stroke-width: 0;" text-anchor="middle"><tspan x="19" y="24">9</tspan></text></svg><svg style="" x="-9" y="650"><text style="" text-anchor="middle"><tspan x="29" y="30">0</tspan></text></svg><svg style="" x="87" y="650"><text style="" text-anchor="middle"><tspan x="33" y="30">10</tspan></text></svg><svg style="" x="187" y="650"><text style="" text-anchor="middle"><tspan x="33" y="30">20</tspan></text></svg><svg style="fill: white; stroke: black; stroke-width: 2;" x="287" y="650"><ellipse cx="33" cy="25" rx="32" ry="20" style="fill: white; stroke: black; stroke-width: 2;" /><text style="stroke-width: 0; fill: black;" text-anchor="middle"><tspan x="33" y="30">HP</tspan></text></svg><svg style="" x="387" y="650"><text style="" text-anchor="middle"><tspan x="33" y="30">40</tspan></text></svg><svg style="" x="487" y="650"><text style="" text-anchor="middle"><tspan x="33" y="30">50</tspan></text></svg><svg style="fill: white; stroke: black; stroke-width: 2;" x="587" y="650"><ellipse cx="33" cy="25" rx="32" ry="20" style="fill: white; stroke: black; stroke-width: 2;" /><text style="stroke-width: 0; fill: black;" text-anchor="middle"><tspan x="33" y="30">HP</tspan></text></svg><svg style="" x="687" y="650"><text style="" text-anchor="middle"><tspan x="33" y="30">70</tspan></text></svg><svg style="" x="787" y="650"><text style="" text-anchor="middle"><tspan x="33" y="30">80</tspan></text></svg><rect height="650" style="fill:white;" width="50" x="900" y="0" /><svg style="" x="871" y="650"><text style="" text-anchor="middle"><tspan x="29" y="30">t</tspan></text></svg><polygon name="" points="900,642 900,658 920,650" style="" /><svg style="fill: white; stroke: black; stroke-width: 2;" x="371" y="575"><ellipse cx="89" cy="25" rx="88" ry="20" style="fill: white; stroke: black; stroke-width: 2;" /><text style="stroke-width: 0; fill: black;" text-anchor="middle"><tspan x="89" y="30">Max Data Age: 38</tspan></text></svg></svg>