<svg height="340" version="1.1" width="620" xmlns="http://www.w3.org/2000/svg"><line style="stroke: red; stroke-width: 4;" x1="397.0" x2="572.0" y1="140" y2="240" /><line style="stroke: red; stroke-width: 4;" x1="304.071067812" x2="404.071067812" y1="40" y2="140" /><line style="stroke: red; stroke-width: 4;" x1="397.0" x2="472.0" y1="140" y2="240" /><line style="stroke: red; stroke-width: 4;" x1="297.0" x2="397.0" y1="40" y2="140" /><line style="stroke: red; stroke-width: 4;" x1="397.0" x2="372.0" y1="140" y2="240" /><line style="stroke: red; stroke-width: 4;" x1="289.928932188" x2="389.928932188" y1="40" y2="140" /><line style="stroke: blue; stroke-width: 4;" x1="247.0" x2="372.0" y1="140" y2="240" /><line style="stroke: blue; stroke-width: 4;" x1="197.0" x2="247.0" y1="40" y2="140" /><line style="stroke: blue; stroke-width: 4;" x1="247.0" x2="272.0" y1="140" y2="240" /><line style="stroke: blue; stroke-width: 4;" x1="191.409830056" x2="241.409830056" y1="40" y2="140" /><line style="stroke: orange; stroke-width: 4;" x1="238.996094703" x2="363.996094703" y1="140" y2="240" /><line style="stroke: orange; stroke-width: 4;" x1="147.0" x2="247.0" y1="40" y2="140" /><line style="stroke: orange; stroke-width: 4;" x1="241.846117968" x2="266.846117968" y1="140" y2="240" /><line style="stroke: orange; stroke-width: 4;" x1="139.928932188" x2="239.928932188" y1="40" y2="140" /><line style="stroke: red; stroke-width: 4;" x1="97.0" x2="272.0" y1="140" y2="240" /><line style="stroke: red; stroke-width: 4;" x1="52.5901699437" x2="102.590169944" y1="40" y2="140" /><line style="stroke: red; stroke-width: 4;" x1="97.0" x2="172.0" y1="140" y2="240" /><line style="stroke: red; stroke-width: 4;" x1="47.0" x2="97.0" y1="40" y2="140" /><line style="stroke: red; stroke-width: 4;" x1="97.0" x2="72.0" y1="140" y2="240" /><line style="stroke: red; stroke-width: 4;" x1="41.4098300563" x2="91.4098300563" y1="40" y2="140" /><line style="stroke: black; stroke-width: 2;" x1="320" x2="320" y1="10" y2="250.0" /><svg style="" x="287" y="235.0"><text style="" text-anchor="middle"><tspan x="33" y="30">HP</tspan></text></svg><svg id="BET_T1,1" x="26.0" y="21"><circle cx="19" cy="19" r="18" style="fill: white; stroke: black; stroke-width: 2;" /><text style="stroke-width: 0;" text-anchor="middle"><tspan x="19" y="24">1</tspan></text></svg><svg id="BET_T3,1" x="76.0" y="121"><circle cx="19" cy="19" r="18" style="fill: white; stroke: black; stroke-width: 2;" /><text style="stroke-width: 0;" text-anchor="middle"><tspan x="19" y="24">1</tspan></text></svg><svg id="BET_T2,1" x="51.0" y="221"><circle cx="19" cy="19" r="18" style="fill: white; stroke: black; stroke-width: 2;" /><text style="stroke-width: 0;" text-anchor="middle"><tspan x="19" y="24">1</tspan></text></svg><svg id="BET_T2,2" x="151.0" y="221"><circle cx="19" cy="19" r="18" style="fill: white; stroke: black; stroke-width: 2;" /><text style="stroke-width: 0;" text-anchor="middle"><tspan x="19" y="24">2</tspan></text></svg><svg id="BET_T2,3" x="251.0" y="221"><circle cx="19" cy="19" r="18" style="fill: white; stroke: black; stroke-width: 2;" /><text style="stroke-width: 0;" text-anchor="middle"><tspan x="19" y="24">3</tspan></text></svg><svg id="BET_T1,3" x="126.0" y="21"><circle cx="19" cy="19" r="18" style="fill: white; stroke: black; stroke-width: 2;" /><text style="stroke-width: 0;" text-anchor="middle"><tspan x="19" y="24">3</tspan></text></svg><svg id="BET_T3,2" x="226.0" y="121"><circle cx="19" cy="19" r="18" style="fill: white; stroke: black; stroke-width: 2;" /><text style="stroke-width: 0;" text-anchor="middle"><tspan x="19" y="24">2</tspan></text></svg><svg id="BET_T2,4" x="351.0" y="221"><circle cx="19" cy="19" r="18" style="fill: white; stroke: black; stroke-width: 2;" /><text style="stroke-width: 0;" text-anchor="middle"><tspan x="19" y="24">4</tspan></text></svg><svg id="BET_T1,4" x="176.0" y="21"><circle cx="19" cy="19" r="18" style="fill: white; stroke: black; stroke-width: 2;" /><text style="stroke-width: 0;" text-anchor="middle"><tspan x="19" y="24">4</tspan></text></svg><svg id="BET_T1,6" x="276.0" y="21"><circle cx="19" cy="19" r="18" style="fill: white; stroke: black; stroke-width: 2;" /><text style="stroke-width: 0;" text-anchor="middle"><tspan x="19" y="24">6</tspan></text></svg><svg id="BET_T3,3" x="376.0" y="121"><circle cx="19" cy="19" r="18" style="fill: white; stroke: black; stroke-width: 2;" /><text style="stroke-width: 0;" text-anchor="middle"><tspan x="19" y="24">3</tspan></text></svg><svg id="BET_T2,5" x="451.0" y="221"><circle cx="19" cy="19" r="18" style="fill: white; stroke: black; stroke-width: 2;" /><text style="stroke-width: 0;" text-anchor="middle"><tspan x="19" y="24">5</tspan></text></svg><svg id="BET_T2,6" x="551.0" y="221"><circle cx="19" cy="19" r="18" style="fill: white; stroke: black; stroke-width: 2;" /><text style="stroke-width: 0;" text-anchor="middle"><tspan x="19" y="24">6</tspan></text></svg></svg>