<svg height="500" version="1.1" width="290" xmlns="http://www.w3.org/2000/svg"><rect height="500" style="fill:white;" width="290" x="0" y="0" /><polygon name="dependency_polygon" points="20, 50 30, 95 30, 250 40, 295 40, 450 170, 450 170, 320 80, 250 80, 95 20, 50 " style="fill:#F5DA81; stroke:none; opacity:1;" /><polygon name="max_data_age" points="20, 50 20, 450 160, 450 160, 320 70, 250 70, 95 20, 50 " style="fill:black; stroke:none; opacity:0.3;" /><line style="stroke: black; stroke-width: 2;" x1="160" x2="160" y1="380" y2="420" /><line style="stroke: black; stroke-width: 2;" x1="20" x2="20" y1="380" y2="420" /><line style="stroke: black; stroke-width: 2;" x1="20" x2="160" y1="400" y2="400" /><line style="stroke: black; stroke-width: 3;" x1="220" x2="220" y1="470" y2="40" /><line style="stroke: black; stroke-width: 3;" x1="170" x2="170" y1="470" y2="40" /><line style="stroke: black; stroke-width: 3;" x1="120" x2="120" y1="470" y2="40" /><line style="stroke: black; stroke-width: 3;" x1="70" x2="70" y1="470" y2="40" /><line style="stroke: black; stroke-width: 2;" x1="20" x2="20" y1="450" y2="460" /><line style="stroke: black; stroke-width: 3;" x1="20" x2="20" y1="450" y2="40" /><line style="stroke: black; stroke-width: 3;" x1="20" x2="250" y1="450" y2="450" /><line style="stroke: grey; stroke-width: 2;" x1="270" x2="270" y1="245" y2="370" /><line style="stroke: green; stroke-width: 2;" x1="230" x2="320" y1="295" y2="295" /><line style="stroke: blue; stroke-width: 2;" x1="220" x2="260" y1="250" y2="250" /><line style="stroke: grey; stroke-width: 2;" x1="220" x2="220" y1="245" y2="370" /><line style="stroke: green; stroke-width: 2;" x1="180" x2="270" y1="320" y2="320" /><line style="stroke: blue; stroke-width: 2;" x1="170" x2="210" y1="250" y2="250" /><line style="stroke: grey; stroke-width: 2;" x1="170" x2="170" y1="245" y2="370" /><line style="stroke: green; stroke-width: 2;" x1="130" x2="220" y1="295" y2="295" /><line style="stroke: blue; stroke-width: 2;" x1="120" x2="160" y1="250" y2="250" /><line style="stroke: black; stroke-width: 1;" x1="120" x2="120" y1="245" y2="370" /><line style="stroke: green; stroke-width: 2;" x1="80" x2="170" y1="320" y2="320" /><line style="stroke: blue; stroke-width: 2;" x1="70" x2="110" y1="250" y2="250" /><line style="stroke: black; stroke-width: 1;" x1="70" x2="70" y1="245" y2="370" /><line style="stroke: green; stroke-width: 2;" x1="30" x2="120" y1="295" y2="295" /><line style="stroke: blue; stroke-width: 2;" x1="20" x2="60" y1="250" y2="250" /><line style="stroke: grey; stroke-width: 2;" x1="270" x2="270" y1="45" y2="170" /><line style="stroke: green; stroke-width: 2;" x1="230" x2="280" y1="95" y2="95" /><line style="stroke: blue; stroke-width: 2;" x1="220" x2="220" y1="50" y2="50" /><line style="stroke: grey; stroke-width: 2;" x1="220" x2="220" y1="45" y2="170" /><line style="stroke: green; stroke-width: 2;" x1="180" x2="230" y1="120" y2="120" /><line style="stroke: blue; stroke-width: 2;" x1="170" x2="170" y1="50" y2="50" /><line style="stroke: grey; stroke-width: 2;" x1="170" x2="170" y1="45" y2="170" /><line style="stroke: green; stroke-width: 2;" x1="130" x2="180" y1="95" y2="95" /><line style="stroke: blue; stroke-width: 2;" x1="120" x2="120" y1="50" y2="50" /><line style="stroke: grey; stroke-width: 2;" x1="120" x2="120" y1="45" y2="170" /><line style="stroke: green; stroke-width: 2;" x1="80" x2="130" y1="120" y2="120" /><line style="stroke: blue; stroke-width: 2;" x1="70" x2="70" y1="50" y2="50" /><line style="stroke: black; stroke-width: 1;" x1="70" x2="70" y1="45" y2="170" /><line style="stroke: green; stroke-width: 2;" x1="30" x2="80" y1="95" y2="95" /><line style="stroke: blue; stroke-width: 2;" x1="20" x2="20" y1="50" y2="50" /><svg style="font: bold 18px sans-serif;" x="29" y="-5"><text style="font: bold 18px sans-serif;" text-anchor="middle"><tspan x="121" y="30">TASK: BET_T1   Period: 5</tspan></text></svg><svg style="" x="-13" y="17"><text style="" text-anchor="middle"><tspan x="33" y="30">RI</tspan></text></svg><circle cx="20" cy="50" id="Rmin_BET_T1,1" r="4" style="fill: blue; stroke: blue; stroke-width: 2;" /><circle cx="20" cy="50" id="Rmax_BET_T1,1" r="4" style="fill: blue; stroke: blue; stroke-width: 2;" /><svg style="" x="17" y="63"><text style="" text-anchor="middle"><tspan x="33" y="30">DI</tspan></text></svg><circle cx="30" cy="95" id="Dmin_BET_T1,1" r="4" style="fill: green; stroke: green; stroke-width: 2;" /><circle cx="80" cy="95" id="Dmax_BET_T1,1" r="4" style="fill: white; stroke: green; stroke-width: 2;" /><svg id="" x="21" y="141"><circle cx="19" cy="19" r="18" style="fill: white; stroke: black; stroke-width: 2;" /><text style="stroke-width: 0;" text-anchor="middle"><tspan x="19" y="24">1</tspan></text></svg><svg style="" x="37" y="17"><text style="" text-anchor="middle"><tspan x="33" y="30">RI</tspan></text></svg><circle cx="70" cy="50" id="Rmin_BET_T1,2" r="4" style="fill: blue; stroke: blue; stroke-width: 2;" /><circle cx="70" cy="50" id="Rmax_BET_T1,2" r="4" style="fill: blue; stroke: blue; stroke-width: 2;" /><svg style="" x="67" y="88"><text style="" text-anchor="middle"><tspan x="33" y="30">DI</tspan></text></svg><circle cx="80" cy="120" id="Dmin_BET_T1,2" r="4" style="fill: green; stroke: green; stroke-width: 2;" /><circle cx="130" cy="120" id="Dmax_BET_T1,2" r="4" style="fill: white; stroke: green; stroke-width: 2;" /><svg id="" x="71" y="141"><circle cx="19" cy="19" r="18" style="fill: white; stroke: black; stroke-width: 2;" /><text style="stroke-width: 0;" text-anchor="middle"><tspan x="19" y="24">2</tspan></text></svg><svg style="" x="87" y="17"><text style="" text-anchor="middle"><tspan x="33" y="30">RI</tspan></text></svg><circle cx="120" cy="50" id="Rmin_BET_T1,3" r="4" style="fill: blue; stroke: blue; stroke-width: 2;" /><circle cx="120" cy="50" id="Rmax_BET_T1,3" r="4" style="fill: blue; stroke: blue; stroke-width: 2;" /><svg style="" x="117" y="63"><text style="" text-anchor="middle"><tspan x="33" y="30">DI</tspan></text></svg><circle cx="130" cy="95" id="Dmin_BET_T1,3" r="4" style="fill: green; stroke: green; stroke-width: 2;" /><circle cx="180" cy="95" id="Dmax_BET_T1,3" r="4" style="fill: white; stroke: green; stroke-width: 2;" /><svg id="" x="121" y="141"><circle cx="19" cy="19" r="18" style="fill: white; stroke: black; stroke-width: 2;" /><text style="stroke-width: 0;" text-anchor="middle"><tspan x="19" y="24">3</tspan></text></svg><svg style="" x="137" y="17"><text style="" text-anchor="middle"><tspan x="33" y="30">RI</tspan></text></svg><circle cx="170" cy="50" id="Rmin_BET_T1,4" r="4" style="fill: blue; stroke: blue; stroke-width: 2;" /><circle cx="170" cy="50" id="Rmax_BET_T1,4" r="4" style="fill: blue; stroke: blue; stroke-width: 2;" /><svg style="" x="167" y="88"><text style="" text-anchor="middle"><tspan x="33" y="30">DI</tspan></text></svg><circle cx="180" cy="120" id="Dmin_BET_T1,4" r="4" style="fill: green; stroke: green; stroke-width: 2;" /><circle cx="230" cy="120" id="Dmax_BET_T1,4" r="4" style="fill: white; stroke: green; stroke-width: 2;" /><svg id="" x="171" y="141"><circle cx="19" cy="19" r="18" style="fill: white; stroke: black; stroke-width: 2;" /><text style="stroke-width: 0;" text-anchor="middle"><tspan x="19" y="24">4</tspan></text></svg><svg style="" x="187" y="17"><text style="" text-anchor="middle"><tspan x="33" y="30">RI</tspan></text></svg><circle cx="220" cy="50" id="Rmin_BET_T1,5" r="4" style="fill: blue; stroke: blue; stroke-width: 2;" /><circle cx="220" cy="50" id="Rmax_BET_T1,5" r="4" style="fill: blue; stroke: blue; stroke-width: 2;" /><svg style="" x="217" y="63"><text style="" text-anchor="middle"><tspan x="33" y="30">DI</tspan></text></svg><circle cx="230" cy="95" id="Dmin_BET_T1,5" r="4" style="fill: green; stroke: green; stroke-width: 2;" /><circle cx="280" cy="95" id="Dmax_BET_T1,5" r="4" style="fill: white; stroke: green; stroke-width: 2;" /><svg id="" x="221" y="141"><circle cx="19" cy="19" r="18" style="fill: white; stroke: black; stroke-width: 2;" /><text style="stroke-width: 0;" text-anchor="middle"><tspan x="19" y="24">5</tspan></text></svg><svg style="font: bold 18px sans-serif;" x="29" y="195"><text style="font: bold 18px sans-serif;" text-anchor="middle"><tspan x="121" y="30">TASK: BET_T4   Period: 5</tspan></text></svg><svg style="" x="7" y="217"><text style="" text-anchor="middle"><tspan x="33" y="30">RI</tspan></text></svg><circle cx="20" cy="250" id="Rmin_BET_T4,1" r="4" style="fill: blue; stroke: blue; stroke-width: 2;" /><circle cx="60" cy="250" id="Rmax_BET_T4,1" r="4" style="fill: blue; stroke: blue; stroke-width: 2;" /><svg style="" x="37" y="263"><text style="" text-anchor="middle"><tspan x="33" y="30">DI</tspan></text></svg><circle cx="30" cy="295" id="Dmin_BET_T4,1" r="4" style="fill: green; stroke: green; stroke-width: 2;" /><circle cx="120" cy="295" id="Dmax_BET_T4,1" r="4" style="fill: white; stroke: green; stroke-width: 2;" /><svg id="" x="21" y="341"><circle cx="19" cy="19" r="18" style="fill: white; stroke: black; stroke-width: 2;" /><text style="stroke-width: 0;" text-anchor="middle"><tspan x="19" y="24">1</tspan></text></svg><svg style="" x="57" y="217"><text style="" text-anchor="middle"><tspan x="33" y="30">RI</tspan></text></svg><circle cx="70" cy="250" id="Rmin_BET_T4,2" r="4" style="fill: blue; stroke: blue; stroke-width: 2;" /><circle cx="110" cy="250" id="Rmax_BET_T4,2" r="4" style="fill: blue; stroke: blue; stroke-width: 2;" /><svg style="" x="87" y="288"><text style="" text-anchor="middle"><tspan x="33" y="30">DI</tspan></text></svg><circle cx="80" cy="320" id="Dmin_BET_T4,2" r="4" style="fill: green; stroke: green; stroke-width: 2;" /><circle cx="170" cy="320" id="Dmax_BET_T4,2" r="4" style="fill: white; stroke: green; stroke-width: 2;" /><svg id="" x="71" y="341"><circle cx="19" cy="19" r="18" style="fill: white; stroke: black; stroke-width: 2;" /><text style="stroke-width: 0;" text-anchor="middle"><tspan x="19" y="24">2</tspan></text></svg><svg style="" x="107" y="217"><text style="" text-anchor="middle"><tspan x="33" y="30">RI</tspan></text></svg><circle cx="120" cy="250" id="Rmin_BET_T4,3" r="4" style="fill: blue; stroke: blue; stroke-width: 2;" /><circle cx="160" cy="250" id="Rmax_BET_T4,3" r="4" style="fill: blue; stroke: blue; stroke-width: 2;" /><svg style="" x="137" y="263"><text style="" text-anchor="middle"><tspan x="33" y="30">DI</tspan></text></svg><circle cx="130" cy="295" id="Dmin_BET_T4,3" r="4" style="fill: green; stroke: green; stroke-width: 2;" /><circle cx="220" cy="295" id="Dmax_BET_T4,3" r="4" style="fill: white; stroke: green; stroke-width: 2;" /><svg id="" x="121" y="341"><circle cx="19" cy="19" r="18" style="fill: white; stroke: black; stroke-width: 2;" /><text style="stroke-width: 0;" text-anchor="middle"><tspan x="19" y="24">3</tspan></text></svg><svg style="" x="157" y="217"><text style="" text-anchor="middle"><tspan x="33" y="30">RI</tspan></text></svg><circle cx="170" cy="250" id="Rmin_BET_T4,4" r="4" style="fill: blue; stroke: blue; stroke-width: 2;" /><circle cx="210" cy="250" id="Rmax_BET_T4,4" r="4" style="fill: blue; stroke: blue; stroke-width: 2;" /><svg style="" x="187" y="288"><text style="" text-anchor="middle"><tspan x="33" y="30">DI</tspan></text></svg><circle cx="180" cy="320" id="Dmin_BET_T4,4" r="4" style="fill: green; stroke: green; stroke-width: 2;" /><circle cx="270" cy="320" id="Dmax_BET_T4,4" r="4" style="fill: white; stroke: green; stroke-width: 2;" /><svg id="" x="171" y="341"><circle cx="19" cy="19" r="18" style="fill: white; stroke: black; stroke-width: 2;" /><text style="stroke-width: 0;" text-anchor="middle"><tspan x="19" y="24">4</tspan></text></svg><svg style="" x="207" y="217"><text style="" text-anchor="middle"><tspan x="33" y="30">RI</tspan></text></svg><circle cx="220" cy="250" id="Rmin_BET_T4,5" r="4" style="fill: blue; stroke: blue; stroke-width: 2;" /><circle cx="260" cy="250" id="Rmax_BET_T4,5" r="4" style="fill: blue; stroke: blue; stroke-width: 2;" /><svg style="" x="237" y="263"><text style="" text-anchor="middle"><tspan x="33" y="30">DI</tspan></text></svg><circle cx="230" cy="295" id="Dmin_BET_T4,5" r="4" style="fill: green; stroke: green; stroke-width: 2;" /><circle cx="320" cy="295" id="Dmax_BET_T4,5" r="4" style="fill: white; stroke: green; stroke-width: 2;" /><svg id="" x="221" y="341"><circle cx="19" cy="19" r="18" style="fill: white; stroke: black; stroke-width: 2;" /><text style="stroke-width: 0;" text-anchor="middle"><tspan x="19" y="24">5</tspan></text></svg><svg style="" x="-9" y="450"><text style="" text-anchor="middle"><tspan x="29" y="30">0</tspan></text></svg><svg style="fill: white; stroke: black; stroke-width: 2;" x="37" y="450"><ellipse cx="33" cy="25" rx="32" ry="20" style="fill: white; stroke: black; stroke-width: 2;" /><text style="stroke-width: 0; fill: black;" text-anchor="middle"><tspan x="33" y="30">HP</tspan></text></svg><svg style="fill: white; stroke: black; stroke-width: 2;" x="87" y="450"><ellipse cx="33" cy="25" rx="32" ry="20" style="fill: white; stroke: black; stroke-width: 2;" /><text style="stroke-width: 0; fill: black;" text-anchor="middle"><tspan x="33" y="30">HP</tspan></text></svg><svg style="fill: white; stroke: black; stroke-width: 2;" x="137" y="450"><ellipse cx="33" cy="25" rx="32" ry="20" style="fill: white; stroke: black; stroke-width: 2;" /><text style="stroke-width: 0; fill: black;" text-anchor="middle"><tspan x="33" y="30">HP</tspan></text></svg><svg style="fill: white; stroke: black; stroke-width: 2;" x="187" y="450"><ellipse cx="33" cy="25" rx="32" ry="20" style="fill: white; stroke: black; stroke-width: 2;" /><text style="stroke-width: 0; fill: black;" text-anchor="middle"><tspan x="33" y="30">HP</tspan></text></svg><rect height="450" style="fill:white;" width="50" x="250" y="0" /><svg style="" x="221" y="450"><text style="" text-anchor="middle"><tspan x="29" y="30">t</tspan></text></svg><polygon name="" points="250,442 250,458 270,450" style="" /><svg style="fill: white; stroke: black; stroke-width: 2;" x="1" y="375"><ellipse cx="89" cy="25" rx="88" ry="20" style="fill: white; stroke: black; stroke-width: 2;" /><text style="stroke-width: 0; fill: black;" text-anchor="middle"><tspan x="89" y="30">Max Data Age: 14</tspan></text></svg></svg>