<svg height="1439.15503904" version="1.1" width="436.478897565" xmlns="http://www.w3.org/2000/svg"><polygon name="line_arrow" points="88,154,101,146,87,137" style="fill:#1bdf54" /><polygon name="line_arrow" points="95,166,108,159,94,150" style="fill:#1bdf54" /><polygon name="line_arrow" points="103,179,116,172,102,163" style="fill:#1bdf54" /><polygon name="line_arrow" points="110,192,123,185,109,176" style="fill:#1bdf54" /><polygon name="line_arrow" points="118,205,131,198,117,189" style="fill:#1bdf54" /><polygon name="line_arrow" points="125,218,138,211,124,202" style="fill:#1bdf54" /><polygon name="line_arrow" points="133,231,146,224,132,215" style="fill:#1bdf54" /><polygon name="line_arrow" points="140,244,153,237,139,228" style="fill:#1bdf54" /><polygon name="line_arrow" points="148,257,161,250,147,241" style="fill:#1bdf54" /><polygon name="line_arrow" points="155,270,168,263,154,254" style="fill:#1bdf54" /><polygon name="line_arrow" points="163,283,176,276,162,267" style="fill:#1bdf54" /><polygon name="line_arrow" points="170,296,183,289,169,280" style="fill:#1bdf54" /><polygon name="line_arrow" points="178,309,191,302,177,293" style="fill:#1bdf54" /><polygon name="line_arrow" points="185,322,198,315,184,306" style="fill:#1bdf54" /><polygon name="line_arrow" points="193,335,206,328,192,319" style="fill:#1bdf54" /><polygon name="line_arrow" points="200,348,213,341,199,332" style="fill:#1bdf54" /><polygon name="line_arrow" points="208,361,221,354,207,345" style="fill:#1bdf54" /><polygon name="line_arrow" points="328,284,335,297,344,283" style="fill:#df1b1b" /><polygon name="line_arrow" points="315,291,322,304,331,290" style="fill:#df1b1b" /><polygon name="line_arrow" points="302,299,309,312,318,298" style="fill:#df1b1b" /><polygon name="line_arrow" points="289,306,296,319,305,305" style="fill:#df1b1b" /><polygon name="line_arrow" points="276,314,283,327,292,313" style="fill:#df1b1b" /><polygon name="line_arrow" points="263,321,270,334,279,320" style="fill:#df1b1b" /><polygon name="line_arrow" points="250,329,257,342,266,328" style="fill:#df1b1b" /><polygon name="line_arrow" points="237,336,244,349,253,335" style="fill:#df1b1b" /><polygon name="line_arrow" points="224,344,231,357,240,343" style="fill:#df1b1b" /><polygon name="line_arrow" points="211,351,218,364,227,350" style="fill:#df1b1b" /><polygon name="line_arrow" points="332,290,345,282,331,273" style="fill:#df1b1b" /><polygon name="line_arrow" points="324,277,337,269,323,260" style="fill:#df1b1b" /><polygon name="line_arrow" points="317,264,330,256,316,247" style="fill:#df1b1b" /><polygon name="line_arrow" points="309,251,322,243,308,234" style="fill:#df1b1b" /><polygon name="line_arrow" points="302,238,315,230,301,221" style="fill:#df1b1b" /><polygon name="line_arrow" points="294,225,307,217,293,208" style="fill:#df1b1b" /><polygon name="line_arrow" points="287,212,300,204,286,195" style="fill:#df1b1b" /><polygon name="line_arrow" points="279,199,292,191,278,182" style="fill:#df1b1b" /><polygon name="line_arrow" points="272,186,285,178,271,169" style="fill:#df1b1b" /><polygon name="line_arrow" points="264,173,277,165,263,156" style="fill:#df1b1b" /><polygon name="line_arrow" points="257,160,270,152,256,143" style="fill:#df1b1b" /><polygon name="line_arrow" points="249,147,262,139,248,130" style="fill:#df1b1b" /><polygon name="line_arrow" points="242,134,255,126,241,117" style="fill:#df1b1b" /><polygon name="line_arrow" points="234,121,247,113,233,104" style="fill:#df1b1b" /><polygon name="line_arrow" points="227,108,240,100,226,91" style="fill:#df1b1b" /><polygon name="line_arrow" points="219,95,232,87,218,78" style="fill:#df1b1b" /><polygon name="line_arrow" points="212,82,225,74,211,65" style="fill:#df1b1b" /><svg id="BET_T1" x="175.859173174" y="319.098621957"><circle cx="39" cy="39" r="38" style="fill: #f18d8d; stroke: black; stroke-width: 3;" /><text style="stroke-width: 0;" text-anchor="middle"><tspan x="39" y="44">BET_T1</tspan></text></svg><svg id="BET_T3" x="299.908174644" y="247.478897565"><circle cx="39" cy="39" r="38" style="fill: #8df1aa; stroke: black; stroke-width: 3;" /><text style="stroke-width: 0;" text-anchor="middle"><tspan x="39" y="44">BET_T3</tspan></text></svg><svg id="BET_T5" x="299.908174644" y="104.239448783"><circle cx="39" cy="39" r="38" style="fill: #f1d08d; stroke: black; stroke-width: 3;" /><text style="stroke-width: 0;" text-anchor="middle"><tspan x="39" y="44">BET_T5</tspan></text></svg><svg id="BET_T2" x="175.859173174" y="32.6197243914"><circle cx="39" cy="39" r="38" style="fill: #f18de6; stroke: black; stroke-width: 3;" /><text style="stroke-width: 0;" text-anchor="middle"><tspan x="39" y="44">BET_T2</tspan></text></svg><svg id="BET_T4" x="51.8101717042" y="104.239448783"><circle cx="39" cy="39" r="38" style="fill: #f7f687; stroke: black; stroke-width: 3;" /><text style="stroke-width: 0;" text-anchor="middle"><tspan x="39" y="44">BET_T4</tspan></text></svg><svg id="BET_T6" x="51.8101717042" y="247.478897565"><circle cx="39" cy="39" r="38" style="fill: #8e8df1; stroke: black; stroke-width: 3;" /><text style="stroke-width: 0;" text-anchor="middle"><tspan x="39" y="44">BET_T6</tspan></text></svg></svg>