<svg height="440" version="1.1" width="520" xmlns="http://www.w3.org/2000/svg"><line style="stroke: red; stroke-width: 4;" x1="452.153882032" x2="477.153882032" y1="240" y2="340" /><line style="stroke: red; stroke-width: 4;" x1="258.180339887" x2="458.180339887" y1="140" y2="240" /><line style="stroke: red; stroke-width: 4;" x1="313.770509831" x2="263.770509831" y1="40" y2="140" /><line style="stroke: red; stroke-width: 4;" x1="403.25" x2="478.25" y1="240" y2="340" /><line style="stroke: red; stroke-width: 4;" x1="265.027756377" x2="415.027756377" y1="140" y2="240" /><line style="stroke: red; stroke-width: 4;" x1="308.180339887" x2="258.180339887" y1="40" y2="140" /><line style="stroke: red; stroke-width: 4;" x1="402.153882032" x2="377.153882032" y1="240" y2="340" /><line style="stroke: red; stroke-width: 4;" x1="256.013878189" x2="406.013878189" y1="140" y2="240" /><line style="stroke: red; stroke-width: 4;" x1="302.590169944" x2="252.590169944" y1="40" y2="140" /><line style="stroke: red; stroke-width: 4;" x1="352.153882032" x2="377.153882032" y1="240" y2="340" /><line style="stroke: red; stroke-width: 4;" x1="254.071067812" x2="354.071067812" y1="140" y2="240" /><line style="stroke: red; stroke-width: 4;" x1="297.0" x2="247.0" y1="40" y2="140" /><line style="stroke: red; stroke-width: 4;" x1="309.5" x2="384.5" y1="240" y2="340" /><line style="stroke: red; stroke-width: 4;" x1="258.180339887" x2="308.180339887" y1="140" y2="240" /><line style="stroke: red; stroke-width: 4;" x1="291.409830056" x2="241.409830056" y1="40" y2="140" /><line style="stroke: red; stroke-width: 4;" x1="307.307764064" x2="282.307764064" y1="240" y2="340" /><line style="stroke: red; stroke-width: 4;" x1="252.590169944" x2="302.590169944" y1="140" y2="240" /><line style="stroke: red; stroke-width: 4;" x1="285.819660113" x2="235.819660113" y1="40" y2="140" /><line style="stroke: red; stroke-width: 4;" x1="257.307764064" x2="282.307764064" y1="240" y2="340" /><line style="stroke: red; stroke-width: 4;" x1="252.0" x2="252.0" y1="140" y2="240" /><line style="stroke: red; stroke-width: 4;" x1="280.229490169" x2="230.229490169" y1="40" y2="140" /><line style="stroke: black; stroke-width: 4;" x1="447.0" x2="472.0" y1="240" y2="340" /><line style="stroke: black; stroke-width: 4;" x1="247.0" x2="447.0" y1="140" y2="240" /><line style="stroke: black; stroke-width: 4;" x1="262.0" x2="262.0" y1="40" y2="140" /><line style="stroke: black; stroke-width: 4;" x1="397.0" x2="472.0" y1="240" y2="340" /><line style="stroke: black; stroke-width: 4;" x1="247.0" x2="397.0" y1="140" y2="240" /><line style="stroke: black; stroke-width: 4;" x1="257.0" x2="257.0" y1="40" y2="140" /><line style="stroke: black; stroke-width: 4;" x1="397.0" x2="372.0" y1="240" y2="340" /><line style="stroke: black; stroke-width: 4;" x1="237.986121811" x2="387.986121811" y1="140" y2="240" /><line style="stroke: black; stroke-width: 4;" x1="252.0" x2="252.0" y1="40" y2="140" /><line style="stroke: black; stroke-width: 4;" x1="347.0" x2="372.0" y1="240" y2="340" /><line style="stroke: black; stroke-width: 4;" x1="247.0" x2="347.0" y1="140" y2="240" /><line style="stroke: black; stroke-width: 4;" x1="247.0" x2="247.0" y1="40" y2="140" /><line style="stroke: black; stroke-width: 4;" x1="303.25" x2="378.25" y1="240" y2="340" /><line style="stroke: black; stroke-width: 4;" x1="247.0" x2="297.0" y1="140" y2="240" /><line style="stroke: black; stroke-width: 4;" x1="242.0" x2="242.0" y1="40" y2="140" /><line style="stroke: black; stroke-width: 4;" x1="302.153882032" x2="277.153882032" y1="240" y2="340" /><line style="stroke: black; stroke-width: 4;" x1="241.409830056" x2="291.409830056" y1="140" y2="240" /><line style="stroke: black; stroke-width: 4;" x1="237.0" x2="237.0" y1="40" y2="140" /><line style="stroke: black; stroke-width: 4;" x1="252.153882032" x2="277.153882032" y1="240" y2="340" /><line style="stroke: black; stroke-width: 4;" x1="247.0" x2="247.0" y1="140" y2="240" /><line style="stroke: black; stroke-width: 4;" x1="232.0" x2="232.0" y1="40" y2="140" /><line style="stroke: blue; stroke-width: 4;" x1="441.846117968" x2="466.846117968" y1="240" y2="340" /><line style="stroke: blue; stroke-width: 4;" x1="235.819660113" x2="435.819660113" y1="140" y2="240" /><line style="stroke: blue; stroke-width: 4;" x1="213.770509831" x2="263.770509831" y1="40" y2="140" /><line style="stroke: blue; stroke-width: 4;" x1="390.75" x2="465.75" y1="240" y2="340" /><line style="stroke: blue; stroke-width: 4;" x1="228.972243623" x2="378.972243623" y1="140" y2="240" /><line style="stroke: blue; stroke-width: 4;" x1="208.180339887" x2="258.180339887" y1="40" y2="140" /><line style="stroke: blue; stroke-width: 4;" x1="391.846117968" x2="366.846117968" y1="240" y2="340" /><line style="stroke: blue; stroke-width: 4;" x1="219.958365434" x2="369.958365434" y1="140" y2="240" /><line style="stroke: blue; stroke-width: 4;" x1="202.590169944" x2="252.590169944" y1="40" y2="140" /><line style="stroke: blue; stroke-width: 4;" x1="341.846117968" x2="366.846117968" y1="240" y2="340" /><line style="stroke: blue; stroke-width: 4;" x1="239.928932188" x2="339.928932188" y1="140" y2="240" /><line style="stroke: blue; stroke-width: 4;" x1="197.0" x2="247.0" y1="40" y2="140" /><line style="stroke: blue; stroke-width: 4;" x1="297.0" x2="372.0" y1="240" y2="340" /><line style="stroke: blue; stroke-width: 4;" x1="235.819660113" x2="285.819660113" y1="140" y2="240" /><line style="stroke: blue; stroke-width: 4;" x1="191.409830056" x2="241.409830056" y1="40" y2="140" /><line style="stroke: blue; stroke-width: 4;" x1="297.0" x2="272.0" y1="240" y2="340" /><line style="stroke: blue; stroke-width: 4;" x1="230.229490169" x2="280.229490169" y1="140" y2="240" /><line style="stroke: blue; stroke-width: 4;" x1="185.819660113" x2="235.819660113" y1="40" y2="140" /><line style="stroke: blue; stroke-width: 4;" x1="247.0" x2="272.0" y1="240" y2="340" /><line style="stroke: blue; stroke-width: 4;" x1="242.0" x2="242.0" y1="140" y2="240" /><line style="stroke: blue; stroke-width: 4;" x1="180.229490169" x2="230.229490169" y1="40" y2="140" /><line style="stroke: orange; stroke-width: 4;" x1="290.75" x2="365.75" y1="240" y2="340" /><line style="stroke: orange; stroke-width: 4;" x1="119.360679775" x2="319.360679775" y1="140" y2="240" /><line style="stroke: orange; stroke-width: 4;" x1="163.770509831" x2="113.770509831" y1="40" y2="140" /><line style="stroke: orange; stroke-width: 4;" x1="291.846117968" x2="266.846117968" y1="240" y2="340" /><line style="stroke: orange; stroke-width: 4;" x1="108.180339887" x2="308.180339887" y1="140" y2="240" /><line style="stroke: orange; stroke-width: 4;" x1="158.180339887" x2="108.180339887" y1="40" y2="140" /><line style="stroke: orange; stroke-width: 4;" x1="241.846117968" x2="266.846117968" y1="240" y2="340" /><line style="stroke: orange; stroke-width: 4;" x1="106.013878189" x2="256.013878189" y1="140" y2="240" /><line style="stroke: orange; stroke-width: 4;" x1="152.590169944" x2="102.590169944" y1="40" y2="140" /><line style="stroke: orange; stroke-width: 4;" x1="203.25" x2="278.25" y1="240" y2="340" /><line style="stroke: orange; stroke-width: 4;" x1="111.142135624" x2="211.142135624" y1="140" y2="240" /><line style="stroke: orange; stroke-width: 4;" x1="147.0" x2="97.0" y1="40" y2="140" /><line style="stroke: orange; stroke-width: 4;" x1="202.153882032" x2="177.153882032" y1="240" y2="340" /><line style="stroke: orange; stroke-width: 4;" x1="104.071067812" x2="204.071067812" y1="140" y2="240" /><line style="stroke: orange; stroke-width: 4;" x1="141.409830056" x2="91.4098300563" y1="40" y2="140" /><line style="stroke: orange; stroke-width: 4;" x1="152.153882032" x2="177.153882032" y1="240" y2="340" /><line style="stroke: orange; stroke-width: 4;" x1="102.590169944" x2="152.590169944" y1="140" y2="240" /><line style="stroke: orange; stroke-width: 4;" x1="135.819660113" x2="85.8196601125" y1="40" y2="140" /><line style="stroke: orange; stroke-width: 4;" x1="103.25" x2="178.25" y1="240" y2="340" /><line style="stroke: orange; stroke-width: 4;" x1="107.0" x2="107.0" y1="140" y2="240" /><line style="stroke: orange; stroke-width: 4;" x1="130.229490169" x2="80.2294901688" y1="40" y2="140" /><line style="stroke: orange; stroke-width: 4;" x1="102.153882032" x2="77.153882032" y1="240" y2="340" /><line style="stroke: orange; stroke-width: 4;" x1="102.0" x2="102.0" y1="140" y2="240" /><line style="stroke: orange; stroke-width: 4;" x1="124.639320225" x2="74.639320225" y1="40" y2="140" /><line style="stroke: green; stroke-width: 4;" x1="284.5" x2="359.5" y1="240" y2="340" /><line style="stroke: green; stroke-width: 4;" x1="97.0" x2="297.0" y1="140" y2="240" /><line style="stroke: green; stroke-width: 4;" x1="112.0" x2="112.0" y1="40" y2="140" /><line style="stroke: green; stroke-width: 4;" x1="286.692235936" x2="261.692235936" y1="240" y2="340" /><line style="stroke: green; stroke-width: 4;" x1="85.8196601125" x2="285.819660113" y1="140" y2="240" /><line style="stroke: green; stroke-width: 4;" x1="107.0" x2="107.0" y1="40" y2="140" /><line style="stroke: green; stroke-width: 4;" x1="236.692235936" x2="261.692235936" y1="240" y2="340" /><line style="stroke: green; stroke-width: 4;" x1="97.0" x2="247.0" y1="140" y2="240" /><line style="stroke: green; stroke-width: 4;" x1="102.0" x2="102.0" y1="40" y2="140" /><line style="stroke: green; stroke-width: 4;" x1="197.0" x2="272.0" y1="240" y2="340" /><line style="stroke: green; stroke-width: 4;" x1="97.0" x2="197.0" y1="140" y2="240" /><line style="stroke: green; stroke-width: 4;" x1="97.0" x2="97.0" y1="40" y2="140" /><line style="stroke: green; stroke-width: 4;" x1="197.0" x2="172.0" y1="240" y2="340" /><line style="stroke: green; stroke-width: 4;" x1="89.9289321881" x2="189.928932188" y1="140" y2="240" /><line style="stroke: green; stroke-width: 4;" x1="92.0" x2="92.0" y1="40" y2="140" /><line style="stroke: green; stroke-width: 4;" x1="147.0" x2="172.0" y1="240" y2="340" /><line style="stroke: green; stroke-width: 4;" x1="97.0" x2="147.0" y1="140" y2="240" /><line style="stroke: green; stroke-width: 4;" x1="87.0" x2="87.0" y1="40" y2="140" /><line style="stroke: green; stroke-width: 4;" x1="97.0" x2="172.0" y1="240" y2="340" /><line style="stroke: green; stroke-width: 4;" x1="97.0" x2="97.0" y1="140" y2="240" /><line style="stroke: green; stroke-width: 4;" x1="82.0" x2="82.0" y1="40" y2="140" /><line style="stroke: green; stroke-width: 4;" x1="97.0" x2="72.0" y1="240" y2="340" /><line style="stroke: green; stroke-width: 4;" x1="92.0" x2="92.0" y1="140" y2="240" /><line style="stroke: green; stroke-width: 4;" x1="77.0" x2="77.0" y1="40" y2="140" /><line style="stroke: red; stroke-width: 4;" x1="278.25" x2="353.25" y1="240" y2="340" /><line style="stroke: red; stroke-width: 4;" x1="74.639320225" x2="274.639320225" y1="140" y2="240" /><line style="stroke: red; stroke-width: 4;" x1="63.7705098312" x2="113.770509831" y1="40" y2="140" /><line style="stroke: red; stroke-width: 4;" x1="281.538353904" x2="256.538353904" y1="240" y2="340" /><line style="stroke: red; stroke-width: 4;" x1="63.4589803375" x2="263.458980338" y1="140" y2="240" /><line style="stroke: red; stroke-width: 4;" x1="58.1803398875" x2="108.180339887" y1="40" y2="140" /><line style="stroke: red; stroke-width: 4;" x1="231.538353904" x2="256.538353904" y1="240" y2="340" /><line style="stroke: red; stroke-width: 4;" x1="87.9861218113" x2="237.986121811" y1="140" y2="240" /><line style="stroke: red; stroke-width: 4;" x1="52.5901699437" x2="102.590169944" y1="40" y2="140" /><line style="stroke: red; stroke-width: 4;" x1="190.75" x2="265.75" y1="240" y2="340" /><line style="stroke: red; stroke-width: 4;" x1="82.8578643763" x2="182.857864376" y1="140" y2="240" /><line style="stroke: red; stroke-width: 4;" x1="47.0" x2="97.0" y1="40" y2="140" /><line style="stroke: red; stroke-width: 4;" x1="191.846117968" x2="166.846117968" y1="240" y2="340" /><line style="stroke: red; stroke-width: 4;" x1="75.7867965644" x2="175.786796564" y1="140" y2="240" /><line style="stroke: red; stroke-width: 4;" x1="41.4098300563" x2="91.4098300563" y1="40" y2="140" /><line style="stroke: red; stroke-width: 4;" x1="141.846117968" x2="166.846117968" y1="240" y2="340" /><line style="stroke: red; stroke-width: 4;" x1="91.4098300563" x2="141.409830056" y1="140" y2="240" /><line style="stroke: red; stroke-width: 4;" x1="35.8196601125" x2="85.8196601125" y1="40" y2="140" /><line style="stroke: red; stroke-width: 4;" x1="90.75" x2="165.75" y1="240" y2="340" /><line style="stroke: red; stroke-width: 4;" x1="87.0" x2="87.0" y1="140" y2="240" /><line style="stroke: red; stroke-width: 4;" x1="30.2294901688" x2="80.2294901688" y1="40" y2="140" /><line style="stroke: red; stroke-width: 4;" x1="91.846117968" x2="66.846117968" y1="240" y2="340" /><line style="stroke: red; stroke-width: 4;" x1="82.0" x2="82.0" y1="140" y2="240" /><line style="stroke: red; stroke-width: 4;" x1="24.639320225" x2="74.639320225" y1="40" y2="140" /><line style="stroke: black; stroke-width: 2;" x1="320" x2="320" y1="10" y2="350.0" /><svg style="" x="287" y="335.0"><text style="" text-anchor="middle"><tspan x="33" y="30">HP</tspan></text></svg><svg id="BETtask_1,1" x="26.0" y="21"><circle cx="19" cy="19" r="18" style="fill: white; stroke: black; stroke-width: 2;" /><text style="stroke-width: 0;" text-anchor="middle"><tspan x="19" y="24">1</tspan></text></svg><svg id="BETtask_3,1" x="76.0" y="121"><circle cx="19" cy="19" r="18" style="fill: white; stroke: black; stroke-width: 2;" /><text style="stroke-width: 0;" text-anchor="middle"><tspan x="19" y="24">1</tspan></text></svg><svg id="BETtask_4,2" x="76.0" y="221"><circle cx="19" cy="19" r="18" style="fill: white; stroke: black; stroke-width: 2;" /><text style="stroke-width: 0;" text-anchor="middle"><tspan x="19" y="24">2</tspan></text></svg><svg id="BETtask_5,1" x="51.0" y="321"><circle cx="19" cy="19" r="18" style="fill: white; stroke: black; stroke-width: 2;" /><text style="stroke-width: 0;" text-anchor="middle"><tspan x="19" y="24">1</tspan></text></svg><svg id="BETtask_5,2" x="151.0" y="321"><circle cx="19" cy="19" r="18" style="fill: white; stroke: black; stroke-width: 2;" /><text style="stroke-width: 0;" text-anchor="middle"><tspan x="19" y="24">2</tspan></text></svg><svg id="BETtask_4,3" x="126.0" y="221"><circle cx="19" cy="19" r="18" style="fill: white; stroke: black; stroke-width: 2;" /><text style="stroke-width: 0;" text-anchor="middle"><tspan x="19" y="24">3</tspan></text></svg><svg id="BETtask_4,4" x="176.0" y="221"><circle cx="19" cy="19" r="18" style="fill: white; stroke: black; stroke-width: 2;" /><text style="stroke-width: 0;" text-anchor="middle"><tspan x="19" y="24">4</tspan></text></svg><svg id="BETtask_5,3" x="251.0" y="321"><circle cx="19" cy="19" r="18" style="fill: white; stroke: black; stroke-width: 2;" /><text style="stroke-width: 0;" text-anchor="middle"><tspan x="19" y="24">3</tspan></text></svg><svg id="BETtask_4,5" x="226.0" y="221"><circle cx="19" cy="19" r="18" style="fill: white; stroke: black; stroke-width: 2;" /><text style="stroke-width: 0;" text-anchor="middle"><tspan x="19" y="24">5</tspan></text></svg><svg id="BETtask_4,6" x="276.0" y="221"><circle cx="19" cy="19" r="18" style="fill: white; stroke: black; stroke-width: 2;" /><text style="stroke-width: 0;" text-anchor="middle"><tspan x="19" y="24">6</tspan></text></svg><svg id="BETtask_5,4" x="351.0" y="321"><circle cx="19" cy="19" r="18" style="fill: white; stroke: black; stroke-width: 2;" /><text style="stroke-width: 0;" text-anchor="middle"><tspan x="19" y="24">4</tspan></text></svg><svg id="BETtask_1,2" x="76.0" y="21"><circle cx="19" cy="19" r="18" style="fill: white; stroke: black; stroke-width: 2;" /><text style="stroke-width: 0;" text-anchor="middle"><tspan x="19" y="24">2</tspan></text></svg><svg id="BETtask_1,3" x="126.0" y="21"><circle cx="19" cy="19" r="18" style="fill: white; stroke: black; stroke-width: 2;" /><text style="stroke-width: 0;" text-anchor="middle"><tspan x="19" y="24">3</tspan></text></svg><svg id="BETtask_1,4" x="176.0" y="21"><circle cx="19" cy="19" r="18" style="fill: white; stroke: black; stroke-width: 2;" /><text style="stroke-width: 0;" text-anchor="middle"><tspan x="19" y="24">4</tspan></text></svg><svg id="BETtask_3,2" x="226.0" y="121"><circle cx="19" cy="19" r="18" style="fill: white; stroke: black; stroke-width: 2;" /><text style="stroke-width: 0;" text-anchor="middle"><tspan x="19" y="24">2</tspan></text></svg><svg id="BETtask_4,7" x="326.0" y="221"><circle cx="19" cy="19" r="18" style="fill: white; stroke: black; stroke-width: 2;" /><text style="stroke-width: 0;" text-anchor="middle"><tspan x="19" y="24">7</tspan></text></svg><svg id="BETtask_4,8" x="376.0" y="221"><circle cx="19" cy="19" r="18" style="fill: white; stroke: black; stroke-width: 2;" /><text style="stroke-width: 0;" text-anchor="middle"><tspan x="19" y="24">8</tspan></text></svg><svg id="BETtask_5,5" x="451.0" y="321"><circle cx="19" cy="19" r="18" style="fill: white; stroke: black; stroke-width: 2;" /><text style="stroke-width: 0;" text-anchor="middle"><tspan x="19" y="24">5</tspan></text></svg><svg id="BETtask_4,9" x="426.0" y="221"><circle cx="19" cy="19" r="18" style="fill: white; stroke: black; stroke-width: 2;" /><text style="stroke-width: 0;" text-anchor="middle"><tspan x="19" y="24">9</tspan></text></svg><svg id="BETtask_1,5" x="226.0" y="21"><circle cx="19" cy="19" r="18" style="fill: white; stroke: black; stroke-width: 2;" /><text style="stroke-width: 0;" text-anchor="middle"><tspan x="19" y="24">5</tspan></text></svg><svg id="BETtask_1,6" x="276.0" y="21"><circle cx="19" cy="19" r="18" style="fill: white; stroke: black; stroke-width: 2;" /><text style="stroke-width: 0;" text-anchor="middle"><tspan x="19" y="24">6</tspan></text></svg></svg>