<svg height="700" version="1.1" width="1040" xmlns="http://www.w3.org/2000/svg"><rect height="700" style="fill:white;" width="1040" x="0" y="0" /><polygon name="dependency_polygon" points="20, 50 170, 95 170, 250 240, 320 240, 450 420, 520 420, 650 620, 650 620, 520 240, 450 240, 320 170, 250 170, 95 20, 50 " style="fill:#F5DA81; stroke:none; opacity:1;" /><polygon name="max_data_age" points="20, 50 20, 650 240, 650 240, 520 240, 450 240, 320 170, 250 170, 95 20, 50 " style="fill:black; stroke:none; opacity:0.3;" /><polygon name="robustness_margin" points="270,320 270,408 312,450 440,450 440,362 397,320" style="fill: #F78181; opacity:1;" /><polygon name="robustness_margin" points="200,95 200,245 205,250 220,250 220,100 215,95" style="fill: #F78181; opacity:1;" /><line style="stroke: black; stroke-width: 2;" x1="240" x2="240" y1="580" y2="620" /><line style="stroke: black; stroke-width: 2;" x1="20" x2="20" y1="580" y2="620" /><line style="stroke: black; stroke-width: 2;" x1="20" x2="240" y1="600" y2="600" /><line style="stroke: black; stroke-width: 2;" x1="970" x2="970" y1="650" y2="655" /><line style="stroke: black; stroke-width: 2;" x1="920" x2="920" y1="650" y2="660" /><line style="stroke: black; stroke-width: 2;" x1="870" x2="870" y1="650" y2="655" /><line style="stroke: black; stroke-width: 3;" x1="820" x2="820" y1="670" y2="40" /><line style="stroke: black; stroke-width: 2;" x1="770" x2="770" y1="650" y2="655" /><line style="stroke: black; stroke-width: 2;" x1="720" x2="720" y1="650" y2="660" /><line style="stroke: black; stroke-width: 2;" x1="670" x2="670" y1="650" y2="655" /><line style="stroke: black; stroke-width: 3;" x1="620" x2="620" y1="670" y2="40" /><line style="stroke: black; stroke-width: 2;" x1="570" x2="570" y1="650" y2="655" /><line style="stroke: black; stroke-width: 2;" x1="520" x2="520" y1="650" y2="660" /><line style="stroke: black; stroke-width: 2;" x1="470" x2="470" y1="650" y2="655" /><line style="stroke: black; stroke-width: 3;" x1="420" x2="420" y1="670" y2="40" /><line style="stroke: black; stroke-width: 2;" x1="370" x2="370" y1="650" y2="655" /><line style="stroke: black; stroke-width: 2;" x1="320" x2="320" y1="650" y2="660" /><line style="stroke: black; stroke-width: 2;" x1="270" x2="270" y1="650" y2="655" /><line style="stroke: black; stroke-width: 3;" x1="220" x2="220" y1="670" y2="40" /><line style="stroke: black; stroke-width: 2;" x1="170" x2="170" y1="650" y2="655" /><line style="stroke: black; stroke-width: 2;" x1="120" x2="120" y1="650" y2="660" /><line style="stroke: black; stroke-width: 2;" x1="70" x2="70" y1="650" y2="655" /><line style="stroke: black; stroke-width: 2;" x1="20" x2="20" y1="650" y2="660" /><line style="stroke: black; stroke-width: 3;" x1="20" x2="20" y1="650" y2="40" /><line style="stroke: black; stroke-width: 3;" x1="20" x2="1000" y1="650" y2="650" /><line style="stroke: grey; stroke-width: 2;" x1="1020" x2="1020" y1="445" y2="570" /><line style="stroke: green; stroke-width: 2;" x1="1020" x2="1220" y1="495" y2="495" /><line style="stroke: blue; stroke-width: 2;" x1="840" x2="840" y1="450" y2="450" /><line style="stroke: grey; stroke-width: 2;" x1="820" x2="820" y1="445" y2="570" /><line style="stroke: green; stroke-width: 2;" x1="820" x2="1020" y1="520" y2="520" /><line style="stroke: blue; stroke-width: 2;" x1="640" x2="640" y1="450" y2="450" /><line style="stroke: grey; stroke-width: 2;" x1="620" x2="620" y1="445" y2="570" /><line style="stroke: green; stroke-width: 2;" x1="620" x2="820" y1="495" y2="495" /><line style="stroke: blue; stroke-width: 2;" x1="440" x2="440" y1="450" y2="450" /><line style="stroke: black; stroke-width: 1;" x1="420" x2="420" y1="445" y2="570" /><line style="stroke: green; stroke-width: 2;" x1="420" x2="620" y1="520" y2="520" /><line style="stroke: blue; stroke-width: 2;" x1="240" x2="240" y1="450" y2="450" /><line style="stroke: black; stroke-width: 1;" x1="220" x2="220" y1="445" y2="570" /><line style="stroke: green; stroke-width: 2;" x1="220" x2="420" y1="495" y2="495" /><line style="stroke: blue; stroke-width: 2;" x1="40" x2="40" y1="450" y2="450" /><line style="stroke: grey; stroke-width: 2;" x1="1020" x2="1020" y1="245" y2="370" /><line style="stroke: green; stroke-width: 2;" x1="1020" x2="1070" y1="320" y2="320" /><line style="stroke: blue; stroke-width: 2;" x1="970" x2="970" y1="250" y2="250" /><line style="stroke: grey; stroke-width: 2;" x1="970" x2="970" y1="245" y2="370" /><line style="stroke: green; stroke-width: 2;" x1="970" x2="1020" y1="295" y2="295" /><line style="stroke: blue; stroke-width: 2;" x1="920" x2="920" y1="250" y2="250" /><line style="stroke: grey; stroke-width: 2;" x1="920" x2="920" y1="245" y2="370" /><line style="stroke: green; stroke-width: 2;" x1="920" x2="970" y1="320" y2="320" /><line style="stroke: blue; stroke-width: 2;" x1="870" x2="870" y1="250" y2="250" /><line style="stroke: grey; stroke-width: 2;" x1="870" x2="870" y1="245" y2="370" /><line style="stroke: green; stroke-width: 2;" x1="870" x2="920" y1="295" y2="295" /><line style="stroke: blue; stroke-width: 2;" x1="820" x2="820" y1="250" y2="250" /><line style="stroke: grey; stroke-width: 2;" x1="820" x2="820" y1="245" y2="370" /><line style="stroke: green; stroke-width: 2;" x1="820" x2="870" y1="320" y2="320" /><line style="stroke: blue; stroke-width: 2;" x1="770" x2="770" y1="250" y2="250" /><line style="stroke: grey; stroke-width: 2;" x1="770" x2="770" y1="245" y2="370" /><line style="stroke: green; stroke-width: 2;" x1="770" x2="820" y1="295" y2="295" /><line style="stroke: blue; stroke-width: 2;" x1="720" x2="720" y1="250" y2="250" /><line style="stroke: grey; stroke-width: 2;" x1="720" x2="720" y1="245" y2="370" /><line style="stroke: green; stroke-width: 2;" x1="720" x2="770" y1="320" y2="320" /><line style="stroke: blue; stroke-width: 2;" x1="670" x2="670" y1="250" y2="250" /><line style="stroke: grey; stroke-width: 2;" x1="670" x2="670" y1="245" y2="370" /><line style="stroke: green; stroke-width: 2;" x1="670" x2="720" y1="295" y2="295" /><line style="stroke: blue; stroke-width: 2;" x1="620" x2="620" y1="250" y2="250" /><line style="stroke: grey; stroke-width: 2;" x1="620" x2="620" y1="245" y2="370" /><line style="stroke: green; stroke-width: 2;" x1="620" x2="670" y1="320" y2="320" /><line style="stroke: blue; stroke-width: 2;" x1="570" x2="570" y1="250" y2="250" /><line style="stroke: grey; stroke-width: 2;" x1="570" x2="570" y1="245" y2="370" /><line style="stroke: green; stroke-width: 2;" x1="570" x2="620" y1="295" y2="295" /><line style="stroke: blue; stroke-width: 2;" x1="520" x2="520" y1="250" y2="250" /><line style="stroke: grey; stroke-width: 2;" x1="520" x2="520" y1="245" y2="370" /><line style="stroke: green; stroke-width: 2;" x1="520" x2="570" y1="320" y2="320" /><line style="stroke: blue; stroke-width: 2;" x1="470" x2="470" y1="250" y2="250" /><line style="stroke: grey; stroke-width: 2;" x1="470" x2="470" y1="245" y2="370" /><line style="stroke: green; stroke-width: 2;" x1="470" x2="520" y1="295" y2="295" /><line style="stroke: blue; stroke-width: 2;" x1="420" x2="420" y1="250" y2="250" /><line style="stroke: grey; stroke-width: 2;" x1="420" x2="420" y1="245" y2="370" /><line style="stroke: green; stroke-width: 2;" x1="420" x2="470" y1="320" y2="320" /><line style="stroke: blue; stroke-width: 2;" x1="370" x2="370" y1="250" y2="250" /><line style="stroke: grey; stroke-width: 2;" x1="370" x2="370" y1="245" y2="370" /><line style="stroke: green; stroke-width: 2;" x1="370" x2="420" y1="295" y2="295" /><line style="stroke: blue; stroke-width: 2;" x1="320" x2="320" y1="250" y2="250" /><line style="stroke: black; stroke-width: 1;" x1="320" x2="320" y1="245" y2="370" /><line style="stroke: green; stroke-width: 2;" x1="320" x2="370" y1="320" y2="320" /><line style="stroke: blue; stroke-width: 2;" x1="270" x2="270" y1="250" y2="250" /><line style="stroke: black; stroke-width: 1;" x1="270" x2="270" y1="245" y2="370" /><line style="stroke: green; stroke-width: 2;" x1="270" x2="320" y1="295" y2="295" /><line style="stroke: blue; stroke-width: 2;" x1="220" x2="220" y1="250" y2="250" /><line style="stroke: black; stroke-width: 1;" x1="220" x2="220" y1="245" y2="370" /><line style="stroke: green; stroke-width: 2;" x1="220" x2="270" y1="320" y2="320" /><line style="stroke: blue; stroke-width: 2;" x1="170" x2="170" y1="250" y2="250" /><line style="stroke: black; stroke-width: 1;" x1="170" x2="170" y1="245" y2="370" /><line style="stroke: green; stroke-width: 2;" x1="170" x2="220" y1="295" y2="295" /><line style="stroke: blue; stroke-width: 2;" x1="120" x2="120" y1="250" y2="250" /><line style="stroke: black; stroke-width: 1;" x1="120" x2="120" y1="245" y2="370" /><line style="stroke: green; stroke-width: 2;" x1="120" x2="170" y1="320" y2="320" /><line style="stroke: blue; stroke-width: 2;" x1="70" x2="70" y1="250" y2="250" /><line style="stroke: black; stroke-width: 1;" x1="70" x2="70" y1="245" y2="370" /><line style="stroke: green; stroke-width: 2;" x1="70" x2="120" y1="295" y2="295" /><line style="stroke: blue; stroke-width: 2;" x1="20" x2="20" y1="250" y2="250" /><line style="stroke: grey; stroke-width: 2;" x1="1020" x2="1020" y1="45" y2="170" /><line style="stroke: green; stroke-width: 2;" x1="1000" x2="1100" y1="120" y2="120" /><line style="stroke: blue; stroke-width: 2;" x1="920" x2="920" y1="50" y2="50" /><line style="stroke: grey; stroke-width: 2;" x1="920" x2="920" y1="45" y2="170" /><line style="stroke: green; stroke-width: 2;" x1="900" x2="1000" y1="95" y2="95" /><line style="stroke: blue; stroke-width: 2;" x1="820" x2="820" y1="50" y2="50" /><line style="stroke: grey; stroke-width: 2;" x1="820" x2="820" y1="45" y2="170" /><line style="stroke: green; stroke-width: 2;" x1="800" x2="900" y1="120" y2="120" /><line style="stroke: blue; stroke-width: 2;" x1="720" x2="720" y1="50" y2="50" /><line style="stroke: grey; stroke-width: 2;" x1="720" x2="720" y1="45" y2="170" /><line style="stroke: green; stroke-width: 2;" x1="700" x2="800" y1="95" y2="95" /><line style="stroke: blue; stroke-width: 2;" x1="620" x2="620" y1="50" y2="50" /><line style="stroke: grey; stroke-width: 2;" x1="620" x2="620" y1="45" y2="170" /><line style="stroke: green; stroke-width: 2;" x1="600" x2="700" y1="120" y2="120" /><line style="stroke: blue; stroke-width: 2;" x1="520" x2="520" y1="50" y2="50" /><line style="stroke: grey; stroke-width: 2;" x1="520" x2="520" y1="45" y2="170" /><line style="stroke: green; stroke-width: 2;" x1="500" x2="600" y1="95" y2="95" /><line style="stroke: blue; stroke-width: 2;" x1="420" x2="420" y1="50" y2="50" /><line style="stroke: grey; stroke-width: 2;" x1="420" x2="420" y1="45" y2="170" /><line style="stroke: green; stroke-width: 2;" x1="400" x2="500" y1="120" y2="120" /><line style="stroke: blue; stroke-width: 2;" x1="320" x2="320" y1="50" y2="50" /><line style="stroke: grey; stroke-width: 2;" x1="320" x2="320" y1="45" y2="170" /><line style="stroke: green; stroke-width: 2;" x1="300" x2="400" y1="95" y2="95" /><line style="stroke: blue; stroke-width: 2;" x1="220" x2="220" y1="50" y2="50" /><line style="stroke: black; stroke-width: 1;" x1="220" x2="220" y1="45" y2="170" /><line style="stroke: green; stroke-width: 2;" x1="200" x2="300" y1="120" y2="120" /><line style="stroke: blue; stroke-width: 2;" x1="120" x2="120" y1="50" y2="50" /><line style="stroke: black; stroke-width: 1;" x1="120" x2="120" y1="45" y2="170" /><line style="stroke: green; stroke-width: 2;" x1="100" x2="200" y1="95" y2="95" /><line style="stroke: blue; stroke-width: 2;" x1="20" x2="20" y1="50" y2="50" /><svg style="font: bold 18px sans-serif;" x="13" y="-5"><text style="font: bold 18px sans-serif;" text-anchor="middle"><tspan x="137" y="30">TASK: LETtask_2   Period: 10</tspan></text></svg><svg style="" x="-13" y="17"><text style="" text-anchor="middle"><tspan x="33" y="30">RI</tspan></text></svg><circle cx="20" cy="50" id="Rmin_LETtask_2,1" r="4" style="fill: blue; stroke: blue; stroke-width: 2;" /><circle cx="20" cy="50" id="Rmax_LETtask_2,1" r="4" style="fill: blue; stroke: blue; stroke-width: 2;" /><svg style="" x="117" y="63"><text style="" text-anchor="middle"><tspan x="33" y="30">DI</tspan></text></svg><circle cx="100" cy="95" id="Dmin_LETtask_2,1" r="4" style="fill: green; stroke: green; stroke-width: 2;" /><circle cx="200" cy="95" id="Dmax_LETtask_2,1" r="4" style="fill: white; stroke: green; stroke-width: 2;" /><svg id="" x="51" y="141"><circle cx="19" cy="19" r="18" style="fill: white; stroke: black; stroke-width: 2;" /><text style="stroke-width: 0;" text-anchor="middle"><tspan x="19" y="24">1</tspan></text></svg><svg style="" x="87" y="17"><text style="" text-anchor="middle"><tspan x="33" y="30">RI</tspan></text></svg><circle cx="120" cy="50" id="Rmin_LETtask_2,2" r="4" style="fill: blue; stroke: blue; stroke-width: 2;" /><circle cx="120" cy="50" id="Rmax_LETtask_2,2" r="4" style="fill: blue; stroke: blue; stroke-width: 2;" /><svg style="" x="217" y="88"><text style="" text-anchor="middle"><tspan x="33" y="30">DI</tspan></text></svg><circle cx="200" cy="120" id="Dmin_LETtask_2,2" r="4" style="fill: green; stroke: green; stroke-width: 2;" /><circle cx="300" cy="120" id="Dmax_LETtask_2,2" r="4" style="fill: white; stroke: green; stroke-width: 2;" /><svg id="" x="151" y="141"><circle cx="19" cy="19" r="18" style="fill: white; stroke: black; stroke-width: 2;" /><text style="stroke-width: 0;" text-anchor="middle"><tspan x="19" y="24">2</tspan></text></svg><svg style="" x="187" y="17"><text style="" text-anchor="middle"><tspan x="33" y="30">RI</tspan></text></svg><circle cx="220" cy="50" id="Rmin_LETtask_2,3" r="4" style="fill: blue; stroke: blue; stroke-width: 2;" /><circle cx="220" cy="50" id="Rmax_LETtask_2,3" r="4" style="fill: blue; stroke: blue; stroke-width: 2;" /><svg style="" x="317" y="63"><text style="" text-anchor="middle"><tspan x="33" y="30">DI</tspan></text></svg><circle cx="300" cy="95" id="Dmin_LETtask_2,3" r="4" style="fill: green; stroke: green; stroke-width: 2;" /><circle cx="400" cy="95" id="Dmax_LETtask_2,3" r="4" style="fill: white; stroke: green; stroke-width: 2;" /><svg id="" x="251" y="141"><circle cx="19" cy="19" r="18" style="fill: white; stroke: black; stroke-width: 2;" /><text style="stroke-width: 0;" text-anchor="middle"><tspan x="19" y="24">3</tspan></text></svg><svg style="" x="287" y="17"><text style="" text-anchor="middle"><tspan x="33" y="30">RI</tspan></text></svg><circle cx="320" cy="50" id="Rmin_LETtask_2,4" r="4" style="fill: blue; stroke: blue; stroke-width: 2;" /><circle cx="320" cy="50" id="Rmax_LETtask_2,4" r="4" style="fill: blue; stroke: blue; stroke-width: 2;" /><svg style="" x="417" y="88"><text style="" text-anchor="middle"><tspan x="33" y="30">DI</tspan></text></svg><circle cx="400" cy="120" id="Dmin_LETtask_2,4" r="4" style="fill: green; stroke: green; stroke-width: 2;" /><circle cx="500" cy="120" id="Dmax_LETtask_2,4" r="4" style="fill: white; stroke: green; stroke-width: 2;" /><svg id="" x="351" y="141"><circle cx="19" cy="19" r="18" style="fill: white; stroke: black; stroke-width: 2;" /><text style="stroke-width: 0;" text-anchor="middle"><tspan x="19" y="24">4</tspan></text></svg><svg style="" x="387" y="17"><text style="" text-anchor="middle"><tspan x="33" y="30">RI</tspan></text></svg><circle cx="420" cy="50" id="Rmin_LETtask_2,5" r="4" style="fill: blue; stroke: blue; stroke-width: 2;" /><circle cx="420" cy="50" id="Rmax_LETtask_2,5" r="4" style="fill: blue; stroke: blue; stroke-width: 2;" /><svg style="" x="517" y="63"><text style="" text-anchor="middle"><tspan x="33" y="30">DI</tspan></text></svg><circle cx="500" cy="95" id="Dmin_LETtask_2,5" r="4" style="fill: green; stroke: green; stroke-width: 2;" /><circle cx="600" cy="95" id="Dmax_LETtask_2,5" r="4" style="fill: white; stroke: green; stroke-width: 2;" /><svg id="" x="451" y="141"><circle cx="19" cy="19" r="18" style="fill: white; stroke: black; stroke-width: 2;" /><text style="stroke-width: 0;" text-anchor="middle"><tspan x="19" y="24">5</tspan></text></svg><svg style="" x="487" y="17"><text style="" text-anchor="middle"><tspan x="33" y="30">RI</tspan></text></svg><circle cx="520" cy="50" id="Rmin_LETtask_2,6" r="4" style="fill: blue; stroke: blue; stroke-width: 2;" /><circle cx="520" cy="50" id="Rmax_LETtask_2,6" r="4" style="fill: blue; stroke: blue; stroke-width: 2;" /><svg style="" x="617" y="88"><text style="" text-anchor="middle"><tspan x="33" y="30">DI</tspan></text></svg><circle cx="600" cy="120" id="Dmin_LETtask_2,6" r="4" style="fill: green; stroke: green; stroke-width: 2;" /><circle cx="700" cy="120" id="Dmax_LETtask_2,6" r="4" style="fill: white; stroke: green; stroke-width: 2;" /><svg id="" x="551" y="141"><circle cx="19" cy="19" r="18" style="fill: white; stroke: black; stroke-width: 2;" /><text style="stroke-width: 0;" text-anchor="middle"><tspan x="19" y="24">6</tspan></text></svg><svg style="" x="587" y="17"><text style="" text-anchor="middle"><tspan x="33" y="30">RI</tspan></text></svg><circle cx="620" cy="50" id="Rmin_LETtask_2,7" r="4" style="fill: blue; stroke: blue; stroke-width: 2;" /><circle cx="620" cy="50" id="Rmax_LETtask_2,7" r="4" style="fill: blue; stroke: blue; stroke-width: 2;" /><svg style="" x="717" y="63"><text style="" text-anchor="middle"><tspan x="33" y="30">DI</tspan></text></svg><circle cx="700" cy="95" id="Dmin_LETtask_2,7" r="4" style="fill: green; stroke: green; stroke-width: 2;" /><circle cx="800" cy="95" id="Dmax_LETtask_2,7" r="4" style="fill: white; stroke: green; stroke-width: 2;" /><svg id="" x="651" y="141"><circle cx="19" cy="19" r="18" style="fill: white; stroke: black; stroke-width: 2;" /><text style="stroke-width: 0;" text-anchor="middle"><tspan x="19" y="24">7</tspan></text></svg><svg style="" x="687" y="17"><text style="" text-anchor="middle"><tspan x="33" y="30">RI</tspan></text></svg><circle cx="720" cy="50" id="Rmin_LETtask_2,8" r="4" style="fill: blue; stroke: blue; stroke-width: 2;" /><circle cx="720" cy="50" id="Rmax_LETtask_2,8" r="4" style="fill: blue; stroke: blue; stroke-width: 2;" /><svg style="" x="817" y="88"><text style="" text-anchor="middle"><tspan x="33" y="30">DI</tspan></text></svg><circle cx="800" cy="120" id="Dmin_LETtask_2,8" r="4" style="fill: green; stroke: green; stroke-width: 2;" /><circle cx="900" cy="120" id="Dmax_LETtask_2,8" r="4" style="fill: white; stroke: green; stroke-width: 2;" /><svg id="" x="751" y="141"><circle cx="19" cy="19" r="18" style="fill: white; stroke: black; stroke-width: 2;" /><text style="stroke-width: 0;" text-anchor="middle"><tspan x="19" y="24">8</tspan></text></svg><svg style="" x="787" y="17"><text style="" text-anchor="middle"><tspan x="33" y="30">RI</tspan></text></svg><circle cx="820" cy="50" id="Rmin_LETtask_2,9" r="4" style="fill: blue; stroke: blue; stroke-width: 2;" /><circle cx="820" cy="50" id="Rmax_LETtask_2,9" r="4" style="fill: blue; stroke: blue; stroke-width: 2;" /><svg style="" x="917" y="63"><text style="" text-anchor="middle"><tspan x="33" y="30">DI</tspan></text></svg><circle cx="900" cy="95" id="Dmin_LETtask_2,9" r="4" style="fill: green; stroke: green; stroke-width: 2;" /><circle cx="1000" cy="95" id="Dmax_LETtask_2,9" r="4" style="fill: white; stroke: green; stroke-width: 2;" /><svg id="" x="851" y="141"><circle cx="19" cy="19" r="18" style="fill: white; stroke: black; stroke-width: 2;" /><text style="stroke-width: 0;" text-anchor="middle"><tspan x="19" y="24">9</tspan></text></svg><svg style="" x="887" y="17"><text style="" text-anchor="middle"><tspan x="33" y="30">RI</tspan></text></svg><circle cx="920" cy="50" id="Rmin_LETtask_2,10" r="4" style="fill: blue; stroke: blue; stroke-width: 2;" /><circle cx="920" cy="50" id="Rmax_LETtask_2,10" r="4" style="fill: blue; stroke: blue; stroke-width: 2;" /><svg style="" x="1017" y="88"><text style="" text-anchor="middle"><tspan x="33" y="30">DI</tspan></text></svg><circle cx="1000" cy="120" id="Dmin_LETtask_2,10" r="4" style="fill: green; stroke: green; stroke-width: 2;" /><circle cx="1100" cy="120" id="Dmax_LETtask_2,10" r="4" style="fill: white; stroke: green; stroke-width: 2;" /><svg id="" x="947" y="137"><circle cx="23" cy="23" r="22" style="fill: white; stroke: black; stroke-width: 2;" /><text style="stroke-width: 0;" text-anchor="middle"><tspan x="23" y="28">10</tspan></text></svg><svg style="font: bold 18px sans-serif;" x="17" y="195"><text style="font: bold 18px sans-serif;" text-anchor="middle"><tspan x="133" y="30">TASK: LETtask_1   Period: 5</tspan></text></svg><svg style="" x="-13" y="217"><text style="" text-anchor="middle"><tspan x="33" y="30">RI</tspan></text></svg><circle cx="20" cy="250" id="Rmin_LETtask_1,1" r="4" style="fill: blue; stroke: blue; stroke-width: 2;" /><circle cx="20" cy="250" id="Rmax_LETtask_1,1" r="4" style="fill: blue; stroke: blue; stroke-width: 2;" /><svg style="" x="57" y="263"><text style="" text-anchor="middle"><tspan x="33" y="30">DI</tspan></text></svg><circle cx="70" cy="295" id="Dmin_LETtask_1,1" r="4" style="fill: green; stroke: green; stroke-width: 2;" /><circle cx="120" cy="295" id="Dmax_LETtask_1,1" r="4" style="fill: white; stroke: green; stroke-width: 2;" /><svg id="" x="21" y="341"><circle cx="19" cy="19" r="18" style="fill: white; stroke: black; stroke-width: 2;" /><text style="stroke-width: 0;" text-anchor="middle"><tspan x="19" y="24">1</tspan></text></svg><svg style="" x="37" y="217"><text style="" text-anchor="middle"><tspan x="33" y="30">RI</tspan></text></svg><circle cx="70" cy="250" id="Rmin_LETtask_1,2" r="4" style="fill: blue; stroke: blue; stroke-width: 2;" /><circle cx="70" cy="250" id="Rmax_LETtask_1,2" r="4" style="fill: blue; stroke: blue; stroke-width: 2;" /><svg style="" x="107" y="288"><text style="" text-anchor="middle"><tspan x="33" y="30">DI</tspan></text></svg><circle cx="120" cy="320" id="Dmin_LETtask_1,2" r="4" style="fill: green; stroke: green; stroke-width: 2;" /><circle cx="170" cy="320" id="Dmax_LETtask_1,2" r="4" style="fill: white; stroke: green; stroke-width: 2;" /><svg id="" x="71" y="341"><circle cx="19" cy="19" r="18" style="fill: white; stroke: black; stroke-width: 2;" /><text style="stroke-width: 0;" text-anchor="middle"><tspan x="19" y="24">2</tspan></text></svg><svg style="" x="87" y="217"><text style="" text-anchor="middle"><tspan x="33" y="30">RI</tspan></text></svg><circle cx="120" cy="250" id="Rmin_LETtask_1,3" r="4" style="fill: blue; stroke: blue; stroke-width: 2;" /><circle cx="120" cy="250" id="Rmax_LETtask_1,3" r="4" style="fill: blue; stroke: blue; stroke-width: 2;" /><svg style="" x="157" y="263"><text style="" text-anchor="middle"><tspan x="33" y="30">DI</tspan></text></svg><circle cx="170" cy="295" id="Dmin_LETtask_1,3" r="4" style="fill: green; stroke: green; stroke-width: 2;" /><circle cx="220" cy="295" id="Dmax_LETtask_1,3" r="4" style="fill: white; stroke: green; stroke-width: 2;" /><svg id="" x="121" y="341"><circle cx="19" cy="19" r="18" style="fill: white; stroke: black; stroke-width: 2;" /><text style="stroke-width: 0;" text-anchor="middle"><tspan x="19" y="24">3</tspan></text></svg><svg style="" x="137" y="217"><text style="" text-anchor="middle"><tspan x="33" y="30">RI</tspan></text></svg><circle cx="170" cy="250" id="Rmin_LETtask_1,4" r="4" style="fill: blue; stroke: blue; stroke-width: 2;" /><circle cx="170" cy="250" id="Rmax_LETtask_1,4" r="4" style="fill: blue; stroke: blue; stroke-width: 2;" /><svg style="" x="207" y="288"><text style="" text-anchor="middle"><tspan x="33" y="30">DI</tspan></text></svg><circle cx="220" cy="320" id="Dmin_LETtask_1,4" r="4" style="fill: green; stroke: green; stroke-width: 2;" /><circle cx="270" cy="320" id="Dmax_LETtask_1,4" r="4" style="fill: white; stroke: green; stroke-width: 2;" /><svg id="" x="171" y="341"><circle cx="19" cy="19" r="18" style="fill: white; stroke: black; stroke-width: 2;" /><text style="stroke-width: 0;" text-anchor="middle"><tspan x="19" y="24">4</tspan></text></svg><svg style="" x="187" y="217"><text style="" text-anchor="middle"><tspan x="33" y="30">RI</tspan></text></svg><circle cx="220" cy="250" id="Rmin_LETtask_1,5" r="4" style="fill: blue; stroke: blue; stroke-width: 2;" /><circle cx="220" cy="250" id="Rmax_LETtask_1,5" r="4" style="fill: blue; stroke: blue; stroke-width: 2;" /><svg style="" x="257" y="263"><text style="" text-anchor="middle"><tspan x="33" y="30">DI</tspan></text></svg><circle cx="270" cy="295" id="Dmin_LETtask_1,5" r="4" style="fill: green; stroke: green; stroke-width: 2;" /><circle cx="320" cy="295" id="Dmax_LETtask_1,5" r="4" style="fill: white; stroke: green; stroke-width: 2;" /><svg id="" x="221" y="341"><circle cx="19" cy="19" r="18" style="fill: white; stroke: black; stroke-width: 2;" /><text style="stroke-width: 0;" text-anchor="middle"><tspan x="19" y="24">5</tspan></text></svg><svg style="" x="237" y="217"><text style="" text-anchor="middle"><tspan x="33" y="30">RI</tspan></text></svg><circle cx="270" cy="250" id="Rmin_LETtask_1,6" r="4" style="fill: blue; stroke: blue; stroke-width: 2;" /><circle cx="270" cy="250" id="Rmax_LETtask_1,6" r="4" style="fill: blue; stroke: blue; stroke-width: 2;" /><svg style="" x="307" y="288"><text style="" text-anchor="middle"><tspan x="33" y="30">DI</tspan></text></svg><circle cx="320" cy="320" id="Dmin_LETtask_1,6" r="4" style="fill: green; stroke: green; stroke-width: 2;" /><circle cx="370" cy="320" id="Dmax_LETtask_1,6" r="4" style="fill: white; stroke: green; stroke-width: 2;" /><svg id="" x="271" y="341"><circle cx="19" cy="19" r="18" style="fill: white; stroke: black; stroke-width: 2;" /><text style="stroke-width: 0;" text-anchor="middle"><tspan x="19" y="24">6</tspan></text></svg><svg style="" x="287" y="217"><text style="" text-anchor="middle"><tspan x="33" y="30">RI</tspan></text></svg><circle cx="320" cy="250" id="Rmin_LETtask_1,7" r="4" style="fill: blue; stroke: blue; stroke-width: 2;" /><circle cx="320" cy="250" id="Rmax_LETtask_1,7" r="4" style="fill: blue; stroke: blue; stroke-width: 2;" /><svg style="" x="357" y="263"><text style="" text-anchor="middle"><tspan x="33" y="30">DI</tspan></text></svg><circle cx="370" cy="295" id="Dmin_LETtask_1,7" r="4" style="fill: green; stroke: green; stroke-width: 2;" /><circle cx="420" cy="295" id="Dmax_LETtask_1,7" r="4" style="fill: white; stroke: green; stroke-width: 2;" /><svg id="" x="321" y="341"><circle cx="19" cy="19" r="18" style="fill: white; stroke: black; stroke-width: 2;" /><text style="stroke-width: 0;" text-anchor="middle"><tspan x="19" y="24">7</tspan></text></svg><svg style="" x="337" y="217"><text style="" text-anchor="middle"><tspan x="33" y="30">RI</tspan></text></svg><circle cx="370" cy="250" id="Rmin_LETtask_1,8" r="4" style="fill: blue; stroke: blue; stroke-width: 2;" /><circle cx="370" cy="250" id="Rmax_LETtask_1,8" r="4" style="fill: blue; stroke: blue; stroke-width: 2;" /><svg style="" x="407" y="288"><text style="" text-anchor="middle"><tspan x="33" y="30">DI</tspan></text></svg><circle cx="420" cy="320" id="Dmin_LETtask_1,8" r="4" style="fill: green; stroke: green; stroke-width: 2;" /><circle cx="470" cy="320" id="Dmax_LETtask_1,8" r="4" style="fill: white; stroke: green; stroke-width: 2;" /><svg id="" x="371" y="341"><circle cx="19" cy="19" r="18" style="fill: white; stroke: black; stroke-width: 2;" /><text style="stroke-width: 0;" text-anchor="middle"><tspan x="19" y="24">8</tspan></text></svg><svg style="" x="387" y="217"><text style="" text-anchor="middle"><tspan x="33" y="30">RI</tspan></text></svg><circle cx="420" cy="250" id="Rmin_LETtask_1,9" r="4" style="fill: blue; stroke: blue; stroke-width: 2;" /><circle cx="420" cy="250" id="Rmax_LETtask_1,9" r="4" style="fill: blue; stroke: blue; stroke-width: 2;" /><svg style="" x="457" y="263"><text style="" text-anchor="middle"><tspan x="33" y="30">DI</tspan></text></svg><circle cx="470" cy="295" id="Dmin_LETtask_1,9" r="4" style="fill: green; stroke: green; stroke-width: 2;" /><circle cx="520" cy="295" id="Dmax_LETtask_1,9" r="4" style="fill: white; stroke: green; stroke-width: 2;" /><svg id="" x="421" y="341"><circle cx="19" cy="19" r="18" style="fill: white; stroke: black; stroke-width: 2;" /><text style="stroke-width: 0;" text-anchor="middle"><tspan x="19" y="24">9</tspan></text></svg><svg style="" x="437" y="217"><text style="" text-anchor="middle"><tspan x="33" y="30">RI</tspan></text></svg><circle cx="470" cy="250" id="Rmin_LETtask_1,10" r="4" style="fill: blue; stroke: blue; stroke-width: 2;" /><circle cx="470" cy="250" id="Rmax_LETtask_1,10" r="4" style="fill: blue; stroke: blue; stroke-width: 2;" /><svg style="" x="507" y="288"><text style="" text-anchor="middle"><tspan x="33" y="30">DI</tspan></text></svg><circle cx="520" cy="320" id="Dmin_LETtask_1,10" r="4" style="fill: green; stroke: green; stroke-width: 2;" /><circle cx="570" cy="320" id="Dmax_LETtask_1,10" r="4" style="fill: white; stroke: green; stroke-width: 2;" /><svg id="" x="467" y="337"><circle cx="23" cy="23" r="22" style="fill: white; stroke: black; stroke-width: 2;" /><text style="stroke-width: 0;" text-anchor="middle"><tspan x="23" y="28">10</tspan></text></svg><svg style="" x="487" y="217"><text style="" text-anchor="middle"><tspan x="33" y="30">RI</tspan></text></svg><circle cx="520" cy="250" id="Rmin_LETtask_1,11" r="4" style="fill: blue; stroke: blue; stroke-width: 2;" /><circle cx="520" cy="250" id="Rmax_LETtask_1,11" r="4" style="fill: blue; stroke: blue; stroke-width: 2;" /><svg style="" x="557" y="263"><text style="" text-anchor="middle"><tspan x="33" y="30">DI</tspan></text></svg><circle cx="570" cy="295" id="Dmin_LETtask_1,11" r="4" style="fill: green; stroke: green; stroke-width: 2;" /><circle cx="620" cy="295" id="Dmax_LETtask_1,11" r="4" style="fill: white; stroke: green; stroke-width: 2;" /><svg id="" x="517" y="337"><circle cx="23" cy="23" r="22" style="fill: white; stroke: black; stroke-width: 2;" /><text style="stroke-width: 0;" text-anchor="middle"><tspan x="23" y="28">11</tspan></text></svg><svg style="" x="537" y="217"><text style="" text-anchor="middle"><tspan x="33" y="30">RI</tspan></text></svg><circle cx="570" cy="250" id="Rmin_LETtask_1,12" r="4" style="fill: blue; stroke: blue; stroke-width: 2;" /><circle cx="570" cy="250" id="Rmax_LETtask_1,12" r="4" style="fill: blue; stroke: blue; stroke-width: 2;" /><svg style="" x="607" y="288"><text style="" text-anchor="middle"><tspan x="33" y="30">DI</tspan></text></svg><circle cx="620" cy="320" id="Dmin_LETtask_1,12" r="4" style="fill: green; stroke: green; stroke-width: 2;" /><circle cx="670" cy="320" id="Dmax_LETtask_1,12" r="4" style="fill: white; stroke: green; stroke-width: 2;" /><svg id="" x="567" y="337"><circle cx="23" cy="23" r="22" style="fill: white; stroke: black; stroke-width: 2;" /><text style="stroke-width: 0;" text-anchor="middle"><tspan x="23" y="28">12</tspan></text></svg><svg style="" x="587" y="217"><text style="" text-anchor="middle"><tspan x="33" y="30">RI</tspan></text></svg><circle cx="620" cy="250" id="Rmin_LETtask_1,13" r="4" style="fill: blue; stroke: blue; stroke-width: 2;" /><circle cx="620" cy="250" id="Rmax_LETtask_1,13" r="4" style="fill: blue; stroke: blue; stroke-width: 2;" /><svg style="" x="657" y="263"><text style="" text-anchor="middle"><tspan x="33" y="30">DI</tspan></text></svg><circle cx="670" cy="295" id="Dmin_LETtask_1,13" r="4" style="fill: green; stroke: green; stroke-width: 2;" /><circle cx="720" cy="295" id="Dmax_LETtask_1,13" r="4" style="fill: white; stroke: green; stroke-width: 2;" /><svg id="" x="617" y="337"><circle cx="23" cy="23" r="22" style="fill: white; stroke: black; stroke-width: 2;" /><text style="stroke-width: 0;" text-anchor="middle"><tspan x="23" y="28">13</tspan></text></svg><svg style="" x="637" y="217"><text style="" text-anchor="middle"><tspan x="33" y="30">RI</tspan></text></svg><circle cx="670" cy="250" id="Rmin_LETtask_1,14" r="4" style="fill: blue; stroke: blue; stroke-width: 2;" /><circle cx="670" cy="250" id="Rmax_LETtask_1,14" r="4" style="fill: blue; stroke: blue; stroke-width: 2;" /><svg style="" x="707" y="288"><text style="" text-anchor="middle"><tspan x="33" y="30">DI</tspan></text></svg><circle cx="720" cy="320" id="Dmin_LETtask_1,14" r="4" style="fill: green; stroke: green; stroke-width: 2;" /><circle cx="770" cy="320" id="Dmax_LETtask_1,14" r="4" style="fill: white; stroke: green; stroke-width: 2;" /><svg id="" x="667" y="337"><circle cx="23" cy="23" r="22" style="fill: white; stroke: black; stroke-width: 2;" /><text style="stroke-width: 0;" text-anchor="middle"><tspan x="23" y="28">14</tspan></text></svg><svg style="" x="687" y="217"><text style="" text-anchor="middle"><tspan x="33" y="30">RI</tspan></text></svg><circle cx="720" cy="250" id="Rmin_LETtask_1,15" r="4" style="fill: blue; stroke: blue; stroke-width: 2;" /><circle cx="720" cy="250" id="Rmax_LETtask_1,15" r="4" style="fill: blue; stroke: blue; stroke-width: 2;" /><svg style="" x="757" y="263"><text style="" text-anchor="middle"><tspan x="33" y="30">DI</tspan></text></svg><circle cx="770" cy="295" id="Dmin_LETtask_1,15" r="4" style="fill: green; stroke: green; stroke-width: 2;" /><circle cx="820" cy="295" id="Dmax_LETtask_1,15" r="4" style="fill: white; stroke: green; stroke-width: 2;" /><svg id="" x="717" y="337"><circle cx="23" cy="23" r="22" style="fill: white; stroke: black; stroke-width: 2;" /><text style="stroke-width: 0;" text-anchor="middle"><tspan x="23" y="28">15</tspan></text></svg><svg style="" x="737" y="217"><text style="" text-anchor="middle"><tspan x="33" y="30">RI</tspan></text></svg><circle cx="770" cy="250" id="Rmin_LETtask_1,16" r="4" style="fill: blue; stroke: blue; stroke-width: 2;" /><circle cx="770" cy="250" id="Rmax_LETtask_1,16" r="4" style="fill: blue; stroke: blue; stroke-width: 2;" /><svg style="" x="807" y="288"><text style="" text-anchor="middle"><tspan x="33" y="30">DI</tspan></text></svg><circle cx="820" cy="320" id="Dmin_LETtask_1,16" r="4" style="fill: green; stroke: green; stroke-width: 2;" /><circle cx="870" cy="320" id="Dmax_LETtask_1,16" r="4" style="fill: white; stroke: green; stroke-width: 2;" /><svg id="" x="767" y="337"><circle cx="23" cy="23" r="22" style="fill: white; stroke: black; stroke-width: 2;" /><text style="stroke-width: 0;" text-anchor="middle"><tspan x="23" y="28">16</tspan></text></svg><svg style="" x="787" y="217"><text style="" text-anchor="middle"><tspan x="33" y="30">RI</tspan></text></svg><circle cx="820" cy="250" id="Rmin_LETtask_1,17" r="4" style="fill: blue; stroke: blue; stroke-width: 2;" /><circle cx="820" cy="250" id="Rmax_LETtask_1,17" r="4" style="fill: blue; stroke: blue; stroke-width: 2;" /><svg style="" x="857" y="263"><text style="" text-anchor="middle"><tspan x="33" y="30">DI</tspan></text></svg><circle cx="870" cy="295" id="Dmin_LETtask_1,17" r="4" style="fill: green; stroke: green; stroke-width: 2;" /><circle cx="920" cy="295" id="Dmax_LETtask_1,17" r="4" style="fill: white; stroke: green; stroke-width: 2;" /><svg id="" x="817" y="337"><circle cx="23" cy="23" r="22" style="fill: white; stroke: black; stroke-width: 2;" /><text style="stroke-width: 0;" text-anchor="middle"><tspan x="23" y="28">17</tspan></text></svg><svg style="" x="837" y="217"><text style="" text-anchor="middle"><tspan x="33" y="30">RI</tspan></text></svg><circle cx="870" cy="250" id="Rmin_LETtask_1,18" r="4" style="fill: blue; stroke: blue; stroke-width: 2;" /><circle cx="870" cy="250" id="Rmax_LETtask_1,18" r="4" style="fill: blue; stroke: blue; stroke-width: 2;" /><svg style="" x="907" y="288"><text style="" text-anchor="middle"><tspan x="33" y="30">DI</tspan></text></svg><circle cx="920" cy="320" id="Dmin_LETtask_1,18" r="4" style="fill: green; stroke: green; stroke-width: 2;" /><circle cx="970" cy="320" id="Dmax_LETtask_1,18" r="4" style="fill: white; stroke: green; stroke-width: 2;" /><svg id="" x="867" y="337"><circle cx="23" cy="23" r="22" style="fill: white; stroke: black; stroke-width: 2;" /><text style="stroke-width: 0;" text-anchor="middle"><tspan x="23" y="28">18</tspan></text></svg><svg style="" x="887" y="217"><text style="" text-anchor="middle"><tspan x="33" y="30">RI</tspan></text></svg><circle cx="920" cy="250" id="Rmin_LETtask_1,19" r="4" style="fill: blue; stroke: blue; stroke-width: 2;" /><circle cx="920" cy="250" id="Rmax_LETtask_1,19" r="4" style="fill: blue; stroke: blue; stroke-width: 2;" /><svg style="" x="957" y="263"><text style="" text-anchor="middle"><tspan x="33" y="30">DI</tspan></text></svg><circle cx="970" cy="295" id="Dmin_LETtask_1,19" r="4" style="fill: green; stroke: green; stroke-width: 2;" /><circle cx="1020" cy="295" id="Dmax_LETtask_1,19" r="4" style="fill: white; stroke: green; stroke-width: 2;" /><svg id="" x="917" y="337"><circle cx="23" cy="23" r="22" style="fill: white; stroke: black; stroke-width: 2;" /><text style="stroke-width: 0;" text-anchor="middle"><tspan x="23" y="28">19</tspan></text></svg><svg style="" x="937" y="217"><text style="" text-anchor="middle"><tspan x="33" y="30">RI</tspan></text></svg><circle cx="970" cy="250" id="Rmin_LETtask_1,20" r="4" style="fill: blue; stroke: blue; stroke-width: 2;" /><circle cx="970" cy="250" id="Rmax_LETtask_1,20" r="4" style="fill: blue; stroke: blue; stroke-width: 2;" /><svg style="" x="1007" y="288"><text style="" text-anchor="middle"><tspan x="33" y="30">DI</tspan></text></svg><circle cx="1020" cy="320" id="Dmin_LETtask_1,20" r="4" style="fill: green; stroke: green; stroke-width: 2;" /><circle cx="1070" cy="320" id="Dmax_LETtask_1,20" r="4" style="fill: white; stroke: green; stroke-width: 2;" /><svg id="" x="967" y="337"><circle cx="23" cy="23" r="22" style="fill: white; stroke: black; stroke-width: 2;" /><text style="stroke-width: 0;" text-anchor="middle"><tspan x="23" y="28">20</tspan></text></svg><svg style="font: bold 18px sans-serif;" x="13" y="395"><text style="font: bold 18px sans-serif;" text-anchor="middle"><tspan x="137" y="30">TASK: LETtask_4   Period: 20</tspan></text></svg><svg style="" x="7" y="417"><text style="" text-anchor="middle"><tspan x="33" y="30">RI</tspan></text></svg><circle cx="40" cy="450" id="Rmin_LETtask_4,1" r="4" style="fill: blue; stroke: blue; stroke-width: 2;" /><circle cx="40" cy="450" id="Rmax_LETtask_4,1" r="4" style="fill: blue; stroke: blue; stroke-width: 2;" /><svg style="" x="287" y="463"><text style="" text-anchor="middle"><tspan x="33" y="30">DI</tspan></text></svg><circle cx="220" cy="495" id="Dmin_LETtask_4,1" r="4" style="fill: green; stroke: green; stroke-width: 2;" /><circle cx="420" cy="495" id="Dmax_LETtask_4,1" r="4" style="fill: white; stroke: green; stroke-width: 2;" /><svg id="" x="101" y="541"><circle cx="19" cy="19" r="18" style="fill: white; stroke: black; stroke-width: 2;" /><text style="stroke-width: 0;" text-anchor="middle"><tspan x="19" y="24">1</tspan></text></svg><svg style="" x="207" y="417"><text style="" text-anchor="middle"><tspan x="33" y="30">RI</tspan></text></svg><circle cx="240" cy="450" id="Rmin_LETtask_4,2" r="4" style="fill: blue; stroke: blue; stroke-width: 2;" /><circle cx="240" cy="450" id="Rmax_LETtask_4,2" r="4" style="fill: blue; stroke: blue; stroke-width: 2;" /><svg style="" x="487" y="488"><text style="" text-anchor="middle"><tspan x="33" y="30">DI</tspan></text></svg><circle cx="420" cy="520" id="Dmin_LETtask_4,2" r="4" style="fill: green; stroke: green; stroke-width: 2;" /><circle cx="620" cy="520" id="Dmax_LETtask_4,2" r="4" style="fill: white; stroke: green; stroke-width: 2;" /><svg id="" x="301" y="541"><circle cx="19" cy="19" r="18" style="fill: white; stroke: black; stroke-width: 2;" /><text style="stroke-width: 0;" text-anchor="middle"><tspan x="19" y="24">2</tspan></text></svg><svg style="" x="407" y="417"><text style="" text-anchor="middle"><tspan x="33" y="30">RI</tspan></text></svg><circle cx="440" cy="450" id="Rmin_LETtask_4,3" r="4" style="fill: blue; stroke: blue; stroke-width: 2;" /><circle cx="440" cy="450" id="Rmax_LETtask_4,3" r="4" style="fill: blue; stroke: blue; stroke-width: 2;" /><svg style="" x="687" y="463"><text style="" text-anchor="middle"><tspan x="33" y="30">DI</tspan></text></svg><circle cx="620" cy="495" id="Dmin_LETtask_4,3" r="4" style="fill: green; stroke: green; stroke-width: 2;" /><circle cx="820" cy="495" id="Dmax_LETtask_4,3" r="4" style="fill: white; stroke: green; stroke-width: 2;" /><svg id="" x="501" y="541"><circle cx="19" cy="19" r="18" style="fill: white; stroke: black; stroke-width: 2;" /><text style="stroke-width: 0;" text-anchor="middle"><tspan x="19" y="24">3</tspan></text></svg><svg style="" x="607" y="417"><text style="" text-anchor="middle"><tspan x="33" y="30">RI</tspan></text></svg><circle cx="640" cy="450" id="Rmin_LETtask_4,4" r="4" style="fill: blue; stroke: blue; stroke-width: 2;" /><circle cx="640" cy="450" id="Rmax_LETtask_4,4" r="4" style="fill: blue; stroke: blue; stroke-width: 2;" /><svg style="" x="887" y="488"><text style="" text-anchor="middle"><tspan x="33" y="30">DI</tspan></text></svg><circle cx="820" cy="520" id="Dmin_LETtask_4,4" r="4" style="fill: green; stroke: green; stroke-width: 2;" /><circle cx="1020" cy="520" id="Dmax_LETtask_4,4" r="4" style="fill: white; stroke: green; stroke-width: 2;" /><svg id="" x="701" y="541"><circle cx="19" cy="19" r="18" style="fill: white; stroke: black; stroke-width: 2;" /><text style="stroke-width: 0;" text-anchor="middle"><tspan x="19" y="24">4</tspan></text></svg><svg style="" x="807" y="417"><text style="" text-anchor="middle"><tspan x="33" y="30">RI</tspan></text></svg><circle cx="840" cy="450" id="Rmin_LETtask_4,5" r="4" style="fill: blue; stroke: blue; stroke-width: 2;" /><circle cx="840" cy="450" id="Rmax_LETtask_4,5" r="4" style="fill: blue; stroke: blue; stroke-width: 2;" /><svg style="" x="1087" y="463"><text style="" text-anchor="middle"><tspan x="33" y="30">DI</tspan></text></svg><circle cx="1020" cy="495" id="Dmin_LETtask_4,5" r="4" style="fill: green; stroke: green; stroke-width: 2;" /><circle cx="1220" cy="495" id="Dmax_LETtask_4,5" r="4" style="fill: white; stroke: green; stroke-width: 2;" /><svg id="" x="901" y="541"><circle cx="19" cy="19" r="18" style="fill: white; stroke: black; stroke-width: 2;" /><text style="stroke-width: 0;" text-anchor="middle"><tspan x="19" y="24">5</tspan></text></svg><svg style="" x="-9" y="650"><text style="" text-anchor="middle"><tspan x="29" y="30">0</tspan></text></svg><svg style="" x="87" y="650"><text style="" text-anchor="middle"><tspan x="33" y="30">10</tspan></text></svg><svg style="fill: white; stroke: black; stroke-width: 2;" x="187" y="650"><ellipse cx="33" cy="25" rx="32" ry="20" style="fill: white; stroke: black; stroke-width: 2;" /><text style="stroke-width: 0; fill: black;" text-anchor="middle"><tspan x="33" y="30">HP</tspan></text></svg><svg style="" x="287" y="650"><text style="" text-anchor="middle"><tspan x="33" y="30">30</tspan></text></svg><svg style="fill: white; stroke: black; stroke-width: 2;" x="387" y="650"><ellipse cx="33" cy="25" rx="32" ry="20" style="fill: white; stroke: black; stroke-width: 2;" /><text style="stroke-width: 0; fill: black;" text-anchor="middle"><tspan x="33" y="30">HP</tspan></text></svg><svg style="" x="487" y="650"><text style="" text-anchor="middle"><tspan x="33" y="30">50</tspan></text></svg><svg style="fill: white; stroke: black; stroke-width: 2;" x="587" y="650"><ellipse cx="33" cy="25" rx="32" ry="20" style="fill: white; stroke: black; stroke-width: 2;" /><text style="stroke-width: 0; fill: black;" text-anchor="middle"><tspan x="33" y="30">HP</tspan></text></svg><svg style="" x="687" y="650"><text style="" text-anchor="middle"><tspan x="33" y="30">70</tspan></text></svg><svg style="fill: white; stroke: black; stroke-width: 2;" x="787" y="650"><ellipse cx="33" cy="25" rx="32" ry="20" style="fill: white; stroke: black; stroke-width: 2;" /><text style="stroke-width: 0; fill: black;" text-anchor="middle"><tspan x="33" y="30">HP</tspan></text></svg><svg style="" x="887" y="650"><text style="" text-anchor="middle"><tspan x="33" y="30">90</tspan></text></svg><rect height="650" style="fill:white;" width="50" x="1000" y="0" /><svg style="" x="971" y="650"><text style="" text-anchor="middle"><tspan x="29" y="30">t</tspan></text></svg><polygon name="" points="1000,642 1000,658 1020,650" style="" /><svg style="fill: red;" x="165" y="165"><text style="fill: red;" text-anchor="middle"><tspan x="45" y="30">RM: 2</tspan></text></svg><svg style="fill: red;" x="306" y="365"><text style="fill: red;" text-anchor="middle"><tspan x="49" y="30">RM: 17</tspan></text></svg><svg style="fill: white; stroke: black; stroke-width: 2;" x="41" y="575"><ellipse cx="89" cy="25" rx="88" ry="20" style="fill: white; stroke: black; stroke-width: 2;" /><text style="stroke-width: 0; fill: black;" text-anchor="middle"><tspan x="89" y="30">Max Data Age: 22</tspan></text></svg></svg>