<svg height="440" version="1.1" width="720" xmlns="http://www.w3.org/2000/svg"><line style="stroke: orange; stroke-width: 4;" x1="597.0" x2="672.0" y1="240" y2="340" /><line style="stroke: orange; stroke-width: 4;" x1="397.0" x2="597.0" y1="140" y2="240" /><line style="stroke: orange; stroke-width: 4;" x1="288.007810594" x2="413.007810594" y1="40" y2="140" /><line style="stroke: orange; stroke-width: 4;" x1="547.0" x2="572.0" y1="240" y2="340" /><line style="stroke: orange; stroke-width: 4;" x1="397.0" x2="547.0" y1="140" y2="240" /><line style="stroke: orange; stroke-width: 4;" x1="280.003905297" x2="405.003905297" y1="40" y2="140" /><line style="stroke: orange; stroke-width: 4;" x1="497.0" x2="572.0" y1="240" y2="340" /><line style="stroke: orange; stroke-width: 4;" x1="397.0" x2="497.0" y1="140" y2="240" /><line style="stroke: orange; stroke-width: 4;" x1="272.0" x2="397.0" y1="40" y2="140" /><line style="stroke: orange; stroke-width: 4;" x1="452.153882032" x2="477.153882032" y1="240" y2="340" /><line style="stroke: orange; stroke-width: 4;" x1="397.0" x2="447.0" y1="140" y2="240" /><line style="stroke: orange; stroke-width: 4;" x1="263.996094703" x2="388.996094703" y1="40" y2="140" /><line style="stroke: orange; stroke-width: 4;" x1="403.25" x2="478.25" y1="240" y2="340" /><line style="stroke: orange; stroke-width: 4;" x1="397.0" x2="397.0" y1="140" y2="240" /><line style="stroke: orange; stroke-width: 4;" x1="255.992189406" x2="380.992189406" y1="40" y2="140" /><line style="stroke: green; stroke-width: 4;" x1="447.0" x2="472.0" y1="240" y2="340" /><line style="stroke: green; stroke-width: 4;" x1="247.0" x2="447.0" y1="140" y2="240" /><line style="stroke: green; stroke-width: 4;" x1="184.5" x2="259.5" y1="40" y2="140" /><line style="stroke: green; stroke-width: 4;" x1="397.0" x2="472.0" y1="240" y2="340" /><line style="stroke: green; stroke-width: 4;" x1="247.0" x2="397.0" y1="140" y2="240" /><line style="stroke: green; stroke-width: 4;" x1="178.25" x2="253.25" y1="40" y2="140" /><line style="stroke: green; stroke-width: 4;" x1="347.0" x2="372.0" y1="240" y2="340" /><line style="stroke: green; stroke-width: 4;" x1="247.0" x2="347.0" y1="140" y2="240" /><line style="stroke: green; stroke-width: 4;" x1="172.0" x2="247.0" y1="40" y2="140" /><line style="stroke: green; stroke-width: 4;" x1="297.0" x2="372.0" y1="240" y2="340" /><line style="stroke: green; stroke-width: 4;" x1="247.0" x2="297.0" y1="140" y2="240" /><line style="stroke: green; stroke-width: 4;" x1="165.75" x2="240.75" y1="40" y2="140" /><line style="stroke: green; stroke-width: 4;" x1="247.0" x2="272.0" y1="240" y2="340" /><line style="stroke: green; stroke-width: 4;" x1="247.0" x2="247.0" y1="140" y2="240" /><line style="stroke: green; stroke-width: 4;" x1="159.5" x2="234.5" y1="40" y2="140" /><line style="stroke: red; stroke-width: 4;" x1="441.846117968" x2="466.846117968" y1="240" y2="340" /><line style="stroke: red; stroke-width: 4;" x1="235.819660113" x2="435.819660113" y1="140" y2="240" /><line style="stroke: red; stroke-width: 4;" x1="92.1556443707" x2="267.155644371" y1="40" y2="140" /><line style="stroke: red; stroke-width: 4;" x1="390.75" x2="465.75" y1="240" y2="340" /><line style="stroke: red; stroke-width: 4;" x1="237.986121811" x2="387.986121811" y1="140" y2="240" /><line style="stroke: red; stroke-width: 4;" x1="82.0778221854" x2="257.077822185" y1="40" y2="140" /><line style="stroke: red; stroke-width: 4;" x1="341.846117968" x2="366.846117968" y1="240" y2="340" /><line style="stroke: red; stroke-width: 4;" x1="239.928932188" x2="339.928932188" y1="140" y2="240" /><line style="stroke: red; stroke-width: 4;" x1="72.0" x2="247.0" y1="40" y2="140" /><line style="stroke: red; stroke-width: 4;" x1="290.75" x2="365.75" y1="240" y2="340" /><line style="stroke: red; stroke-width: 4;" x1="241.409830056" x2="291.409830056" y1="140" y2="240" /><line style="stroke: red; stroke-width: 4;" x1="61.9221778146" x2="236.922177815" y1="40" y2="140" /><line style="stroke: red; stroke-width: 4;" x1="241.846117968" x2="266.846117968" y1="240" y2="340" /><line style="stroke: red; stroke-width: 4;" x1="242.0" x2="242.0" y1="140" y2="240" /><line style="stroke: red; stroke-width: 4;" x1="51.8443556293" x2="226.844355629" y1="40" y2="140" /><line style="stroke: black; stroke-width: 2;" x1="320" x2="320" y1="10" y2="350.0" /><svg style="" x="287" y="335.0"><text style="" text-anchor="middle"><tspan x="33" y="30">HP</tspan></text></svg><svg id="LET_T1,1" x="51.0" y="21"><circle cx="19" cy="19" r="18" style="fill: white; stroke: black; stroke-width: 2;" /><text style="stroke-width: 0;" text-anchor="middle"><tspan x="19" y="24">1</tspan></text></svg><svg id="LET_T5,2" x="226.0" y="121"><circle cx="19" cy="19" r="18" style="fill: white; stroke: black; stroke-width: 2;" /><text style="stroke-width: 0;" text-anchor="middle"><tspan x="19" y="24">2</tspan></text></svg><svg id="LET_T7,5" x="226.0" y="221"><circle cx="19" cy="19" r="18" style="fill: white; stroke: black; stroke-width: 2;" /><text style="stroke-width: 0;" text-anchor="middle"><tspan x="19" y="24">5</tspan></text></svg><svg id="LET_T9,3" x="251.0" y="321"><circle cx="19" cy="19" r="18" style="fill: white; stroke: black; stroke-width: 2;" /><text style="stroke-width: 0;" text-anchor="middle"><tspan x="19" y="24">3</tspan></text></svg><svg id="LET_T7,6" x="276.0" y="221"><circle cx="19" cy="19" r="18" style="fill: white; stroke: black; stroke-width: 2;" /><text style="stroke-width: 0;" text-anchor="middle"><tspan x="19" y="24">6</tspan></text></svg><svg id="LET_T9,4" x="351.0" y="321"><circle cx="19" cy="19" r="18" style="fill: white; stroke: black; stroke-width: 2;" /><text style="stroke-width: 0;" text-anchor="middle"><tspan x="19" y="24">4</tspan></text></svg><svg id="LET_T7,7" x="326.0" y="221"><circle cx="19" cy="19" r="18" style="fill: white; stroke: black; stroke-width: 2;" /><text style="stroke-width: 0;" text-anchor="middle"><tspan x="19" y="24">7</tspan></text></svg><svg id="LET_T7,8" x="376.0" y="221"><circle cx="19" cy="19" r="18" style="fill: white; stroke: black; stroke-width: 2;" /><text style="stroke-width: 0;" text-anchor="middle"><tspan x="19" y="24">8</tspan></text></svg><svg id="LET_T9,5" x="451.0" y="321"><circle cx="19" cy="19" r="18" style="fill: white; stroke: black; stroke-width: 2;" /><text style="stroke-width: 0;" text-anchor="middle"><tspan x="19" y="24">5</tspan></text></svg><svg id="LET_T7,9" x="426.0" y="221"><circle cx="19" cy="19" r="18" style="fill: white; stroke: black; stroke-width: 2;" /><text style="stroke-width: 0;" text-anchor="middle"><tspan x="19" y="24">9</tspan></text></svg><svg id="LET_T1,2" x="151.0" y="21"><circle cx="19" cy="19" r="18" style="fill: white; stroke: black; stroke-width: 2;" /><text style="stroke-width: 0;" text-anchor="middle"><tspan x="19" y="24">2</tspan></text></svg><svg id="LET_T1,3" x="251.0" y="21"><circle cx="19" cy="19" r="18" style="fill: white; stroke: black; stroke-width: 2;" /><text style="stroke-width: 0;" text-anchor="middle"><tspan x="19" y="24">3</tspan></text></svg><svg id="LET_T5,3" x="376.0" y="121"><circle cx="19" cy="19" r="18" style="fill: white; stroke: black; stroke-width: 2;" /><text style="stroke-width: 0;" text-anchor="middle"><tspan x="19" y="24">3</tspan></text></svg><svg id="LET_T7,10" x="472.0" y="217"><circle cx="23" cy="23" r="22" style="fill: white; stroke: black; stroke-width: 2;" /><text style="stroke-width: 0;" text-anchor="middle"><tspan x="23" y="28">10</tspan></text></svg><svg id="LET_T9,6" x="551.0" y="321"><circle cx="19" cy="19" r="18" style="fill: white; stroke: black; stroke-width: 2;" /><text style="stroke-width: 0;" text-anchor="middle"><tspan x="19" y="24">6</tspan></text></svg><svg id="LET_T7,11" x="522.0" y="217"><circle cx="23" cy="23" r="22" style="fill: white; stroke: black; stroke-width: 2;" /><text style="stroke-width: 0;" text-anchor="middle"><tspan x="23" y="28">11</tspan></text></svg><svg id="LET_T7,12" x="572.0" y="217"><circle cx="23" cy="23" r="22" style="fill: white; stroke: black; stroke-width: 2;" /><text style="stroke-width: 0;" text-anchor="middle"><tspan x="23" y="28">12</tspan></text></svg><svg id="LET_T9,7" x="651.0" y="321"><circle cx="19" cy="19" r="18" style="fill: white; stroke: black; stroke-width: 2;" /><text style="stroke-width: 0;" text-anchor="middle"><tspan x="19" y="24">7</tspan></text></svg></svg>