<svg height="500" version="1.1" width="1040" xmlns="http://www.w3.org/2000/svg"><rect height="500" style="fill:white;" width="1040" x="0" y="0" /><polygon name="dependency_polygon" points="70, 50 220, 95 220, 250 270, 320 270, 450 490, 450 490, 320 340, 250 340, 95 70, 50 " style="fill:#F5DA81; stroke:none; opacity:1;" /><polygon name="max_data_age" points="70, 50 70, 450 390, 450 390, 320 340, 250 340, 95 70, 50 " style="fill:black; stroke:none; opacity:0.3;" /><line style="stroke: black; stroke-width: 2;" x1="390" x2="390" y1="380" y2="420" /><line style="stroke: black; stroke-width: 2;" x1="70" x2="70" y1="380" y2="420" /><line style="stroke: black; stroke-width: 2;" x1="70" x2="390" y1="400" y2="400" /><line style="stroke: black; stroke-width: 2;" x1="970" x2="970" y1="450" y2="455" /><line style="stroke: black; stroke-width: 2;" x1="920" x2="920" y1="450" y2="460" /><line style="stroke: black; stroke-width: 2;" x1="870" x2="870" y1="450" y2="455" /><line style="stroke: black; stroke-width: 3;" x1="820" x2="820" y1="470" y2="40" /><line style="stroke: black; stroke-width: 2;" x1="770" x2="770" y1="450" y2="455" /><line style="stroke: black; stroke-width: 2;" x1="720" x2="720" y1="450" y2="460" /><line style="stroke: black; stroke-width: 2;" x1="670" x2="670" y1="450" y2="455" /><line style="stroke: black; stroke-width: 3;" x1="620" x2="620" y1="470" y2="40" /><line style="stroke: black; stroke-width: 2;" x1="570" x2="570" y1="450" y2="455" /><line style="stroke: black; stroke-width: 2;" x1="520" x2="520" y1="450" y2="460" /><line style="stroke: black; stroke-width: 2;" x1="470" x2="470" y1="450" y2="455" /><line style="stroke: black; stroke-width: 3;" x1="420" x2="420" y1="470" y2="40" /><line style="stroke: black; stroke-width: 2;" x1="370" x2="370" y1="450" y2="455" /><line style="stroke: black; stroke-width: 2;" x1="320" x2="320" y1="450" y2="460" /><line style="stroke: black; stroke-width: 2;" x1="270" x2="270" y1="450" y2="455" /><line style="stroke: black; stroke-width: 3;" x1="220" x2="220" y1="470" y2="40" /><line style="stroke: black; stroke-width: 2;" x1="170" x2="170" y1="450" y2="455" /><line style="stroke: black; stroke-width: 2;" x1="120" x2="120" y1="450" y2="460" /><line style="stroke: black; stroke-width: 2;" x1="70" x2="70" y1="450" y2="455" /><line style="stroke: black; stroke-width: 2;" x1="20" x2="20" y1="450" y2="460" /><line style="stroke: black; stroke-width: 3;" x1="20" x2="20" y1="450" y2="40" /><line style="stroke: black; stroke-width: 3;" x1="20" x2="1000" y1="450" y2="450" /><line style="stroke: grey; stroke-width: 2;" x1="1020" x2="1020" y1="245" y2="370" /><line style="stroke: green; stroke-width: 2;" x1="940" x2="1090" y1="320" y2="320" /><line style="stroke: blue; stroke-width: 2;" x1="940" x2="940" y1="250" y2="250" /><line style="stroke: grey; stroke-width: 2;" x1="920" x2="920" y1="245" y2="370" /><line style="stroke: green; stroke-width: 2;" x1="840" x2="990" y1="295" y2="295" /><line style="stroke: blue; stroke-width: 2;" x1="840" x2="840" y1="250" y2="250" /><line style="stroke: grey; stroke-width: 2;" x1="820" x2="820" y1="245" y2="370" /><line style="stroke: green; stroke-width: 2;" x1="740" x2="890" y1="320" y2="320" /><line style="stroke: blue; stroke-width: 2;" x1="740" x2="740" y1="250" y2="250" /><line style="stroke: grey; stroke-width: 2;" x1="720" x2="720" y1="245" y2="370" /><line style="stroke: green; stroke-width: 2;" x1="640" x2="790" y1="295" y2="295" /><line style="stroke: blue; stroke-width: 2;" x1="640" x2="640" y1="250" y2="250" /><line style="stroke: grey; stroke-width: 2;" x1="620" x2="620" y1="245" y2="370" /><line style="stroke: green; stroke-width: 2;" x1="540" x2="690" y1="320" y2="320" /><line style="stroke: blue; stroke-width: 2;" x1="540" x2="540" y1="250" y2="250" /><line style="stroke: grey; stroke-width: 2;" x1="520" x2="520" y1="245" y2="370" /><line style="stroke: green; stroke-width: 2;" x1="440" x2="590" y1="295" y2="295" /><line style="stroke: blue; stroke-width: 2;" x1="440" x2="440" y1="250" y2="250" /><line style="stroke: black; stroke-width: 1;" x1="420" x2="420" y1="245" y2="370" /><line style="stroke: green; stroke-width: 2;" x1="340" x2="490" y1="320" y2="320" /><line style="stroke: blue; stroke-width: 2;" x1="340" x2="340" y1="250" y2="250" /><line style="stroke: black; stroke-width: 1;" x1="320" x2="320" y1="245" y2="370" /><line style="stroke: green; stroke-width: 2;" x1="240" x2="390" y1="295" y2="295" /><line style="stroke: blue; stroke-width: 2;" x1="240" x2="240" y1="250" y2="250" /><line style="stroke: black; stroke-width: 1;" x1="220" x2="220" y1="245" y2="370" /><line style="stroke: green; stroke-width: 2;" x1="140" x2="290" y1="320" y2="320" /><line style="stroke: blue; stroke-width: 2;" x1="140" x2="140" y1="250" y2="250" /><line style="stroke: black; stroke-width: 1;" x1="120" x2="120" y1="245" y2="370" /><line style="stroke: green; stroke-width: 2;" x1="40" x2="190" y1="295" y2="295" /><line style="stroke: blue; stroke-width: 2;" x1="40" x2="40" y1="250" y2="250" /><line style="stroke: grey; stroke-width: 2;" x1="1020" x2="1020" y1="45" y2="170" /><line style="stroke: green; stroke-width: 2;" x1="870" x2="1220" y1="95" y2="95" /><line style="stroke: blue; stroke-width: 2;" x1="870" x2="870" y1="50" y2="50" /><line style="stroke: grey; stroke-width: 2;" x1="820" x2="820" y1="45" y2="170" /><line style="stroke: green; stroke-width: 2;" x1="670" x2="1020" y1="120" y2="120" /><line style="stroke: blue; stroke-width: 2;" x1="670" x2="670" y1="50" y2="50" /><line style="stroke: grey; stroke-width: 2;" x1="620" x2="620" y1="45" y2="170" /><line style="stroke: green; stroke-width: 2;" x1="470" x2="820" y1="95" y2="95" /><line style="stroke: blue; stroke-width: 2;" x1="470" x2="470" y1="50" y2="50" /><line style="stroke: grey; stroke-width: 2;" x1="420" x2="420" y1="45" y2="170" /><line style="stroke: green; stroke-width: 2;" x1="270" x2="620" y1="120" y2="120" /><line style="stroke: blue; stroke-width: 2;" x1="270" x2="270" y1="50" y2="50" /><line style="stroke: black; stroke-width: 1;" x1="220" x2="220" y1="45" y2="170" /><line style="stroke: green; stroke-width: 2;" x1="70" x2="420" y1="95" y2="95" /><line style="stroke: blue; stroke-width: 2;" x1="70" x2="70" y1="50" y2="50" /><svg style="font: bold 18px sans-serif;" x="25" y="-5"><text style="font: bold 18px sans-serif;" text-anchor="middle"><tspan x="125" y="30">TASK: LET_T4   Period: 20</tspan></text></svg><svg style="" x="37" y="17"><text style="" text-anchor="middle"><tspan x="33" y="30">RI</tspan></text></svg><circle cx="70" cy="50" id="Rmin_LET_T4,1" r="4" style="fill: blue; stroke: blue; stroke-width: 2;" /><circle cx="70" cy="50" id="Rmax_LET_T4,1" r="4" style="fill: blue; stroke: blue; stroke-width: 2;" /><svg style="" x="207" y="63"><text style="" text-anchor="middle"><tspan x="33" y="30">DI</tspan></text></svg><circle cx="70" cy="95" id="Dmin_LET_T4,1" r="4" style="fill: green; stroke: green; stroke-width: 2;" /><circle cx="420" cy="95" id="Dmax_LET_T4,1" r="4" style="fill: white; stroke: green; stroke-width: 2;" /><svg id="" x="101" y="141"><circle cx="19" cy="19" r="18" style="fill: white; stroke: black; stroke-width: 2;" /><text style="stroke-width: 0;" text-anchor="middle"><tspan x="19" y="24">1</tspan></text></svg><svg style="" x="237" y="17"><text style="" text-anchor="middle"><tspan x="33" y="30">RI</tspan></text></svg><circle cx="270" cy="50" id="Rmin_LET_T4,2" r="4" style="fill: blue; stroke: blue; stroke-width: 2;" /><circle cx="270" cy="50" id="Rmax_LET_T4,2" r="4" style="fill: blue; stroke: blue; stroke-width: 2;" /><svg style="" x="407" y="88"><text style="" text-anchor="middle"><tspan x="33" y="30">DI</tspan></text></svg><circle cx="270" cy="120" id="Dmin_LET_T4,2" r="4" style="fill: green; stroke: green; stroke-width: 2;" /><circle cx="620" cy="120" id="Dmax_LET_T4,2" r="4" style="fill: white; stroke: green; stroke-width: 2;" /><svg id="" x="301" y="141"><circle cx="19" cy="19" r="18" style="fill: white; stroke: black; stroke-width: 2;" /><text style="stroke-width: 0;" text-anchor="middle"><tspan x="19" y="24">2</tspan></text></svg><svg style="" x="437" y="17"><text style="" text-anchor="middle"><tspan x="33" y="30">RI</tspan></text></svg><circle cx="470" cy="50" id="Rmin_LET_T4,3" r="4" style="fill: blue; stroke: blue; stroke-width: 2;" /><circle cx="470" cy="50" id="Rmax_LET_T4,3" r="4" style="fill: blue; stroke: blue; stroke-width: 2;" /><svg style="" x="607" y="63"><text style="" text-anchor="middle"><tspan x="33" y="30">DI</tspan></text></svg><circle cx="470" cy="95" id="Dmin_LET_T4,3" r="4" style="fill: green; stroke: green; stroke-width: 2;" /><circle cx="820" cy="95" id="Dmax_LET_T4,3" r="4" style="fill: white; stroke: green; stroke-width: 2;" /><svg id="" x="501" y="141"><circle cx="19" cy="19" r="18" style="fill: white; stroke: black; stroke-width: 2;" /><text style="stroke-width: 0;" text-anchor="middle"><tspan x="19" y="24">3</tspan></text></svg><svg style="" x="637" y="17"><text style="" text-anchor="middle"><tspan x="33" y="30">RI</tspan></text></svg><circle cx="670" cy="50" id="Rmin_LET_T4,4" r="4" style="fill: blue; stroke: blue; stroke-width: 2;" /><circle cx="670" cy="50" id="Rmax_LET_T4,4" r="4" style="fill: blue; stroke: blue; stroke-width: 2;" /><svg style="" x="807" y="88"><text style="" text-anchor="middle"><tspan x="33" y="30">DI</tspan></text></svg><circle cx="670" cy="120" id="Dmin_LET_T4,4" r="4" style="fill: green; stroke: green; stroke-width: 2;" /><circle cx="1020" cy="120" id="Dmax_LET_T4,4" r="4" style="fill: white; stroke: green; stroke-width: 2;" /><svg id="" x="701" y="141"><circle cx="19" cy="19" r="18" style="fill: white; stroke: black; stroke-width: 2;" /><text style="stroke-width: 0;" text-anchor="middle"><tspan x="19" y="24">4</tspan></text></svg><svg style="" x="837" y="17"><text style="" text-anchor="middle"><tspan x="33" y="30">RI</tspan></text></svg><circle cx="870" cy="50" id="Rmin_LET_T4,5" r="4" style="fill: blue; stroke: blue; stroke-width: 2;" /><circle cx="870" cy="50" id="Rmax_LET_T4,5" r="4" style="fill: blue; stroke: blue; stroke-width: 2;" /><svg style="" x="1007" y="63"><text style="" text-anchor="middle"><tspan x="33" y="30">DI</tspan></text></svg><circle cx="870" cy="95" id="Dmin_LET_T4,5" r="4" style="fill: green; stroke: green; stroke-width: 2;" /><circle cx="1220" cy="95" id="Dmax_LET_T4,5" r="4" style="fill: white; stroke: green; stroke-width: 2;" /><svg id="" x="901" y="141"><circle cx="19" cy="19" r="18" style="fill: white; stroke: black; stroke-width: 2;" /><text style="stroke-width: 0;" text-anchor="middle"><tspan x="19" y="24">5</tspan></text></svg><svg style="font: bold 18px sans-serif;" x="25" y="195"><text style="font: bold 18px sans-serif;" text-anchor="middle"><tspan x="125" y="30">TASK: LET_T1   Period: 10</tspan></text></svg><svg style="" x="7" y="217"><text style="" text-anchor="middle"><tspan x="33" y="30">RI</tspan></text></svg><circle cx="40" cy="250" id="Rmin_LET_T1,1" r="4" style="fill: blue; stroke: blue; stroke-width: 2;" /><circle cx="40" cy="250" id="Rmax_LET_T1,1" r="4" style="fill: blue; stroke: blue; stroke-width: 2;" /><svg style="" x="77" y="263"><text style="" text-anchor="middle"><tspan x="33" y="30">DI</tspan></text></svg><circle cx="40" cy="295" id="Dmin_LET_T1,1" r="4" style="fill: green; stroke: green; stroke-width: 2;" /><circle cx="190" cy="295" id="Dmax_LET_T1,1" r="4" style="fill: white; stroke: green; stroke-width: 2;" /><svg id="" x="51" y="341"><circle cx="19" cy="19" r="18" style="fill: white; stroke: black; stroke-width: 2;" /><text style="stroke-width: 0;" text-anchor="middle"><tspan x="19" y="24">1</tspan></text></svg><svg style="" x="107" y="217"><text style="" text-anchor="middle"><tspan x="33" y="30">RI</tspan></text></svg><circle cx="140" cy="250" id="Rmin_LET_T1,2" r="4" style="fill: blue; stroke: blue; stroke-width: 2;" /><circle cx="140" cy="250" id="Rmax_LET_T1,2" r="4" style="fill: blue; stroke: blue; stroke-width: 2;" /><svg style="" x="177" y="288"><text style="" text-anchor="middle"><tspan x="33" y="30">DI</tspan></text></svg><circle cx="140" cy="320" id="Dmin_LET_T1,2" r="4" style="fill: green; stroke: green; stroke-width: 2;" /><circle cx="290" cy="320" id="Dmax_LET_T1,2" r="4" style="fill: white; stroke: green; stroke-width: 2;" /><svg id="" x="151" y="341"><circle cx="19" cy="19" r="18" style="fill: white; stroke: black; stroke-width: 2;" /><text style="stroke-width: 0;" text-anchor="middle"><tspan x="19" y="24">2</tspan></text></svg><svg style="" x="207" y="217"><text style="" text-anchor="middle"><tspan x="33" y="30">RI</tspan></text></svg><circle cx="240" cy="250" id="Rmin_LET_T1,3" r="4" style="fill: blue; stroke: blue; stroke-width: 2;" /><circle cx="240" cy="250" id="Rmax_LET_T1,3" r="4" style="fill: blue; stroke: blue; stroke-width: 2;" /><svg style="" x="277" y="263"><text style="" text-anchor="middle"><tspan x="33" y="30">DI</tspan></text></svg><circle cx="240" cy="295" id="Dmin_LET_T1,3" r="4" style="fill: green; stroke: green; stroke-width: 2;" /><circle cx="390" cy="295" id="Dmax_LET_T1,3" r="4" style="fill: white; stroke: green; stroke-width: 2;" /><svg id="" x="251" y="341"><circle cx="19" cy="19" r="18" style="fill: white; stroke: black; stroke-width: 2;" /><text style="stroke-width: 0;" text-anchor="middle"><tspan x="19" y="24">3</tspan></text></svg><svg style="" x="307" y="217"><text style="" text-anchor="middle"><tspan x="33" y="30">RI</tspan></text></svg><circle cx="340" cy="250" id="Rmin_LET_T1,4" r="4" style="fill: blue; stroke: blue; stroke-width: 2;" /><circle cx="340" cy="250" id="Rmax_LET_T1,4" r="4" style="fill: blue; stroke: blue; stroke-width: 2;" /><svg style="" x="377" y="288"><text style="" text-anchor="middle"><tspan x="33" y="30">DI</tspan></text></svg><circle cx="340" cy="320" id="Dmin_LET_T1,4" r="4" style="fill: green; stroke: green; stroke-width: 2;" /><circle cx="490" cy="320" id="Dmax_LET_T1,4" r="4" style="fill: white; stroke: green; stroke-width: 2;" /><svg id="" x="351" y="341"><circle cx="19" cy="19" r="18" style="fill: white; stroke: black; stroke-width: 2;" /><text style="stroke-width: 0;" text-anchor="middle"><tspan x="19" y="24">4</tspan></text></svg><svg style="" x="407" y="217"><text style="" text-anchor="middle"><tspan x="33" y="30">RI</tspan></text></svg><circle cx="440" cy="250" id="Rmin_LET_T1,5" r="4" style="fill: blue; stroke: blue; stroke-width: 2;" /><circle cx="440" cy="250" id="Rmax_LET_T1,5" r="4" style="fill: blue; stroke: blue; stroke-width: 2;" /><svg style="" x="477" y="263"><text style="" text-anchor="middle"><tspan x="33" y="30">DI</tspan></text></svg><circle cx="440" cy="295" id="Dmin_LET_T1,5" r="4" style="fill: green; stroke: green; stroke-width: 2;" /><circle cx="590" cy="295" id="Dmax_LET_T1,5" r="4" style="fill: white; stroke: green; stroke-width: 2;" /><svg id="" x="451" y="341"><circle cx="19" cy="19" r="18" style="fill: white; stroke: black; stroke-width: 2;" /><text style="stroke-width: 0;" text-anchor="middle"><tspan x="19" y="24">5</tspan></text></svg><svg style="" x="507" y="217"><text style="" text-anchor="middle"><tspan x="33" y="30">RI</tspan></text></svg><circle cx="540" cy="250" id="Rmin_LET_T1,6" r="4" style="fill: blue; stroke: blue; stroke-width: 2;" /><circle cx="540" cy="250" id="Rmax_LET_T1,6" r="4" style="fill: blue; stroke: blue; stroke-width: 2;" /><svg style="" x="577" y="288"><text style="" text-anchor="middle"><tspan x="33" y="30">DI</tspan></text></svg><circle cx="540" cy="320" id="Dmin_LET_T1,6" r="4" style="fill: green; stroke: green; stroke-width: 2;" /><circle cx="690" cy="320" id="Dmax_LET_T1,6" r="4" style="fill: white; stroke: green; stroke-width: 2;" /><svg id="" x="551" y="341"><circle cx="19" cy="19" r="18" style="fill: white; stroke: black; stroke-width: 2;" /><text style="stroke-width: 0;" text-anchor="middle"><tspan x="19" y="24">6</tspan></text></svg><svg style="" x="607" y="217"><text style="" text-anchor="middle"><tspan x="33" y="30">RI</tspan></text></svg><circle cx="640" cy="250" id="Rmin_LET_T1,7" r="4" style="fill: blue; stroke: blue; stroke-width: 2;" /><circle cx="640" cy="250" id="Rmax_LET_T1,7" r="4" style="fill: blue; stroke: blue; stroke-width: 2;" /><svg style="" x="677" y="263"><text style="" text-anchor="middle"><tspan x="33" y="30">DI</tspan></text></svg><circle cx="640" cy="295" id="Dmin_LET_T1,7" r="4" style="fill: green; stroke: green; stroke-width: 2;" /><circle cx="790" cy="295" id="Dmax_LET_T1,7" r="4" style="fill: white; stroke: green; stroke-width: 2;" /><svg id="" x="651" y="341"><circle cx="19" cy="19" r="18" style="fill: white; stroke: black; stroke-width: 2;" /><text style="stroke-width: 0;" text-anchor="middle"><tspan x="19" y="24">7</tspan></text></svg><svg style="" x="707" y="217"><text style="" text-anchor="middle"><tspan x="33" y="30">RI</tspan></text></svg><circle cx="740" cy="250" id="Rmin_LET_T1,8" r="4" style="fill: blue; stroke: blue; stroke-width: 2;" /><circle cx="740" cy="250" id="Rmax_LET_T1,8" r="4" style="fill: blue; stroke: blue; stroke-width: 2;" /><svg style="" x="777" y="288"><text style="" text-anchor="middle"><tspan x="33" y="30">DI</tspan></text></svg><circle cx="740" cy="320" id="Dmin_LET_T1,8" r="4" style="fill: green; stroke: green; stroke-width: 2;" /><circle cx="890" cy="320" id="Dmax_LET_T1,8" r="4" style="fill: white; stroke: green; stroke-width: 2;" /><svg id="" x="751" y="341"><circle cx="19" cy="19" r="18" style="fill: white; stroke: black; stroke-width: 2;" /><text style="stroke-width: 0;" text-anchor="middle"><tspan x="19" y="24">8</tspan></text></svg><svg style="" x="807" y="217"><text style="" text-anchor="middle"><tspan x="33" y="30">RI</tspan></text></svg><circle cx="840" cy="250" id="Rmin_LET_T1,9" r="4" style="fill: blue; stroke: blue; stroke-width: 2;" /><circle cx="840" cy="250" id="Rmax_LET_T1,9" r="4" style="fill: blue; stroke: blue; stroke-width: 2;" /><svg style="" x="877" y="263"><text style="" text-anchor="middle"><tspan x="33" y="30">DI</tspan></text></svg><circle cx="840" cy="295" id="Dmin_LET_T1,9" r="4" style="fill: green; stroke: green; stroke-width: 2;" /><circle cx="990" cy="295" id="Dmax_LET_T1,9" r="4" style="fill: white; stroke: green; stroke-width: 2;" /><svg id="" x="851" y="341"><circle cx="19" cy="19" r="18" style="fill: white; stroke: black; stroke-width: 2;" /><text style="stroke-width: 0;" text-anchor="middle"><tspan x="19" y="24">9</tspan></text></svg><svg style="" x="907" y="217"><text style="" text-anchor="middle"><tspan x="33" y="30">RI</tspan></text></svg><circle cx="940" cy="250" id="Rmin_LET_T1,10" r="4" style="fill: blue; stroke: blue; stroke-width: 2;" /><circle cx="940" cy="250" id="Rmax_LET_T1,10" r="4" style="fill: blue; stroke: blue; stroke-width: 2;" /><svg style="" x="977" y="288"><text style="" text-anchor="middle"><tspan x="33" y="30">DI</tspan></text></svg><circle cx="940" cy="320" id="Dmin_LET_T1,10" r="4" style="fill: green; stroke: green; stroke-width: 2;" /><circle cx="1090" cy="320" id="Dmax_LET_T1,10" r="4" style="fill: white; stroke: green; stroke-width: 2;" /><svg id="" x="947" y="337"><circle cx="23" cy="23" r="22" style="fill: white; stroke: black; stroke-width: 2;" /><text style="stroke-width: 0;" text-anchor="middle"><tspan x="23" y="28">10</tspan></text></svg><svg style="" x="-9" y="450"><text style="" text-anchor="middle"><tspan x="29" y="30">0</tspan></text></svg><svg style="" x="87" y="450"><text style="" text-anchor="middle"><tspan x="33" y="30">10</tspan></text></svg><svg style="fill: white; stroke: black; stroke-width: 2;" x="187" y="450"><ellipse cx="33" cy="25" rx="32" ry="20" style="fill: white; stroke: black; stroke-width: 2;" /><text style="stroke-width: 0; fill: black;" text-anchor="middle"><tspan x="33" y="30">HP</tspan></text></svg><svg style="" x="287" y="450"><text style="" text-anchor="middle"><tspan x="33" y="30">30</tspan></text></svg><svg style="fill: white; stroke: black; stroke-width: 2;" x="387" y="450"><ellipse cx="33" cy="25" rx="32" ry="20" style="fill: white; stroke: black; stroke-width: 2;" /><text style="stroke-width: 0; fill: black;" text-anchor="middle"><tspan x="33" y="30">HP</tspan></text></svg><svg style="" x="487" y="450"><text style="" text-anchor="middle"><tspan x="33" y="30">50</tspan></text></svg><svg style="fill: white; stroke: black; stroke-width: 2;" x="587" y="450"><ellipse cx="33" cy="25" rx="32" ry="20" style="fill: white; stroke: black; stroke-width: 2;" /><text style="stroke-width: 0; fill: black;" text-anchor="middle"><tspan x="33" y="30">HP</tspan></text></svg><svg style="" x="687" y="450"><text style="" text-anchor="middle"><tspan x="33" y="30">70</tspan></text></svg><svg style="fill: white; stroke: black; stroke-width: 2;" x="787" y="450"><ellipse cx="33" cy="25" rx="32" ry="20" style="fill: white; stroke: black; stroke-width: 2;" /><text style="stroke-width: 0; fill: black;" text-anchor="middle"><tspan x="33" y="30">HP</tspan></text></svg><svg style="" x="887" y="450"><text style="" text-anchor="middle"><tspan x="33" y="30">90</tspan></text></svg><rect height="450" style="fill:white;" width="50" x="1000" y="0" /><svg style="" x="971" y="450"><text style="" text-anchor="middle"><tspan x="29" y="30">t</tspan></text></svg><polygon name="" points="1000,442 1000,458 1020,450" style="" /><svg style="fill: white; stroke: black; stroke-width: 2;" x="141" y="375"><ellipse cx="89" cy="25" rx="88" ry="20" style="fill: white; stroke: black; stroke-width: 2;" /><text style="stroke-width: 0; fill: black;" text-anchor="middle"><tspan x="89" y="30">Max Data Age: 32</tspan></text></svg></svg>