<svg height="1045.24655489" version="1.1" width="388.732414638" xmlns="http://www.w3.org/2000/svg"><polygon name="line_arrow" points="74,213,60,208,62,225" style="fill:#1bdf54" /><polygon name="line_arrow" points="78,198,64,194,67,210" style="fill:#1bdf54" /><polygon name="line_arrow" points="83,184,69,180,71,196" style="fill:#1bdf54" /><polygon name="line_arrow" points="88,170,73,165,76,182" style="fill:#1bdf54" /><polygon name="line_arrow" points="92,156,78,151,81,168" style="fill:#1bdf54" /><polygon name="line_arrow" points="97,141,83,137,85,153" style="fill:#1bdf54" /><polygon name="line_arrow" points="102,127,87,122,90,139" style="fill:#1bdf54" /><polygon name="line_arrow" points="106,113,92,108,94,125" style="fill:#1bdf54" /><polygon name="line_arrow" points="111,99,97,94,99,111" style="fill:#1bdf54" /><polygon name="line_arrow" points="116,84,101,80,104,96" style="fill:#1bdf54" /><polygon name="line_arrow" points="241,82,255,86,253,70" style="fill:#1bdf54" /><polygon name="line_arrow" points="236,96,251,101,248,84" style="fill:#1bdf54" /><polygon name="line_arrow" points="232,110,246,115,243,98" style="fill:#1bdf54" /><polygon name="line_arrow" points="227,124,241,129,239,112" style="fill:#1bdf54" /><polygon name="line_arrow" points="222,139,237,143,234,127" style="fill:#1bdf54" /><polygon name="line_arrow" points="218,153,232,158,230,141" style="fill:#1bdf54" /><polygon name="line_arrow" points="213,167,227,172,225,155" style="fill:#1bdf54" /><polygon name="line_arrow" points="208,181,223,186,220,170" style="fill:#1bdf54" /><polygon name="line_arrow" points="204,196,218,200,216,184" style="fill:#1bdf54" /><polygon name="line_arrow" points="199,210,213,215,211,198" style="fill:#1bdf54" /><polygon name="line_arrow" points="195,224,209,229,206,212" style="fill:#1bdf54" /><polygon name="line_arrow" points="190,239,204,243,202,227" style="fill:#1bdf54" /><polygon name="line_arrow" points="185,253,200,257,197,241" style="fill:#1bdf54" /><polygon name="line_arrow" points="181,267,195,272,192,255" style="fill:#1bdf54" /><polygon name="line_arrow" points="176,281,190,286,188,269" style="fill:#1bdf54" /><polygon name="line_arrow" points="171,296,186,300,183,284" style="fill:#1bdf54" /><polygon name="line_arrow" points="296,222,288,209,280,224" style="fill:#df1b1b" /><polygon name="line_arrow" points="284,230,276,218,268,233" style="fill:#df1b1b" /><polygon name="line_arrow" points="272,239,263,227,256,242" style="fill:#df1b1b" /><polygon name="line_arrow" points="260,248,251,236,244,251" style="fill:#df1b1b" /><polygon name="line_arrow" points="248,257,239,245,231,260" style="fill:#df1b1b" /><polygon name="line_arrow" points="236,266,227,253,219,268" style="fill:#df1b1b" /><polygon name="line_arrow" points="224,274,215,262,207,277" style="fill:#df1b1b" /><polygon name="line_arrow" points="212,283,203,271,195,286" style="fill:#df1b1b" /><polygon name="line_arrow" points="199,292,191,280,183,295" style="fill:#df1b1b" /><polygon name="line_arrow" points="187,301,178,289,171,304" style="fill:#df1b1b" /><polygon name="line_arrow" points="249,89,249,74,234,82" style="fill:#1bdf54" /><polygon name="line_arrow" points="234,89,234,74,219,82" style="fill:#1bdf54" /><polygon name="line_arrow" points="219,89,219,74,204,82" style="fill:#1bdf54" /><polygon name="line_arrow" points="204,89,204,74,189,82" style="fill:#1bdf54" /><polygon name="line_arrow" points="189,89,189,74,174,82" style="fill:#1bdf54" /><polygon name="line_arrow" points="174,89,174,74,159,82" style="fill:#1bdf54" /><polygon name="line_arrow" points="159,89,159,74,144,82" style="fill:#1bdf54" /><polygon name="line_arrow" points="144,89,144,74,129,82" style="fill:#1bdf54" /><polygon name="line_arrow" points="129,89,129,74,114,82" style="fill:#1bdf54" /><polygon name="line_arrow" points="114,89,114,74,99,82" style="fill:#1bdf54" /><svg id="LET_T1" x="140.049310978" y="259.415518297"><circle cx="39" cy="39" r="38" style="fill: #f18d8d; stroke: black; stroke-width: 3;" /><text style="stroke-width: 0;" text-anchor="middle"><tspan x="39" y="44">LET_T1</tspan></text></svg><svg id="LET_T4" x="253.573320274" y="176.935497594"><circle cx="39" cy="39" r="38" style="fill: #8df1aa; stroke: black; stroke-width: 3;" /><text style="stroke-width: 0;" text-anchor="middle"><tspan x="39" y="44">LET_T4</tspan></text></svg><svg id="LET_T5" x="210.211007263" y="43.4800207033"><circle cx="39" cy="39" r="38" style="fill: #f1d08d; stroke: black; stroke-width: 3;" /><text style="stroke-width: 0;" text-anchor="middle"><tspan x="39" y="44">LET_T5</tspan></text></svg><svg id="LET_T7" x="69.8876146942" y="43.4800207033"><circle cx="39" cy="39" r="38" style="fill: #f18de6; stroke: black; stroke-width: 3;" /><text style="stroke-width: 0;" text-anchor="middle"><tspan x="39" y="44">LET_T7</tspan></text></svg><svg id="LET_T9" x="26.5253016823" y="176.935497594"><circle cx="39" cy="39" r="38" style="fill: #f7f687; stroke: black; stroke-width: 3;" /><text style="stroke-width: 0;" text-anchor="middle"><tspan x="39" y="44">LET_T9</tspan></text></svg></svg>