<svg height="440" version="1.1" width="620" xmlns="http://www.w3.org/2000/svg"><line style="stroke: red; stroke-width: 4;" x1="497.0" x2="572.0" y1="240" y2="340" /><line style="stroke: red; stroke-width: 4;" x1="397.0" x2="497.0" y1="140" y2="240" /><line style="stroke: red; stroke-width: 4;" x1="304.071067812" x2="404.071067812" y1="40" y2="140" /><line style="stroke: red; stroke-width: 4;" x1="447.0" x2="472.0" y1="240" y2="340" /><line style="stroke: red; stroke-width: 4;" x1="397.0" x2="447.0" y1="140" y2="240" /><line style="stroke: red; stroke-width: 4;" x1="297.0" x2="397.0" y1="40" y2="140" /><line style="stroke: red; stroke-width: 4;" x1="397.0" x2="472.0" y1="240" y2="340" /><line style="stroke: red; stroke-width: 4;" x1="397.0" x2="397.0" y1="140" y2="240" /><line style="stroke: red; stroke-width: 4;" x1="289.928932188" x2="389.928932188" y1="40" y2="140" /><line style="stroke: blue; stroke-width: 4;" x1="347.0" x2="372.0" y1="240" y2="340" /><line style="stroke: blue; stroke-width: 4;" x1="247.0" x2="347.0" y1="140" y2="240" /><line style="stroke: blue; stroke-width: 4;" x1="202.590169944" x2="252.590169944" y1="40" y2="140" /><line style="stroke: blue; stroke-width: 4;" x1="297.0" x2="372.0" y1="240" y2="340" /><line style="stroke: blue; stroke-width: 4;" x1="247.0" x2="297.0" y1="140" y2="240" /><line style="stroke: blue; stroke-width: 4;" x1="197.0" x2="247.0" y1="40" y2="140" /><line style="stroke: blue; stroke-width: 4;" x1="247.0" x2="272.0" y1="240" y2="340" /><line style="stroke: blue; stroke-width: 4;" x1="247.0" x2="247.0" y1="140" y2="240" /><line style="stroke: blue; stroke-width: 4;" x1="191.409830056" x2="241.409830056" y1="40" y2="140" /><line style="stroke: orange; stroke-width: 4;" x1="341.846117968" x2="366.846117968" y1="240" y2="340" /><line style="stroke: orange; stroke-width: 4;" x1="239.928932188" x2="339.928932188" y1="140" y2="240" /><line style="stroke: orange; stroke-width: 4;" x1="154.071067812" x2="254.071067812" y1="40" y2="140" /><line style="stroke: orange; stroke-width: 4;" x1="290.75" x2="365.75" y1="240" y2="340" /><line style="stroke: orange; stroke-width: 4;" x1="241.409830056" x2="291.409830056" y1="140" y2="240" /><line style="stroke: orange; stroke-width: 4;" x1="147.0" x2="247.0" y1="40" y2="140" /><line style="stroke: orange; stroke-width: 4;" x1="241.846117968" x2="266.846117968" y1="240" y2="340" /><line style="stroke: orange; stroke-width: 4;" x1="242.0" x2="242.0" y1="140" y2="240" /><line style="stroke: orange; stroke-width: 4;" x1="139.928932188" x2="239.928932188" y1="40" y2="140" /><line style="stroke: red; stroke-width: 4;" x1="197.0" x2="272.0" y1="240" y2="340" /><line style="stroke: red; stroke-width: 4;" x1="97.0" x2="197.0" y1="140" y2="240" /><line style="stroke: red; stroke-width: 4;" x1="52.5901699437" x2="102.590169944" y1="40" y2="140" /><line style="stroke: red; stroke-width: 4;" x1="147.0" x2="172.0" y1="240" y2="340" /><line style="stroke: red; stroke-width: 4;" x1="97.0" x2="147.0" y1="140" y2="240" /><line style="stroke: red; stroke-width: 4;" x1="47.0" x2="97.0" y1="40" y2="140" /><line style="stroke: red; stroke-width: 4;" x1="97.0" x2="172.0" y1="240" y2="340" /><line style="stroke: red; stroke-width: 4;" x1="97.0" x2="97.0" y1="140" y2="240" /><line style="stroke: red; stroke-width: 4;" x1="41.4098300563" x2="91.4098300563" y1="40" y2="140" /><line style="stroke: black; stroke-width: 2;" x1="320" x2="320" y1="10" y2="350.0" /><svg style="" x="287" y="335.0"><text style="" text-anchor="middle"><tspan x="33" y="30">HP</tspan></text></svg><svg id="BETtask_1,1" x="26.0" y="21"><circle cx="19" cy="19" r="18" style="fill: white; stroke: black; stroke-width: 2;" /><text style="stroke-width: 0;" text-anchor="middle"><tspan x="19" y="24">1</tspan></text></svg><svg id="BETtask_3,1" x="76.0" y="121"><circle cx="19" cy="19" r="18" style="fill: white; stroke: black; stroke-width: 2;" /><text style="stroke-width: 0;" text-anchor="middle"><tspan x="19" y="24">1</tspan></text></svg><svg id="BETtask_4,2" x="76.0" y="221"><circle cx="19" cy="19" r="18" style="fill: white; stroke: black; stroke-width: 2;" /><text style="stroke-width: 0;" text-anchor="middle"><tspan x="19" y="24">2</tspan></text></svg><svg id="BETtask_2,2" x="151.0" y="321"><circle cx="19" cy="19" r="18" style="fill: white; stroke: black; stroke-width: 2;" /><text style="stroke-width: 0;" text-anchor="middle"><tspan x="19" y="24">2</tspan></text></svg><svg id="BETtask_4,3" x="126.0" y="221"><circle cx="19" cy="19" r="18" style="fill: white; stroke: black; stroke-width: 2;" /><text style="stroke-width: 0;" text-anchor="middle"><tspan x="19" y="24">3</tspan></text></svg><svg id="BETtask_4,4" x="176.0" y="221"><circle cx="19" cy="19" r="18" style="fill: white; stroke: black; stroke-width: 2;" /><text style="stroke-width: 0;" text-anchor="middle"><tspan x="19" y="24">4</tspan></text></svg><svg id="BETtask_2,3" x="251.0" y="321"><circle cx="19" cy="19" r="18" style="fill: white; stroke: black; stroke-width: 2;" /><text style="stroke-width: 0;" text-anchor="middle"><tspan x="19" y="24">3</tspan></text></svg><svg id="BETtask_1,3" x="126.0" y="21"><circle cx="19" cy="19" r="18" style="fill: white; stroke: black; stroke-width: 2;" /><text style="stroke-width: 0;" text-anchor="middle"><tspan x="19" y="24">3</tspan></text></svg><svg id="BETtask_3,2" x="226.0" y="121"><circle cx="19" cy="19" r="18" style="fill: white; stroke: black; stroke-width: 2;" /><text style="stroke-width: 0;" text-anchor="middle"><tspan x="19" y="24">2</tspan></text></svg><svg id="BETtask_4,5" x="226.0" y="221"><circle cx="19" cy="19" r="18" style="fill: white; stroke: black; stroke-width: 2;" /><text style="stroke-width: 0;" text-anchor="middle"><tspan x="19" y="24">5</tspan></text></svg><svg id="BETtask_4,6" x="276.0" y="221"><circle cx="19" cy="19" r="18" style="fill: white; stroke: black; stroke-width: 2;" /><text style="stroke-width: 0;" text-anchor="middle"><tspan x="19" y="24">6</tspan></text></svg><svg id="BETtask_2,4" x="351.0" y="321"><circle cx="19" cy="19" r="18" style="fill: white; stroke: black; stroke-width: 2;" /><text style="stroke-width: 0;" text-anchor="middle"><tspan x="19" y="24">4</tspan></text></svg><svg id="BETtask_4,7" x="326.0" y="221"><circle cx="19" cy="19" r="18" style="fill: white; stroke: black; stroke-width: 2;" /><text style="stroke-width: 0;" text-anchor="middle"><tspan x="19" y="24">7</tspan></text></svg><svg id="BETtask_1,4" x="176.0" y="21"><circle cx="19" cy="19" r="18" style="fill: white; stroke: black; stroke-width: 2;" /><text style="stroke-width: 0;" text-anchor="middle"><tspan x="19" y="24">4</tspan></text></svg><svg id="BETtask_1,6" x="276.0" y="21"><circle cx="19" cy="19" r="18" style="fill: white; stroke: black; stroke-width: 2;" /><text style="stroke-width: 0;" text-anchor="middle"><tspan x="19" y="24">6</tspan></text></svg><svg id="BETtask_3,3" x="376.0" y="121"><circle cx="19" cy="19" r="18" style="fill: white; stroke: black; stroke-width: 2;" /><text style="stroke-width: 0;" text-anchor="middle"><tspan x="19" y="24">3</tspan></text></svg><svg id="BETtask_4,8" x="376.0" y="221"><circle cx="19" cy="19" r="18" style="fill: white; stroke: black; stroke-width: 2;" /><text style="stroke-width: 0;" text-anchor="middle"><tspan x="19" y="24">8</tspan></text></svg><svg id="BETtask_2,5" x="451.0" y="321"><circle cx="19" cy="19" r="18" style="fill: white; stroke: black; stroke-width: 2;" /><text style="stroke-width: 0;" text-anchor="middle"><tspan x="19" y="24">5</tspan></text></svg><svg id="BETtask_4,9" x="426.0" y="221"><circle cx="19" cy="19" r="18" style="fill: white; stroke: black; stroke-width: 2;" /><text style="stroke-width: 0;" text-anchor="middle"><tspan x="19" y="24">9</tspan></text></svg><svg id="BETtask_4,10" x="472.0" y="217"><circle cx="23" cy="23" r="22" style="fill: white; stroke: black; stroke-width: 2;" /><text style="stroke-width: 0;" text-anchor="middle"><tspan x="23" y="28">10</tspan></text></svg><svg id="BETtask_2,6" x="551.0" y="321"><circle cx="19" cy="19" r="18" style="fill: white; stroke: black; stroke-width: 2;" /><text style="stroke-width: 0;" text-anchor="middle"><tspan x="19" y="24">6</tspan></text></svg></svg>